solid axle_collar
facet normal -0.0 -0.0 1.0
outer loop
vertex -6.37739694984198 -11.0459755371611 12.7
vertex -6.69148110606924 7.90361699698483e-15 12.7
vertex -9.01900125910334 -9.01900125910334 12.7
endloop
endfacet
facet normal -0.0 -0.0 1.0
outer loop
vertex -6.69148110606924 7.90361699698483e-15 12.7
vertex -6.37739694984198 -11.0459755371611 12.7
vertex -6.46347441647762 -1.73188275019439 12.7
endloop
endfacet
facet normal -0.0 -0.0 1.0
outer loop
vertex -6.46347441647762 -1.73188275019439 12.7
vertex -6.37739694984198 -11.0459755371611 12.7
vertex -5.79499262679956 -3.34574055303462 12.7
endloop
endfacet
facet normal -0.0 -0.0 1.0
outer loop
vertex -5.79499262679956 -3.34574055303462 12.7
vertex -6.37739694984198 -11.0459755371611 12.7
vertex -3.30118357759567 -12.320184836699 12.7
endloop
endfacet
facet normal -0.0 -0.0 1.0
outer loop
vertex -5.79499262679956 -3.34574055303462 12.7
vertex -3.30118357759567 -12.320184836699 12.7
vertex -4.73159166628322 -4.73159166628322 12.7
endloop
endfacet
facet normal -0.0 -0.0 1.0
outer loop
vertex -4.73159166628322 -4.73159166628322 12.7
vertex -3.30118357759567 -12.320184836699 12.7
vertex -3.34574055303462 -5.79499262679955 12.7
endloop
endfacet
facet normal -0.0 -0.0 1.0
outer loop
vertex -3.34574055303462 -5.79499262679955 12.7
vertex -3.30118357759567 -12.320184836699 12.7
vertex -1.73188275019441 -6.46347441647762 12.7
endloop
endfacet
facet normal -0.0 -0.0 1.0
outer loop
vertex -1.73188275019441 -6.46347441647762 12.7
vertex -3.30118357759567 -12.320184836699 12.7
vertex 4.93494134445882e-15 -12.754793899684 12.7
endloop
endfacet
facet normal -0.0 -0.0 1.0
outer loop
vertex -1.73188275019441 -6.46347441647762 12.7
vertex 4.93494134445882e-15 -12.754793899684 12.7
vertex 7.20964087042031e-15 -6.69148110606924 12.7
endloop
endfacet
facet normal -0.0 -0.0 1.0
outer loop
vertex 7.20964087042031e-15 -6.69148110606924 12.7
vertex 4.93494134445882e-15 -12.754793899684 12.7
vertex 3.30118357759566 -12.320184836699 12.7
endloop
endfacet
facet normal -0.0 -0.0 1.0
outer loop
vertex 7.20964087042031e-15 -6.69148110606924 12.7
vertex 3.30118357759566 -12.320184836699 12.7
vertex 1.7318827501944 -6.46347441647762 12.7
endloop
endfacet
facet normal -0.0 -0.0 1.0
outer loop
vertex 1.7318827501944 -6.46347441647762 12.7
vertex 3.30118357759566 -12.320184836699 12.7
vertex 3.34574055303461 -5.79499262679956 12.7
endloop
endfacet
facet normal -0.0 -0.0 1.0
outer loop
vertex 3.34574055303461 -5.79499262679956 12.7
vertex 3.30118357759566 -12.320184836699 12.7
vertex 6.37739694984197 -11.0459755371611 12.7
endloop
endfacet
facet normal -0.0 -0.0 1.0
outer loop
vertex 3.34574055303461 -5.79499262679956 12.7
vertex 6.37739694984197 -11.0459755371611 12.7
vertex 4.73159166628322 -4.73159166628322 12.7
endloop
endfacet
facet normal -0.0 -0.0 1.0
outer loop
vertex 4.73159166628322 -4.73159166628322 12.7
vertex 6.37739694984197 -11.0459755371611 12.7
vertex 5.79499262679955 -3.34574055303462 12.7
endloop
endfacet
facet normal -0.0 -0.0 1.0
outer loop
vertex 5.79499262679955 -3.34574055303462 12.7
vertex 6.37739694984197 -11.0459755371611 12.7
vertex 6.46347441647762 -1.7318827501944 12.7
endloop
endfacet
facet normal -0.0 -0.0 1.0
outer loop
vertex 6.46347441647762 -1.7318827501944 12.7
vertex 6.37739694984197 -11.0459755371611 12.7
vertex 9.01900125910335 -9.01900125910333 12.7
endloop
endfacet
facet normal -0.0 -0.0 1.0
outer loop
vertex 6.46347441647762 -1.7318827501944 12.7
vertex 9.01900125910335 -9.01900125910333 12.7
vertex 6.69148110606924 8.47642268875237e-15 12.7
endloop
endfacet
facet normal -0.0 -0.0 1.0
outer loop
vertex -12.320184836699 -3.30118357759566 12.7
vertex -12.320184836699 3.30118357759568 12.7
vertex -12.754793899684 1.93872695675168e-15 12.7
endloop
endfacet
facet normal -0.0 -0.0 1.0
outer loop
vertex -12.320184836699 3.30118357759568 12.7
vertex -12.320184836699 -3.30118357759566 12.7
vertex -11.0459755371611 -6.37739694984197 12.7
endloop
endfacet
facet normal -0.0 -0.0 1.0
outer loop
vertex -12.320184836699 3.30118357759568 12.7
vertex -11.0459755371611 -6.37739694984197 12.7
vertex -11.0459755371611 6.377396949842 12.7
endloop
endfacet
facet normal -0.0 -0.0 1.0
outer loop
vertex -11.0459755371611 6.377396949842 12.7
vertex -11.0459755371611 -6.37739694984197 12.7
vertex -9.01900125910334 -9.01900125910334 12.7
endloop
endfacet
facet normal -0.0 -0.0 1.0
outer loop
vertex -11.0459755371611 6.377396949842 12.7
vertex -9.01900125910334 -9.01900125910334 12.7
vertex -9.01900125910335 9.01900125910334 12.7
endloop
endfacet
facet normal -0.0 -0.0 1.0
outer loop
vertex -9.01900125910335 9.01900125910334 12.7
vertex -9.01900125910334 -9.01900125910334 12.7
vertex -6.37739694984199 11.0459755371611 12.7
endloop
endfacet
facet normal -0.0 -0.0 1.0
outer loop
vertex -6.37739694984199 11.0459755371611 12.7
vertex -9.01900125910334 -9.01900125910334 12.7
vertex -6.69148110606924 7.90361699698483e-15 12.7
endloop
endfacet
facet normal -0.0 -0.0 1.0
outer loop
vertex -6.37739694984199 11.0459755371611 12.7
vertex -6.69148110606924 7.90361699698483e-15 12.7
vertex -6.46347441647762 1.7318827501944 12.7
endloop
endfacet
facet normal -0.0 -0.0 1.0
outer loop
vertex -6.37739694984199 11.0459755371611 12.7
vertex -6.46347441647762 1.7318827501944 12.7
vertex -5.79499262679955 3.34574055303462 12.7
endloop
endfacet
facet normal -0.0 -0.0 1.0
outer loop
vertex -6.37739694984199 11.0459755371611 12.7
vertex -5.79499262679955 3.34574055303462 12.7
vertex -3.30118357759567 12.320184836699 12.7
endloop
endfacet
facet normal -0.0 -0.0 1.0
outer loop
vertex -3.30118357759567 12.320184836699 12.7
vertex -5.79499262679955 3.34574055303462 12.7
vertex -4.73159166628322 4.73159166628322 12.7
endloop
endfacet
facet normal -0.0 -0.0 1.0
outer loop
vertex -3.30118357759567 12.320184836699 12.7
vertex -4.73159166628322 4.73159166628322 12.7
vertex -3.34574055303462 5.79499262679956 12.7
endloop
endfacet
facet normal -0.0 -0.0 1.0
outer loop
vertex -3.30118357759567 12.320184836699 12.7
vertex -3.34574055303462 5.79499262679956 12.7
vertex -1.7318827501944 6.46347441647762 12.7
endloop
endfacet
facet normal -0.0 -0.0 1.0
outer loop
vertex -3.30118357759567 12.320184836699 12.7
vertex -1.7318827501944 6.46347441647762 12.7
vertex 7.22616411152899e-15 12.754793899684 12.7
endloop
endfacet
facet normal -0.0 -0.0 1.0
outer loop
vertex 7.22616411152899e-15 12.754793899684 12.7
vertex -1.7318827501944 6.46347441647762 12.7
vertex 7.26471834078257e-15 6.69148110606924 12.7
endloop
endfacet
facet normal -0.0 -0.0 1.0
outer loop
vertex 7.22616411152899e-15 12.754793899684 12.7
vertex 7.26471834078257e-15 6.69148110606924 12.7
vertex 3.30118357759566 12.320184836699 12.7
endloop
endfacet
facet normal -0.0 -0.0 1.0
outer loop
vertex 3.30118357759566 12.320184836699 12.7
vertex 7.26471834078257e-15 6.69148110606924 12.7
vertex 1.7318827501944 6.46347441647762 12.7
endloop
endfacet
facet normal -0.0 -0.0 1.0
outer loop
vertex 3.30118357759566 12.320184836699 12.7
vertex 1.7318827501944 6.46347441647762 12.7
vertex 3.34574055303462 5.79499262679955 12.7
endloop
endfacet
facet normal -0.0 -0.0 1.0
outer loop
vertex 3.30118357759566 12.320184836699 12.7
vertex 3.34574055303462 5.79499262679955 12.7
vertex 6.37739694984199 11.0459755371611 12.7
endloop
endfacet
facet normal -0.0 -0.0 1.0
outer loop
vertex 6.37739694984199 11.0459755371611 12.7
vertex 3.34574055303462 5.79499262679955 12.7
vertex 4.73159166628322 4.73159166628322 12.7
endloop
endfacet
facet normal -0.0 -0.0 1.0
outer loop
vertex 6.37739694984199 11.0459755371611 12.7
vertex 4.73159166628322 4.73159166628322 12.7
vertex 5.79499262679956 3.34574055303461 12.7
endloop
endfacet
facet normal -0.0 -0.0 1.0
outer loop
vertex 6.37739694984199 11.0459755371611 12.7
vertex 5.79499262679956 3.34574055303461 12.7
vertex 6.46347441647762 1.7318827501944 12.7
endloop
endfacet
facet normal -0.0 -0.0 1.0
outer loop
vertex 6.37739694984199 11.0459755371611 12.7
vertex 6.46347441647762 1.7318827501944 12.7
vertex 9.01900125910336 9.01900125910333 12.7
endloop
endfacet
facet normal -0.0 -0.0 1.0
outer loop
vertex 9.01900125910336 9.01900125910333 12.7
vertex 6.46347441647762 1.7318827501944 12.7
vertex 6.69148110606924 8.47642268875237e-15 12.7
endloop
endfacet
facet normal -0.0 -0.0 1.0
outer loop
vertex 9.01900125910336 9.01900125910333 12.7
vertex 6.69148110606924 8.47642268875237e-15 12.7
vertex 9.01900125910335 -9.01900125910333 12.7
endloop
endfacet
facet normal -0.0 -0.0 1.0
outer loop
vertex 9.01900125910336 9.01900125910333 12.7
vertex 9.01900125910335 -9.01900125910333 12.7
vertex 11.0459755371611 -6.37739694984198 12.7
endloop
endfacet
facet normal -0.0 -0.0 1.0
outer loop
vertex 9.01900125910336 9.01900125910333 12.7
vertex 11.0459755371611 -6.37739694984198 12.7
vertex 11.0459755371611 6.37739694984198 12.7
endloop
endfacet
facet normal -0.0 -0.0 1.0
outer loop
vertex 11.0459755371611 6.37739694984198 12.7
vertex 11.0459755371611 -6.37739694984198 12.7
vertex 12.320184836699 -3.30118357759568 12.7
endloop
endfacet
facet normal -0.0 -0.0 1.0
outer loop
vertex 11.0459755371611 6.37739694984198 12.7
vertex 12.320184836699 -3.30118357759568 12.7
vertex 12.320184836699 3.30118357759567 12.7
endloop
endfacet
facet normal -0.0 -0.0 1.0
outer loop
vertex 12.320184836699 3.30118357759567 12.7
vertex 12.320184836699 -3.30118357759568 12.7
vertex 12.754793899684 8.1074036373252e-15 12.7
endloop
endfacet
facet normal 0.99144486137381 0.130526192220053 0.0
outer loop
vertex 12.320184836699 3.30118357759567 0.0
vertex 12.754793899684 8.1074036373252e-15 12.7
vertex 12.754793899684 8.1074036373252e-15 0.0
endloop
endfacet
facet normal 0.99144486137381 0.130526192220053 0.0
outer loop
vertex 12.754793899684 8.1074036373252e-15 12.7
vertex 12.320184836699 3.30118357759567 0.0
vertex 12.320184836699 3.30118357759567 12.7
endloop
endfacet
facet normal 0.99144486137381 -0.130526192220051 0.0
outer loop
vertex 12.754793899684 8.1074036373252e-15 0.0
vertex 12.320184836699 -3.30118357759568 12.7
vertex 12.320184836699 -3.30118357759568 0.0
endloop
endfacet
facet normal 0.99144486137381 -0.130526192220051 0.0
outer loop
vertex 12.320184836699 -3.30118357759568 12.7
vertex 12.754793899684 8.1074036373252e-15 0.0
vertex 12.754793899684 8.1074036373252e-15 12.7
endloop
endfacet
facet normal 0.923879532511286 -0.382683432365091 0.0
outer loop
vertex 12.320184836699 -3.30118357759568 0.0
vertex 11.0459755371611 -6.37739694984198 12.7
vertex 11.0459755371611 -6.37739694984198 0.0
endloop
endfacet
facet normal 0.923879532511286 -0.382683432365091 0.0
outer loop
vertex 11.0459755371611 -6.37739694984198 12.7
vertex 12.320184836699 -3.30118357759568 0.0
vertex 12.320184836699 -3.30118357759568 12.7
endloop
endfacet
facet normal 0.793353340291235 -0.60876142900872 0.0
outer loop
vertex 11.0459755371611 -6.37739694984198 0.0
vertex 9.01900125910335 -9.01900125910333 12.7
vertex 9.01900125910335 -9.01900125910333 0.0
endloop
endfacet
facet normal 0.793353340291235 -0.60876142900872 0.0
outer loop
vertex 9.01900125910335 -9.01900125910333 12.7
vertex 11.0459755371611 -6.37739694984198 0.0
vertex 11.0459755371611 -6.37739694984198 12.7
endloop
endfacet
facet normal 0.608761429008721 -0.793353340291235 0.0
outer loop
vertex 9.01900125910335 -9.01900125910333 12.7
vertex 6.37739694984197 -11.0459755371611 0.0
vertex 9.01900125910335 -9.01900125910333 0.0
endloop
endfacet
facet normal 0.608761429008721 -0.793353340291235 0.0
outer loop
vertex 6.37739694984197 -11.0459755371611 0.0
vertex 9.01900125910335 -9.01900125910333 12.7
vertex 6.37739694984197 -11.0459755371611 12.7
endloop
endfacet
facet normal 0.382683432365089 -0.923879532511287 0.0
outer loop
vertex 6.37739694984197 -11.0459755371611 12.7
vertex 3.30118357759566 -12.320184836699 0.0
vertex 6.37739694984197 -11.0459755371611 0.0
endloop
endfacet
facet normal 0.382683432365089 -0.923879532511287 0.0
outer loop
vertex 3.30118357759566 -12.320184836699 0.0
vertex 6.37739694984197 -11.0459755371611 12.7
vertex 3.30118357759566 -12.320184836699 12.7
endloop
endfacet
facet normal 0.130526192220051 -0.991444861373811 0.0
outer loop
vertex 3.30118357759566 -12.320184836699 12.7
vertex 4.93494134445882e-15 -12.754793899684 0.0
vertex 3.30118357759566 -12.320184836699 0.0
endloop
endfacet
facet normal 0.130526192220051 -0.991444861373811 0.0
outer loop
vertex 4.93494134445882e-15 -12.754793899684 0.0
vertex 3.30118357759566 -12.320184836699 12.7
vertex 4.93494134445882e-15 -12.754793899684 12.7
endloop
endfacet
facet normal -0.130526192220051 -0.99144486137381 -0.0
outer loop
vertex 4.93494134445882e-15 -12.754793899684 12.7
vertex -3.30118357759567 -12.320184836699 0.0
vertex 4.93494134445882e-15 -12.754793899684 0.0
endloop
endfacet
facet normal -0.130526192220051 -0.99144486137381 -0.0
outer loop
vertex -3.30118357759567 -12.320184836699 0.0
vertex 4.93494134445882e-15 -12.754793899684 12.7
vertex -3.30118357759567 -12.320184836699 12.7
endloop
endfacet
facet normal -0.382683432365091 -0.923879532511287 -0.0
outer loop
vertex -3.30118357759567 -12.320184836699 12.7
vertex -6.37739694984198 -11.0459755371611 0.0
vertex -3.30118357759567 -12.320184836699 0.0
endloop
endfacet
facet normal -0.382683432365091 -0.923879532511287 -0.0
outer loop
vertex -6.37739694984198 -11.0459755371611 0.0
vertex -3.30118357759567 -12.320184836699 12.7
vertex -6.37739694984198 -11.0459755371611 12.7
endloop
endfacet
facet normal -0.60876142900872 -0.793353340291235 -0.0
outer loop
vertex -6.37739694984198 -11.0459755371611 12.7
vertex -9.01900125910334 -9.01900125910334 0.0
vertex -6.37739694984198 -11.0459755371611 0.0
endloop
endfacet
facet normal -0.60876142900872 -0.793353340291235 -0.0
outer loop
vertex -9.01900125910334 -9.01900125910334 0.0
vertex -6.37739694984198 -11.0459755371611 12.7
vertex -9.01900125910334 -9.01900125910334 12.7
endloop
endfacet
facet normal -0.793353340291235 -0.608761429008721 -0.0
outer loop
vertex -11.0459755371611 -6.37739694984197 12.7
vertex -9.01900125910334 -9.01900125910334 0.0
vertex -9.01900125910334 -9.01900125910334 12.7
endloop
endfacet
facet normal -0.793353340291235 -0.608761429008721 -0.0
outer loop
vertex -9.01900125910334 -9.01900125910334 0.0
vertex -11.0459755371611 -6.37739694984197 12.7
vertex -11.0459755371611 -6.37739694984197 0.0
endloop
endfacet
facet normal -0.923879532511288 -0.382683432365088 -0.0
outer loop
vertex -12.320184836699 -3.30118357759566 12.7
vertex -11.0459755371611 -6.37739694984197 0.0
vertex -11.0459755371611 -6.37739694984197 12.7
endloop
endfacet
facet normal -0.923879532511288 -0.382683432365088 -0.0
outer loop
vertex -11.0459755371611 -6.37739694984197 0.0
vertex -12.320184836699 -3.30118357759566 12.7
vertex -12.320184836699 -3.30118357759566 0.0
endloop
endfacet
facet normal -0.99144486137381 -0.130526192220051 -0.0
outer loop
vertex -12.754793899684 1.93872695675168e-15 12.7
vertex -12.320184836699 -3.30118357759566 0.0
vertex -12.320184836699 -3.30118357759566 12.7
endloop
endfacet
facet normal -0.99144486137381 -0.130526192220051 -0.0
outer loop
vertex -12.320184836699 -3.30118357759566 0.0
vertex -12.754793899684 1.93872695675168e-15 12.7
vertex -12.754793899684 1.93872695675168e-15 0.0
endloop
endfacet
facet normal -0.991444861373811 0.130526192220051 0.0
outer loop
vertex -12.320184836699 3.30118357759568 12.7
vertex -12.754793899684 1.93872695675168e-15 0.0
vertex -12.754793899684 1.93872695675168e-15 12.7
endloop
endfacet
facet normal -0.991444861373811 0.130526192220051 0.0
outer loop
vertex -12.754793899684 1.93872695675168e-15 0.0
vertex -12.320184836699 3.30118357759568 12.7
vertex -12.320184836699 3.30118357759568 0.0
endloop
endfacet
facet normal -0.923879532511286 0.382683432365091 0.0
outer loop
vertex -11.0459755371611 6.377396949842 12.7
vertex -12.320184836699 3.30118357759568 0.0
vertex -12.320184836699 3.30118357759568 12.7
endloop
endfacet
facet normal -0.923879532511286 0.382683432365091 0.0
outer loop
vertex -12.320184836699 3.30118357759568 0.0
vertex -11.0459755371611 6.377396949842 12.7
vertex -11.0459755371611 6.377396949842 0.0
endloop
endfacet
facet normal -0.793353340291234 0.608761429008722 0.0
outer loop
vertex -9.01900125910335 9.01900125910334 12.7
vertex -11.0459755371611 6.377396949842 0.0
vertex -11.0459755371611 6.377396949842 12.7
endloop
endfacet
facet normal -0.793353340291234 0.608761429008722 0.0
outer loop
vertex -11.0459755371611 6.377396949842 0.0
vertex -9.01900125910335 9.01900125910334 12.7
vertex -9.01900125910335 9.01900125910334 0.0
endloop
endfacet
facet normal -0.608761429008722 0.793353340291234 0.0
outer loop
vertex -9.01900125910335 9.01900125910334 12.7
vertex -6.37739694984199 11.0459755371611 0.0
vertex -9.01900125910335 9.01900125910334 0.0
endloop
endfacet
facet normal -0.608761429008722 0.793353340291234 0.0
outer loop
vertex -6.37739694984199 11.0459755371611 0.0
vertex -9.01900125910335 9.01900125910334 12.7
vertex -6.37739694984199 11.0459755371611 12.7
endloop
endfacet
facet normal -0.38268343236509 0.923879532511287 0.0
outer loop
vertex -6.37739694984199 11.0459755371611 12.7
vertex -3.30118357759567 12.320184836699 0.0
vertex -6.37739694984199 11.0459755371611 0.0
endloop
endfacet
facet normal -0.38268343236509 0.923879532511287 0.0
outer loop
vertex -3.30118357759567 12.320184836699 0.0
vertex -6.37739694984199 11.0459755371611 12.7
vertex -3.30118357759567 12.320184836699 12.7
endloop
endfacet
facet normal -0.130526192220052 0.99144486137381 0.0
outer loop
vertex -3.30118357759567 12.320184836699 12.7
vertex 7.22616411152899e-15 12.754793899684 0.0
vertex -3.30118357759567 12.320184836699 0.0
endloop
endfacet
facet normal -0.130526192220052 0.99144486137381 0.0
outer loop
vertex 7.22616411152899e-15 12.754793899684 0.0
vertex -3.30118357759567 12.320184836699 12.7
vertex 7.22616411152899e-15 12.754793899684 12.7
endloop
endfacet
facet normal 0.130526192220053 0.99144486137381 0.0
outer loop
vertex 7.22616411152899e-15 12.754793899684 12.7
vertex 3.30118357759566 12.320184836699 0.0
vertex 7.22616411152899e-15 12.754793899684 0.0
endloop
endfacet
facet normal 0.130526192220053 0.99144486137381 0.0
outer loop
vertex 3.30118357759566 12.320184836699 0.0
vertex 7.22616411152899e-15 12.754793899684 12.7
vertex 3.30118357759566 12.320184836699 12.7
endloop
endfacet
facet normal 0.382683432365089 0.923879532511287 0.0
outer loop
vertex 3.30118357759566 12.320184836699 12.7
vertex 6.37739694984199 11.0459755371611 0.0
vertex 3.30118357759566 12.320184836699 0.0
endloop
endfacet
facet normal 0.382683432365089 0.923879532511287 0.0
outer loop
vertex 6.37739694984199 11.0459755371611 0.0
vertex 3.30118357759566 12.320184836699 12.7
vertex 6.37739694984199 11.0459755371611 12.7
endloop
endfacet
facet normal 0.608761429008721 0.793353340291234 0.0
outer loop
vertex 6.37739694984199 11.0459755371611 12.7
vertex 9.01900125910336 9.01900125910333 0.0
vertex 6.37739694984199 11.0459755371611 0.0
endloop
endfacet
facet normal 0.608761429008721 0.793353340291234 0.0
outer loop
vertex 9.01900125910336 9.01900125910333 0.0
vertex 6.37739694984199 11.0459755371611 12.7
vertex 9.01900125910336 9.01900125910333 12.7
endloop
endfacet
facet normal 0.793353340291236 0.60876142900872 0.0
outer loop
vertex 9.01900125910336 9.01900125910333 0.0
vertex 11.0459755371611 6.37739694984198 12.7
vertex 11.0459755371611 6.37739694984198 0.0
endloop
endfacet
facet normal 0.793353340291236 0.60876142900872 0.0
outer loop
vertex 11.0459755371611 6.37739694984198 12.7
vertex 9.01900125910336 9.01900125910333 0.0
vertex 9.01900125910336 9.01900125910333 12.7
endloop
endfacet
facet normal 0.923879532511287 0.382683432365089 0.0
outer loop
vertex 11.0459755371611 6.37739694984198 0.0
vertex 12.320184836699 3.30118357759567 12.7
vertex 12.320184836699 3.30118357759567 0.0
endloop
endfacet
facet normal 0.923879532511287 0.382683432365089 0.0
outer loop
vertex 12.320184836699 3.30118357759567 12.7
vertex 11.0459755371611 6.37739694984198 0.0
vertex 11.0459755371611 6.37739694984198 12.7
endloop
endfacet
facet normal -0.793353340291235 0.608761429008721 -0.0
outer loop
vertex 5.79499262679955 -3.34574055303462 12.7
vertex 4.73159166628322 -4.73159166628322 0.0
vertex 4.73159166628322 -4.73159166628322 12.7
endloop
endfacet
facet normal -0.793353340291235 0.608761429008721 -0.0
outer loop
vertex 4.73159166628322 -4.73159166628322 0.0
vertex 5.79499262679955 -3.34574055303462 12.7
vertex 5.79499262679955 -3.34574055303462 0.0
endloop
endfacet
facet normal -0.923879532511287 0.38268343236509 -0.0
outer loop
vertex 6.46347441647762 -1.7318827501944 12.7
vertex 5.79499262679955 -3.34574055303462 0.0
vertex 5.79499262679955 -3.34574055303462 12.7
endloop
endfacet
facet normal -0.923879532511287 0.38268343236509 -0.0
outer loop
vertex 5.79499262679955 -3.34574055303462 0.0
vertex 6.46347441647762 -1.7318827501944 12.7
vertex 6.46347441647762 -1.7318827501944 0.0
endloop
endfacet
facet normal -0.99144486137381 0.130526192220051 -0.0
outer loop
vertex 6.69148110606924 8.47642268875237e-15 12.7
vertex 6.46347441647762 -1.7318827501944 0.0
vertex 6.46347441647762 -1.7318827501944 12.7
endloop
endfacet
facet normal -0.99144486137381 0.130526192220051 -0.0
outer loop
vertex 6.46347441647762 -1.7318827501944 0.0
vertex 6.69148110606924 8.47642268875237e-15 12.7
vertex 6.69148110606924 8.47642268875237e-15 0.0
endloop
endfacet
facet normal -0.99144486137381 -0.130526192220051 -0.0
outer loop
vertex 6.46347441647762 1.7318827501944 12.7
vertex 6.69148110606924 8.47642268875237e-15 0.0
vertex 6.69148110606924 8.47642268875237e-15 12.7
endloop
endfacet
facet normal -0.99144486137381 -0.130526192220051 -0.0
outer loop
vertex 6.69148110606924 8.47642268875237e-15 0.0
vertex 6.46347441647762 1.7318827501944 12.7
vertex 6.46347441647762 1.7318827501944 0.0
endloop
endfacet
facet normal -0.923879532511287 -0.382683432365089 -0.0
outer loop
vertex 5.79499262679956 3.34574055303461 12.7
vertex 6.46347441647762 1.7318827501944 0.0
vertex 6.46347441647762 1.7318827501944 12.7
endloop
endfacet
facet normal -0.923879532511287 -0.382683432365089 -0.0
outer loop
vertex 6.46347441647762 1.7318827501944 0.0
vertex 5.79499262679956 3.34574055303461 12.7
vertex 5.79499262679956 3.34574055303461 0.0
endloop
endfacet
facet normal -0.793353340291235 -0.60876142900872 -0.0
outer loop
vertex 4.73159166628322 4.73159166628322 12.7
vertex 5.79499262679956 3.34574055303461 0.0
vertex 5.79499262679956 3.34574055303461 12.7
endloop
endfacet
facet normal -0.793353340291235 -0.60876142900872 -0.0
outer loop
vertex 5.79499262679956 3.34574055303461 0.0
vertex 4.73159166628322 4.73159166628322 12.7
vertex 4.73159166628322 4.73159166628322 0.0
endloop
endfacet
facet normal -0.608761429008721 -0.793353340291235 -0.0
outer loop
vertex 4.73159166628322 4.73159166628322 12.7
vertex 3.34574055303462 5.79499262679955 0.0
vertex 4.73159166628322 4.73159166628322 0.0
endloop
endfacet
facet normal -0.608761429008721 -0.793353340291235 -0.0
outer loop
vertex 3.34574055303462 5.79499262679955 0.0
vertex 4.73159166628322 4.73159166628322 12.7
vertex 3.34574055303462 5.79499262679955 12.7
endloop
endfacet
facet normal -0.38268343236509 -0.923879532511287 -0.0
outer loop
vertex 3.34574055303462 5.79499262679955 12.7
vertex 1.7318827501944 6.46347441647762 0.0
vertex 3.34574055303462 5.79499262679955 0.0
endloop
endfacet
facet normal -0.38268343236509 -0.923879532511287 -0.0
outer loop
vertex 1.7318827501944 6.46347441647762 0.0
vertex 3.34574055303462 5.79499262679955 12.7
vertex 1.7318827501944 6.46347441647762 12.7
endloop
endfacet
facet normal -0.130526192220053 -0.99144486137381 -0.0
outer loop
vertex 1.7318827501944 6.46347441647762 12.7
vertex 7.26471834078257e-15 6.69148110606924 0.0
vertex 1.7318827501944 6.46347441647762 0.0
endloop
endfacet
facet normal -0.130526192220053 -0.99144486137381 -0.0
outer loop
vertex 7.26471834078257e-15 6.69148110606924 0.0
vertex 1.7318827501944 6.46347441647762 12.7
vertex 7.26471834078257e-15 6.69148110606924 12.7
endloop
endfacet
facet normal 0.130526192220051 -0.99144486137381 -0.0
outer loop
vertex 7.26471834078257e-15 6.69148110606924 12.7
vertex -1.7318827501944 6.46347441647762 0.0
vertex 7.26471834078257e-15 6.69148110606924 0.0
endloop
endfacet
facet normal 0.130526192220051 -0.99144486137381 -0.0
outer loop
vertex -1.7318827501944 6.46347441647762 0.0
vertex 7.26471834078257e-15 6.69148110606924 12.7
vertex -1.7318827501944 6.46347441647762 12.7
endloop
endfacet
facet normal 0.38268343236509 -0.923879532511287 -0.0
outer loop
vertex -1.7318827501944 6.46347441647762 12.7
vertex -3.34574055303462 5.79499262679956 0.0
vertex -1.7318827501944 6.46347441647762 0.0
endloop
endfacet
facet normal 0.38268343236509 -0.923879532511287 -0.0
outer loop
vertex -3.34574055303462 5.79499262679956 0.0
vertex -1.7318827501944 6.46347441647762 12.7
vertex -3.34574055303462 5.79499262679956 12.7
endloop
endfacet
facet normal 0.608761429008721 -0.793353340291235 -0.0
outer loop
vertex -3.34574055303462 5.79499262679956 12.7
vertex -4.73159166628322 4.73159166628322 0.0
vertex -3.34574055303462 5.79499262679956 0.0
endloop
endfacet
facet normal 0.608761429008721 -0.793353340291235 -0.0
outer loop
vertex -4.73159166628322 4.73159166628322 0.0
vertex -3.34574055303462 5.79499262679956 12.7
vertex -4.73159166628322 4.73159166628322 12.7
endloop
endfacet
facet normal 0.793353340291235 -0.608761429008721 -0.0
outer loop
vertex -4.73159166628322 4.73159166628322 0.0
vertex -5.79499262679955 3.34574055303462 12.7
vertex -5.79499262679955 3.34574055303462 0.0
endloop
endfacet
facet normal 0.793353340291235 -0.608761429008721 -0.0
outer loop
vertex -5.79499262679955 3.34574055303462 12.7
vertex -4.73159166628322 4.73159166628322 0.0
vertex -4.73159166628322 4.73159166628322 12.7
endloop
endfacet
facet normal 0.923879532511286 -0.382683432365091 -0.0
outer loop
vertex -5.79499262679955 3.34574055303462 0.0
vertex -6.46347441647762 1.7318827501944 12.7
vertex -6.46347441647762 1.7318827501944 0.0
endloop
endfacet
facet normal 0.923879532511286 -0.382683432365091 -0.0
outer loop
vertex -6.46347441647762 1.7318827501944 12.7
vertex -5.79499262679955 3.34574055303462 0.0
vertex -5.79499262679955 3.34574055303462 12.7
endloop
endfacet
facet normal 0.99144486137381 -0.130526192220053 -0.0
outer loop
vertex -6.46347441647762 1.7318827501944 0.0
vertex -6.69148110606924 7.90361699698483e-15 12.7
vertex -6.69148110606924 7.90361699698483e-15 0.0
endloop
endfacet
facet normal 0.99144486137381 -0.130526192220053 -0.0
outer loop
vertex -6.69148110606924 7.90361699698483e-15 12.7
vertex -6.46347441647762 1.7318827501944 0.0
vertex -6.46347441647762 1.7318827501944 12.7
endloop
endfacet
facet normal 0.991444861373811 0.130526192220051 0.0
outer loop
vertex -6.69148110606924 7.90361699698483e-15 0.0
vertex -6.46347441647762 -1.73188275019439 12.7
vertex -6.46347441647762 -1.73188275019439 0.0
endloop
endfacet
facet normal 0.991444861373811 0.130526192220051 0.0
outer loop
vertex -6.46347441647762 -1.73188275019439 12.7
vertex -6.69148110606924 7.90361699698483e-15 0.0
vertex -6.69148110606924 7.90361699698483e-15 12.7
endloop
endfacet
facet normal 0.923879532511287 0.382683432365089 0.0
outer loop
vertex -6.46347441647762 -1.73188275019439 0.0
vertex -5.79499262679956 -3.34574055303462 12.7
vertex -5.79499262679956 -3.34574055303462 0.0
endloop
endfacet
facet normal 0.923879532511287 0.382683432365089 0.0
outer loop
vertex -5.79499262679956 -3.34574055303462 12.7
vertex -6.46347441647762 -1.73188275019439 0.0
vertex -6.46347441647762 -1.73188275019439 12.7
endloop
endfacet
facet normal 0.793353340291235 0.608761429008721 0.0
outer loop
vertex -5.79499262679956 -3.34574055303462 0.0
vertex -4.73159166628322 -4.73159166628322 12.7
vertex -4.73159166628322 -4.73159166628322 0.0
endloop
endfacet
facet normal 0.793353340291235 0.608761429008721 0.0
outer loop
vertex -4.73159166628322 -4.73159166628322 12.7
vertex -5.79499262679956 -3.34574055303462 0.0
vertex -5.79499262679956 -3.34574055303462 12.7
endloop
endfacet
facet normal 0.608761429008721 0.793353340291235 0.0
outer loop
vertex -4.73159166628322 -4.73159166628322 12.7
vertex -3.34574055303462 -5.79499262679955 0.0
vertex -4.73159166628322 -4.73159166628322 0.0
endloop
endfacet
facet normal 0.608761429008721 0.793353340291235 0.0
outer loop
vertex -3.34574055303462 -5.79499262679955 0.0
vertex -4.73159166628322 -4.73159166628322 12.7
vertex -3.34574055303462 -5.79499262679955 12.7
endloop
endfacet
facet normal 0.382683432365091 0.923879532511286 0.0
outer loop
vertex -3.34574055303462 -5.79499262679955 12.7
vertex -1.73188275019441 -6.46347441647762 0.0
vertex -3.34574055303462 -5.79499262679955 0.0
endloop
endfacet
facet normal 0.382683432365091 0.923879532511286 0.0
outer loop
vertex -1.73188275019441 -6.46347441647762 0.0
vertex -3.34574055303462 -5.79499262679955 12.7
vertex -1.73188275019441 -6.46347441647762 12.7
endloop
endfacet
facet normal 0.130526192220051 0.99144486137381 0.0
outer loop
vertex -1.73188275019441 -6.46347441647762 12.7
vertex 7.20964087042031e-15 -6.69148110606924 0.0
vertex -1.73188275019441 -6.46347441647762 0.0
endloop
endfacet
facet normal 0.130526192220051 0.99144486137381 0.0
outer loop
vertex 7.20964087042031e-15 -6.69148110606924 0.0
vertex -1.73188275019441 -6.46347441647762 12.7
vertex 7.20964087042031e-15 -6.69148110606924 12.7
endloop
endfacet
facet normal -0.130526192220052 0.99144486137381 -0.0
outer loop
vertex 7.20964087042031e-15 -6.69148110606924 12.7
vertex 1.7318827501944 -6.46347441647762 0.0
vertex 7.20964087042031e-15 -6.69148110606924 0.0
endloop
endfacet
facet normal -0.130526192220052 0.99144486137381 -0.0
outer loop
vertex 1.7318827501944 -6.46347441647762 0.0
vertex 7.20964087042031e-15 -6.69148110606924 12.7
vertex 1.7318827501944 -6.46347441647762 12.7
endloop
endfacet
facet normal -0.382683432365088 0.923879532511288 -0.0
outer loop
vertex 1.7318827501944 -6.46347441647762 12.7
vertex 3.34574055303461 -5.79499262679956 0.0
vertex 1.7318827501944 -6.46347441647762 0.0
endloop
endfacet
facet normal -0.382683432365088 0.923879532511288 -0.0
outer loop
vertex 3.34574055303461 -5.79499262679956 0.0
vertex 1.7318827501944 -6.46347441647762 12.7
vertex 3.34574055303461 -5.79499262679956 12.7
endloop
endfacet
facet normal -0.60876142900872 0.793353340291235 -0.0
outer loop
vertex 3.34574055303461 -5.79499262679956 12.7
vertex 4.73159166628322 -4.73159166628322 0.0
vertex 3.34574055303461 -5.79499262679956 0.0
endloop
endfacet
facet normal -0.60876142900872 0.793353340291235 -0.0
outer loop
vertex 4.73159166628322 -4.73159166628322 0.0
vertex 3.34574055303461 -5.79499262679956 12.7
vertex 4.73159166628322 -4.73159166628322 12.7
endloop
endfacet
endsolid axle_collar
