solid collar
facet normal 0.0 0.0 -1.0
outer loop
vertex -12.5 21.650635094611 0.0
vertex -12.72 1.55775072851543e-15 0.0
vertex -17.6776695296637 17.6776695296637 0.0
endloop
endfacet
facet normal 0.0 0.0 -1.0
outer loop
vertex -12.72 1.55775072851543e-15 0.0
vertex -12.5 21.650635094611 0.0
vertex -12.2865765103969 3.29217825370407 0.0
endloop
endfacet
facet normal 0.0 0.0 -1.0
outer loop
vertex -12.2865765103969 3.29217825370407 0.0
vertex -12.5 21.650635094611 0.0
vertex -6.47047612756302 24.1481456572267 0.0
endloop
endfacet
facet normal 0.0 0.0 -1.0
outer loop
vertex -12.2865765103969 3.29217825370407 0.0
vertex -6.47047612756302 24.1481456572267 0.0
vertex -11.0158431361381 6.36 0.0
endloop
endfacet
facet normal 0.0 0.0 -1.0
outer loop
vertex -11.0158431361381 6.36 0.0
vertex -6.47047612756302 24.1481456572267 0.0
vertex -8.99439825669288 8.99439825669288 0.0
endloop
endfacet
facet normal 0.0 0.0 -1.0
outer loop
vertex -8.99439825669288 8.99439825669288 0.0
vertex -6.47047612756302 24.1481456572267 0.0
vertex -6.36 11.0158431361381 0.0
endloop
endfacet
facet normal 0.0 0.0 -1.0
outer loop
vertex -6.36 11.0158431361381 0.0
vertex -6.47047612756302 24.1481456572267 0.0
vertex -1.10441944440188 24.8546004217604 0.0
endloop
endfacet
facet normal 0.0 0.0 -1.0
outer loop
vertex -6.36 11.0158431361381 0.0
vertex -1.10441944440188 24.8546004217604 0.0
vertex -3.29217825370406 12.2865765103969 0.0
endloop
endfacet
facet normal 0.0 0.0 -1.0
outer loop
vertex -3.29217825370406 12.2865765103969 0.0
vertex -1.10441944440188 24.8546004217604 0.0
vertex -1.10441944440188 12.5746004217604 0.0
endloop
endfacet
facet normal 0.0 0.0 -1.0
outer loop
vertex 1.19558055559812 24.8425988337886 0.0
vertex 3.29217825370407 12.2865765103969 0.0
vertex 1.19558055559812 12.5625988337886 0.0
endloop
endfacet
facet normal 0.0 0.0 -1.0
outer loop
vertex 3.29217825370407 12.2865765103969 0.0
vertex 1.19558055559812 24.8425988337886 0.0
vertex 6.47047612756302 24.1481456572267 0.0
endloop
endfacet
facet normal 0.0 0.0 -1.0
outer loop
vertex 3.29217825370407 12.2865765103969 0.0
vertex 6.47047612756302 24.1481456572267 0.0
vertex 6.36 11.0158431361381 0.0
endloop
endfacet
facet normal 0.0 0.0 -1.0
outer loop
vertex 6.36 11.0158431361381 0.0
vertex 6.47047612756302 24.1481456572267 0.0
vertex 8.99439825669288 8.99439825669288 0.0
endloop
endfacet
facet normal 0.0 0.0 -1.0
outer loop
vertex 8.99439825669288 8.99439825669288 0.0
vertex 6.47047612756302 24.1481456572267 0.0
vertex 12.5 21.650635094611 0.0
endloop
endfacet
facet normal 0.0 0.0 -1.0
outer loop
vertex 8.99439825669288 8.99439825669288 0.0
vertex 12.5 21.650635094611 0.0
vertex 11.0158431361381 6.36 0.0
endloop
endfacet
facet normal 0.0 0.0 -1.0
outer loop
vertex 11.0158431361381 6.36 0.0
vertex 12.5 21.650635094611 0.0
vertex 12.2865765103969 3.29217825370406 0.0
endloop
endfacet
facet normal 0.0 0.0 -1.0
outer loop
vertex 12.2865765103969 3.29217825370406 0.0
vertex 12.5 21.650635094611 0.0
vertex 12.72 0.0 0.0
endloop
endfacet
facet normal 0.0 0.0 -1.0
outer loop
vertex 12.72 0.0 0.0
vertex 12.5 21.650635094611 0.0
vertex 17.6776695296637 17.6776695296637 0.0
endloop
endfacet
facet normal 0.0 0.0 -1.0
outer loop
vertex 12.72 0.0 0.0
vertex 17.6776695296637 17.6776695296637 0.0
vertex 17.6776695296637 -17.6776695296637 0.0
endloop
endfacet
facet normal 0.0 0.0 -1.0
outer loop
vertex 17.6776695296637 -17.6776695296637 0.0
vertex 17.6776695296637 17.6776695296637 0.0
vertex 21.650635094611 -12.5 0.0
endloop
endfacet
facet normal 0.0 0.0 -1.0
outer loop
vertex 21.650635094611 -12.5 0.0
vertex 17.6776695296637 17.6776695296637 0.0
vertex 21.650635094611 12.5 0.0
endloop
endfacet
facet normal 0.0 0.0 -1.0
outer loop
vertex 21.650635094611 -12.5 0.0
vertex 21.650635094611 12.5 0.0
vertex 24.1481456572267 -6.47047612756304 0.0
endloop
endfacet
facet normal 0.0 0.0 -1.0
outer loop
vertex 24.1481456572267 -6.47047612756304 0.0
vertex 21.650635094611 12.5 0.0
vertex 24.1481456572267 6.47047612756302 0.0
endloop
endfacet
facet normal 0.0 0.0 -1.0
outer loop
vertex 24.1481456572267 -6.47047612756304 0.0
vertex 24.1481456572267 6.47047612756302 0.0
vertex 25.0 0.0 0.0
endloop
endfacet
facet normal 0.0 0.0 -1.0
outer loop
vertex -24.1481456572267 6.47047612756303 0.0
vertex -24.1481456572267 -6.47047612756301 0.0
vertex -25.0 3.06161699786838e-15 0.0
endloop
endfacet
facet normal 0.0 0.0 -1.0
outer loop
vertex -24.1481456572267 -6.47047612756301 0.0
vertex -24.1481456572267 6.47047612756303 0.0
vertex -21.650635094611 -12.5 0.0
endloop
endfacet
facet normal 0.0 0.0 -1.0
outer loop
vertex -21.650635094611 -12.5 0.0
vertex -24.1481456572267 6.47047612756303 0.0
vertex -21.650635094611 12.5 0.0
endloop
endfacet
facet normal 0.0 0.0 -1.0
outer loop
vertex -21.650635094611 -12.5 0.0
vertex -21.650635094611 12.5 0.0
vertex -17.6776695296637 -17.6776695296637 0.0
endloop
endfacet
facet normal 0.0 0.0 -1.0
outer loop
vertex -17.6776695296637 -17.6776695296637 0.0
vertex -21.650635094611 12.5 0.0
vertex -17.6776695296637 17.6776695296637 0.0
endloop
endfacet
facet normal 0.0 0.0 -1.0
outer loop
vertex -17.6776695296637 -17.6776695296637 0.0
vertex -17.6776695296637 17.6776695296637 0.0
vertex -12.5 -21.650635094611 0.0
endloop
endfacet
facet normal 0.0 0.0 -1.0
outer loop
vertex -12.5 -21.650635094611 0.0
vertex -17.6776695296637 17.6776695296637 0.0
vertex -12.72 1.55775072851543e-15 0.0
endloop
endfacet
facet normal 0.0 0.0 -1.0
outer loop
vertex -12.5 -21.650635094611 0.0
vertex -12.72 1.55775072851543e-15 0.0
vertex -12.2865765103969 -3.29217825370406 0.0
endloop
endfacet
facet normal 0.0 0.0 -1.0
outer loop
vertex -12.5 -21.650635094611 0.0
vertex -12.2865765103969 -3.29217825370406 0.0
vertex -6.47047612756304 -24.1481456572267 0.0
endloop
endfacet
facet normal 0.0 0.0 -1.0
outer loop
vertex -6.47047612756304 -24.1481456572267 0.0
vertex -12.2865765103969 -3.29217825370406 0.0
vertex -11.0158431361381 -6.36 0.0
endloop
endfacet
facet normal 0.0 0.0 -1.0
outer loop
vertex -6.47047612756304 -24.1481456572267 0.0
vertex -11.0158431361381 -6.36 0.0
vertex -8.99439825669289 -8.99439825669288 0.0
endloop
endfacet
facet normal 0.0 0.0 -1.0
outer loop
vertex -6.47047612756304 -24.1481456572267 0.0
vertex -8.99439825669289 -8.99439825669288 0.0
vertex -6.36000000000001 -11.0158431361381 0.0
endloop
endfacet
facet normal 0.0 0.0 -1.0
outer loop
vertex -6.47047612756304 -24.1481456572267 0.0
vertex -6.36000000000001 -11.0158431361381 0.0
vertex -4.59242549680257e-15 -25.0 0.0
endloop
endfacet
facet normal 0.0 0.0 -1.0
outer loop
vertex -4.59242549680257e-15 -25.0 0.0
vertex -6.36000000000001 -11.0158431361381 0.0
vertex -3.29217825370407 -12.2865765103969 0.0
endloop
endfacet
facet normal 0.0 0.0 -1.0
outer loop
vertex -4.59242549680257e-15 -25.0 0.0
vertex -3.29217825370407 -12.2865765103969 0.0
vertex -2.33662609277315e-15 -12.72 0.0
endloop
endfacet
facet normal 0.0 0.0 -1.0
outer loop
vertex -4.59242549680257e-15 -25.0 0.0
vertex -2.33662609277315e-15 -12.72 0.0
vertex 6.47047612756301 -24.1481456572267 0.0
endloop
endfacet
facet normal 0.0 0.0 -1.0
outer loop
vertex 6.47047612756301 -24.1481456572267 0.0
vertex -2.33662609277315e-15 -12.72 0.0
vertex 3.29217825370406 -12.2865765103969 0.0
endloop
endfacet
facet normal 0.0 0.0 -1.0
outer loop
vertex 6.47047612756301 -24.1481456572267 0.0
vertex 3.29217825370406 -12.2865765103969 0.0
vertex 6.35999999999999 -11.0158431361381 0.0
endloop
endfacet
facet normal 0.0 0.0 -1.0
outer loop
vertex 6.47047612756301 -24.1481456572267 0.0
vertex 6.35999999999999 -11.0158431361381 0.0
vertex 8.99439825669288 -8.99439825669289 0.0
endloop
endfacet
facet normal 0.0 0.0 -1.0
outer loop
vertex 6.47047612756301 -24.1481456572267 0.0
vertex 8.99439825669288 -8.99439825669289 0.0
vertex 12.5 -21.650635094611 0.0
endloop
endfacet
facet normal 0.0 0.0 -1.0
outer loop
vertex 12.5 -21.650635094611 0.0
vertex 8.99439825669288 -8.99439825669289 0.0
vertex 11.0158431361381 -6.36000000000001 0.0
endloop
endfacet
facet normal 0.0 0.0 -1.0
outer loop
vertex 12.5 -21.650635094611 0.0
vertex 11.0158431361381 -6.36000000000001 0.0
vertex 12.2865765103969 -3.29217825370407 0.0
endloop
endfacet
facet normal 0.0 0.0 -1.0
outer loop
vertex 12.5 -21.650635094611 0.0
vertex 12.2865765103969 -3.29217825370407 0.0
vertex 12.72 0.0 0.0
endloop
endfacet
facet normal 0.0 0.0 -1.0
outer loop
vertex 12.5 -21.650635094611 0.0
vertex 12.72 0.0 0.0
vertex 17.6776695296637 -17.6776695296637 0.0
endloop
endfacet
facet normal -0.0 -0.0 1.0
outer loop
vertex -24.1481456572267 -6.47047612756301 8.0
vertex -24.1481456572267 6.47047612756303 8.0
vertex -25.0 3.06161699786838e-15 8.0
endloop
endfacet
facet normal -0.0 -0.0 1.0
outer loop
vertex -24.1481456572267 6.47047612756303 8.0
vertex -24.1481456572267 -6.47047612756301 8.0
vertex -21.650635094611 -12.5 8.0
endloop
endfacet
facet normal -0.0 -0.0 1.0
outer loop
vertex -24.1481456572267 6.47047612756303 8.0
vertex -21.650635094611 -12.5 8.0
vertex -21.650635094611 12.5 8.0
endloop
endfacet
facet normal -0.0 -0.0 1.0
outer loop
vertex -21.650635094611 12.5 8.0
vertex -21.650635094611 -12.5 8.0
vertex -17.6776695296637 -17.6776695296637 8.0
endloop
endfacet
facet normal -0.0 -0.0 1.0
outer loop
vertex -21.650635094611 12.5 8.0
vertex -17.6776695296637 -17.6776695296637 8.0
vertex -17.6776695296637 17.6776695296637 8.0
endloop
endfacet
facet normal -0.0 -0.0 1.0
outer loop
vertex -17.6776695296637 17.6776695296637 8.0
vertex -17.6776695296637 -17.6776695296637 8.0
vertex -12.5 -21.650635094611 8.0
endloop
endfacet
facet normal -0.0 -0.0 1.0
outer loop
vertex -17.6776695296637 17.6776695296637 8.0
vertex -12.5 -21.650635094611 8.0
vertex -12.72 1.55775072851543e-15 8.0
endloop
endfacet
facet normal -0.0 -0.0 1.0
outer loop
vertex -12.72 1.55775072851543e-15 8.0
vertex -12.5 -21.650635094611 8.0
vertex -12.2865765103969 -3.29217825370406 8.0
endloop
endfacet
facet normal -0.0 -0.0 1.0
outer loop
vertex -12.2865765103969 -3.29217825370406 8.0
vertex -12.5 -21.650635094611 8.0
vertex -6.47047612756304 -24.1481456572267 8.0
endloop
endfacet
facet normal -0.0 -0.0 1.0
outer loop
vertex -12.2865765103969 -3.29217825370406 8.0
vertex -6.47047612756304 -24.1481456572267 8.0
vertex -11.0158431361381 -6.36 8.0
endloop
endfacet
facet normal -0.0 -0.0 1.0
outer loop
vertex -11.0158431361381 -6.36 8.0
vertex -6.47047612756304 -24.1481456572267 8.0
vertex -8.99439825669289 -8.99439825669288 8.0
endloop
endfacet
facet normal -0.0 -0.0 1.0
outer loop
vertex -8.99439825669289 -8.99439825669288 8.0
vertex -6.47047612756304 -24.1481456572267 8.0
vertex -6.36000000000001 -11.0158431361381 8.0
endloop
endfacet
facet normal -0.0 -0.0 1.0
outer loop
vertex -6.36000000000001 -11.0158431361381 8.0
vertex -6.47047612756304 -24.1481456572267 8.0
vertex -4.59242549680257e-15 -25.0 8.0
endloop
endfacet
facet normal -0.0 -0.0 1.0
outer loop
vertex -6.36000000000001 -11.0158431361381 8.0
vertex -4.59242549680257e-15 -25.0 8.0
vertex -3.29217825370407 -12.2865765103969 8.0
endloop
endfacet
facet normal -0.0 -0.0 1.0
outer loop
vertex -3.29217825370407 -12.2865765103969 8.0
vertex -4.59242549680257e-15 -25.0 8.0
vertex -2.33662609277315e-15 -12.72 8.0
endloop
endfacet
facet normal -0.0 -0.0 1.0
outer loop
vertex -2.33662609277315e-15 -12.72 8.0
vertex -4.59242549680257e-15 -25.0 8.0
vertex 6.47047612756301 -24.1481456572267 8.0
endloop
endfacet
facet normal -0.0 -0.0 1.0
outer loop
vertex -2.33662609277315e-15 -12.72 8.0
vertex 6.47047612756301 -24.1481456572267 8.0
vertex 3.29217825370406 -12.2865765103969 8.0
endloop
endfacet
facet normal -0.0 -0.0 1.0
outer loop
vertex 3.29217825370406 -12.2865765103969 8.0
vertex 6.47047612756301 -24.1481456572267 8.0
vertex 6.35999999999999 -11.0158431361381 8.0
endloop
endfacet
facet normal -0.0 -0.0 1.0
outer loop
vertex 6.35999999999999 -11.0158431361381 8.0
vertex 6.47047612756301 -24.1481456572267 8.0
vertex 8.99439825669288 -8.99439825669289 8.0
endloop
endfacet
facet normal -0.0 -0.0 1.0
outer loop
vertex 8.99439825669288 -8.99439825669289 8.0
vertex 6.47047612756301 -24.1481456572267 8.0
vertex 12.5 -21.650635094611 8.0
endloop
endfacet
facet normal -0.0 -0.0 1.0
outer loop
vertex 8.99439825669288 -8.99439825669289 8.0
vertex 12.5 -21.650635094611 8.0
vertex 11.0158431361381 -6.36000000000001 8.0
endloop
endfacet
facet normal -0.0 -0.0 1.0
outer loop
vertex 11.0158431361381 -6.36000000000001 8.0
vertex 12.5 -21.650635094611 8.0
vertex 12.2865765103969 -3.29217825370407 8.0
endloop
endfacet
facet normal -0.0 -0.0 1.0
outer loop
vertex 12.2865765103969 -3.29217825370407 8.0
vertex 12.5 -21.650635094611 8.0
vertex 12.72 0.0 8.0
endloop
endfacet
facet normal -0.0 -0.0 1.0
outer loop
vertex 12.72 0.0 8.0
vertex 12.5 -21.650635094611 8.0
vertex 17.6776695296637 -17.6776695296637 8.0
endloop
endfacet
facet normal -0.0 -0.0 1.0
outer loop
vertex 3.29217825370407 12.2865765103969 8.0
vertex 1.19558055559812 24.8425988337886 8.0
vertex 1.19558055559812 12.5625988337886 8.0
endloop
endfacet
facet normal -0.0 -0.0 1.0
outer loop
vertex 1.19558055559812 24.8425988337886 8.0
vertex 3.29217825370407 12.2865765103969 8.0
vertex 6.47047612756302 24.1481456572267 8.0
endloop
endfacet
facet normal -0.0 -0.0 1.0
outer loop
vertex 6.47047612756302 24.1481456572267 8.0
vertex 3.29217825370407 12.2865765103969 8.0
vertex 6.36 11.0158431361381 8.0
endloop
endfacet
facet normal -0.0 -0.0 1.0
outer loop
vertex 6.47047612756302 24.1481456572267 8.0
vertex 6.36 11.0158431361381 8.0
vertex 8.99439825669288 8.99439825669288 8.0
endloop
endfacet
facet normal -0.0 -0.0 1.0
outer loop
vertex 6.47047612756302 24.1481456572267 8.0
vertex 8.99439825669288 8.99439825669288 8.0
vertex 12.5 21.650635094611 8.0
endloop
endfacet
facet normal -0.0 -0.0 1.0
outer loop
vertex 12.5 21.650635094611 8.0
vertex 8.99439825669288 8.99439825669288 8.0
vertex 11.0158431361381 6.36 8.0
endloop
endfacet
facet normal -0.0 -0.0 1.0
outer loop
vertex 12.5 21.650635094611 8.0
vertex 11.0158431361381 6.36 8.0
vertex 12.2865765103969 3.29217825370406 8.0
endloop
endfacet
facet normal -0.0 -0.0 1.0
outer loop
vertex 12.5 21.650635094611 8.0
vertex 12.2865765103969 3.29217825370406 8.0
vertex 12.72 0.0 8.0
endloop
endfacet
facet normal -0.0 -0.0 1.0
outer loop
vertex 12.5 21.650635094611 8.0
vertex 12.72 0.0 8.0
vertex 17.6776695296637 17.6776695296637 8.0
endloop
endfacet
facet normal -0.0 -0.0 1.0
outer loop
vertex 17.6776695296637 17.6776695296637 8.0
vertex 12.72 0.0 8.0
vertex 17.6776695296637 -17.6776695296637 8.0
endloop
endfacet
facet normal -0.0 -0.0 1.0
outer loop
vertex 17.6776695296637 17.6776695296637 8.0
vertex 17.6776695296637 -17.6776695296637 8.0
vertex 21.650635094611 -12.5 8.0
endloop
endfacet
facet normal -0.0 -0.0 1.0
outer loop
vertex 17.6776695296637 17.6776695296637 8.0
vertex 21.650635094611 -12.5 8.0
vertex 21.650635094611 12.5 8.0
endloop
endfacet
facet normal -0.0 -0.0 1.0
outer loop
vertex 21.650635094611 12.5 8.0
vertex 21.650635094611 -12.5 8.0
vertex 24.1481456572267 -6.47047612756304 8.0
endloop
endfacet
facet normal -0.0 -0.0 1.0
outer loop
vertex 21.650635094611 12.5 8.0
vertex 24.1481456572267 -6.47047612756304 8.0
vertex 24.1481456572267 6.47047612756302 8.0
endloop
endfacet
facet normal -0.0 -0.0 1.0
outer loop
vertex 24.1481456572267 6.47047612756302 8.0
vertex 24.1481456572267 -6.47047612756304 8.0
vertex 25.0 0.0 8.0
endloop
endfacet
facet normal -0.0 -0.0 1.0
outer loop
vertex -12.72 1.55775072851543e-15 8.0
vertex -12.5 21.650635094611 8.0
vertex -17.6776695296637 17.6776695296637 8.0
endloop
endfacet
facet normal -0.0 -0.0 1.0
outer loop
vertex -12.5 21.650635094611 8.0
vertex -12.72 1.55775072851543e-15 8.0
vertex -12.2865765103969 3.29217825370407 8.0
endloop
endfacet
facet normal -0.0 -0.0 1.0
outer loop
vertex -12.5 21.650635094611 8.0
vertex -12.2865765103969 3.29217825370407 8.0
vertex -6.47047612756302 24.1481456572267 8.0
endloop
endfacet
facet normal -0.0 -0.0 1.0
outer loop
vertex -6.47047612756302 24.1481456572267 8.0
vertex -12.2865765103969 3.29217825370407 8.0
vertex -11.0158431361381 6.36 8.0
endloop
endfacet
facet normal -0.0 -0.0 1.0
outer loop
vertex -6.47047612756302 24.1481456572267 8.0
vertex -11.0158431361381 6.36 8.0
vertex -8.99439825669288 8.99439825669288 8.0
endloop
endfacet
facet normal -0.0 -0.0 1.0
outer loop
vertex -6.47047612756302 24.1481456572267 8.0
vertex -8.99439825669288 8.99439825669288 8.0
vertex -6.36 11.0158431361381 8.0
endloop
endfacet
facet normal -0.0 -0.0 1.0
outer loop
vertex -6.47047612756302 24.1481456572267 8.0
vertex -6.36 11.0158431361381 8.0
vertex -1.10441944440188 24.8546004217604 8.0
endloop
endfacet
facet normal -0.0 -0.0 1.0
outer loop
vertex -1.10441944440188 24.8546004217604 8.0
vertex -6.36 11.0158431361381 8.0
vertex -3.29217825370406 12.2865765103969 8.0
endloop
endfacet
facet normal -0.0 -0.0 1.0
outer loop
vertex -1.10441944440188 24.8546004217604 8.0
vertex -3.29217825370406 12.2865765103969 8.0
vertex -1.10441944440188 12.5746004217604 8.0
endloop
endfacet
facet normal -0.130526192220051 0.99144486137381 0.0
outer loop
vertex -6.47047612756302 24.1481456572267 8.0
vertex -1.10441944440188 24.8546004217604 0.0
vertex -6.47047612756302 24.1481456572267 0.0
endloop
endfacet
facet normal -0.130526192220051 0.99144486137381 0.0
outer loop
vertex -1.10441944440188 24.8546004217604 0.0
vertex -6.47047612756302 24.1481456572267 8.0
vertex -1.10441944440188 24.8546004217604 8.0
endloop
endfacet
facet normal 1.0 0.0 0.0
outer loop
vertex -1.10441944440188 12.5746004217604 0.0
vertex -1.10441944440187 16.6127741923107 2.22403254405489
vertex -1.10441944440188 12.5746004217604 8.0
endloop
endfacet
facet normal 1.0 0.0 0.0
outer loop
vertex -1.10441944440187 16.6127741923107 2.22403254405489
vertex -1.10441944440188 12.5746004217604 0.0
vertex -1.10441944440187 17.221927499543 1.61487923682259
endloop
endfacet
facet normal 1.0 0.0 0.0
outer loop
vertex -1.10441944440187 17.221927499543 1.61487923682259
vertex -1.10441944440188 12.5746004217604 0.0
vertex -1.10441944440187 17.9679848884669 1.18414280249642
endloop
endfacet
facet normal 1.0 0.0 0.0
outer loop
vertex -1.10441944440187 17.9679848884669 1.18414280249642
vertex -1.10441944440188 12.5746004217604 0.0
vertex -1.10441944440187 18.8001037809456 0.961177217250091
endloop
endfacet
facet normal 1.0 0.0 0.0
outer loop
vertex -1.10441944440187 18.8001037809456 0.961177217250091
vertex -1.10441944440188 12.5746004217604 0.0
vertex -1.10441944440188 24.8546004217604 0.0
endloop
endfacet
facet normal 1.0 0.0 0.0
outer loop
vertex -1.10441944440188 12.5746004217604 8.0
vertex -1.10441944440187 16.6127741923107 2.22403254405489
vertex -1.10441944440187 16.1820377579845 2.97008993297887
endloop
endfacet
facet normal 1.0 0.0 0.0
outer loop
vertex -1.10441944440188 12.5746004217604 8.0
vertex -1.10441944440187 16.1820377579845 2.97008993297887
vertex -1.10441944440187 15.9590721727382 3.8022088254575
endloop
endfacet
facet normal 1.0 0.0 0.0
outer loop
vertex -1.10441944440187 18.8001037809456 0.961177217250091
vertex -1.10441944440188 24.8546004217604 0.0
vertex -1.10441944440187 19.6615766495979 0.961177217250089
endloop
endfacet
facet normal 1.0 0.0 0.0
outer loop
vertex -1.10441944440187 19.6615766495979 0.961177217250089
vertex -1.10441944440188 24.8546004217604 0.0
vertex -1.10441944440187 20.4936955420765 1.18414280249642
endloop
endfacet
facet normal 1.0 0.0 0.0
outer loop
vertex -1.10441944440187 20.4936955420765 1.18414280249642
vertex -1.10441944440188 24.8546004217604 0.0
vertex -1.10441944440187 21.2397529310005 1.61487923682259
endloop
endfacet
facet normal 1.0 0.0 0.0
outer loop
vertex -1.10441944440187 21.2397529310005 1.61487923682259
vertex -1.10441944440188 24.8546004217604 0.0
vertex -1.10441944440187 21.8489062382328 2.22403254405488
endloop
endfacet
facet normal 1.0 0.0 0.0
outer loop
vertex -1.10441944440187 21.8489062382328 2.22403254405488
vertex -1.10441944440188 24.8546004217604 0.0
vertex -1.10441944440187 22.279642672559 2.97008993297886
endloop
endfacet
facet normal 1.0 0.0 0.0
outer loop
vertex -1.10441944440187 22.279642672559 2.97008993297886
vertex -1.10441944440188 24.8546004217604 0.0
vertex -1.10441944440187 22.5026082578053 3.80220882545749
endloop
endfacet
facet normal 1.0 0.0 0.0
outer loop
vertex -1.10441944440187 22.5026082578053 3.80220882545749
vertex -1.10441944440188 24.8546004217604 0.0
vertex -1.10441944440187 22.5026082578053 4.66368169410983
endloop
endfacet
facet normal 1.0 0.0 0.0
outer loop
vertex -1.10441944440188 12.5746004217604 8.0
vertex -1.10441944440187 18.8001037809456 7.50471330231723
vertex -1.10441944440188 24.8546004217604 8.0
endloop
endfacet
facet normal 1.0 0.0 0.0
outer loop
vertex -1.10441944440187 18.8001037809456 7.50471330231723
vertex -1.10441944440188 12.5746004217604 8.0
vertex -1.10441944440187 17.9679848884669 7.28174771707091
endloop
endfacet
facet normal 1.0 0.0 0.0
outer loop
vertex -1.10441944440187 17.9679848884669 7.28174771707091
vertex -1.10441944440188 12.5746004217604 8.0
vertex -1.10441944440187 17.221927499543 6.85101128274474
endloop
endfacet
facet normal 1.0 0.0 0.0
outer loop
vertex -1.10441944440187 17.221927499543 6.85101128274474
vertex -1.10441944440188 12.5746004217604 8.0
vertex -1.10441944440187 16.6127741923107 6.24185797551244
endloop
endfacet
facet normal 1.0 0.0 0.0
outer loop
vertex -1.10441944440187 16.6127741923107 6.24185797551244
vertex -1.10441944440188 12.5746004217604 8.0
vertex -1.10441944440187 16.1820377579845 5.49580058658846
endloop
endfacet
facet normal 1.0 0.0 0.0
outer loop
vertex -1.10441944440187 16.1820377579845 5.49580058658846
vertex -1.10441944440188 12.5746004217604 8.0
vertex -1.10441944440187 15.9590721727382 4.66368169410984
endloop
endfacet
facet normal 1.0 0.0 0.0
outer loop
vertex -1.10441944440187 15.9590721727382 4.66368169410984
vertex -1.10441944440188 12.5746004217604 8.0
vertex -1.10441944440187 15.9590721727382 3.8022088254575
endloop
endfacet
facet normal 1.0 0.0 0.0
outer loop
vertex -1.10441944440188 24.8546004217604 8.0
vertex -1.10441944440187 18.8001037809456 7.50471330231723
vertex -1.10441944440187 19.6615766495979 7.50471330231723
endloop
endfacet
facet normal 1.0 0.0 0.0
outer loop
vertex -1.10441944440188 24.8546004217604 8.0
vertex -1.10441944440187 19.6615766495979 7.50471330231723
vertex -1.10441944440187 20.4936955420765 7.28174771707091
endloop
endfacet
facet normal 1.0 0.0 0.0
outer loop
vertex -1.10441944440188 24.8546004217604 8.0
vertex -1.10441944440187 20.4936955420765 7.28174771707091
vertex -1.10441944440187 21.2397529310005 6.85101128274474
endloop
endfacet
facet normal 1.0 0.0 0.0
outer loop
vertex -1.10441944440188 24.8546004217604 8.0
vertex -1.10441944440187 21.2397529310005 6.85101128274474
vertex -1.10441944440187 21.8489062382328 6.24185797551244
endloop
endfacet
facet normal 1.0 0.0 0.0
outer loop
vertex -1.10441944440188 24.8546004217604 8.0
vertex -1.10441944440187 21.8489062382328 6.24185797551244
vertex -1.10441944440187 22.279642672559 5.49580058658845
endloop
endfacet
facet normal 1.0 0.0 0.0
outer loop
vertex -1.10441944440188 24.8546004217604 8.0
vertex -1.10441944440187 22.279642672559 5.49580058658845
vertex -1.10441944440187 22.5026082578053 4.66368169410983
endloop
endfacet
facet normal 1.0 0.0 0.0
outer loop
vertex -1.10441944440188 24.8546004217604 8.0
vertex -1.10441944440187 22.5026082578053 4.66368169410983
vertex -1.10441944440188 24.8546004217604 0.0
endloop
endfacet
facet normal 0.130526192220052 -0.99144486137381 0.0
outer loop
vertex -1.10441944440188 12.5746004217604 8.0
vertex -3.29217825370406 12.2865765103969 0.0
vertex -1.10441944440188 12.5746004217604 0.0
endloop
endfacet
facet normal 0.130526192220052 -0.99144486137381 0.0
outer loop
vertex -3.29217825370406 12.2865765103969 0.0
vertex -1.10441944440188 12.5746004217604 8.0
vertex -3.29217825370406 12.2865765103969 8.0
endloop
endfacet
facet normal 0.38268343236509 -0.923879532511287 0.0
outer loop
vertex -3.29217825370406 12.2865765103969 8.0
vertex -6.36 11.0158431361381 0.0
vertex -3.29217825370406 12.2865765103969 0.0
endloop
endfacet
facet normal 0.38268343236509 -0.923879532511287 0.0
outer loop
vertex -6.36 11.0158431361381 0.0
vertex -3.29217825370406 12.2865765103969 8.0
vertex -6.36 11.0158431361381 8.0
endloop
endfacet
facet normal 0.608761429008721 -0.793353340291235 0.0
outer loop
vertex -6.36 11.0158431361381 8.0
vertex -8.99439825669288 8.99439825669288 0.0
vertex -6.36 11.0158431361381 0.0
endloop
endfacet
facet normal 0.608761429008721 -0.793353340291235 0.0
outer loop
vertex -8.99439825669288 8.99439825669288 0.0
vertex -6.36 11.0158431361381 8.0
vertex -8.99439825669288 8.99439825669288 8.0
endloop
endfacet
facet normal 0.793353340291235 -0.608761429008721 0.0
outer loop
vertex -8.99439825669288 8.99439825669288 0.0
vertex -11.0158431361381 6.36 8.0
vertex -11.0158431361381 6.36 0.0
endloop
endfacet
facet normal 0.793353340291235 -0.608761429008721 0.0
outer loop
vertex -11.0158431361381 6.36 8.0
vertex -8.99439825669288 8.99439825669288 0.0
vertex -8.99439825669288 8.99439825669288 8.0
endloop
endfacet
facet normal 0.923879532511287 -0.38268343236509 0.0
outer loop
vertex -11.0158431361381 6.36 0.0
vertex -12.2865765103969 3.29217825370407 8.0
vertex -12.2865765103969 3.29217825370407 0.0
endloop
endfacet
facet normal 0.923879532511287 -0.38268343236509 0.0
outer loop
vertex -12.2865765103969 3.29217825370407 8.0
vertex -11.0158431361381 6.36 0.0
vertex -11.0158431361381 6.36 8.0
endloop
endfacet
facet normal 0.99144486137381 -0.130526192220052 0.0
outer loop
vertex -12.2865765103969 3.29217825370407 0.0
vertex -12.72 1.55775072851543e-15 8.0
vertex -12.72 1.55775072851543e-15 0.0
endloop
endfacet
facet normal 0.99144486137381 -0.130526192220052 0.0
outer loop
vertex -12.72 1.55775072851543e-15 8.0
vertex -12.2865765103969 3.29217825370407 0.0
vertex -12.2865765103969 3.29217825370407 8.0
endloop
endfacet
facet normal 0.991444861373811 0.130526192220051 0.0
outer loop
vertex -12.72 1.55775072851543e-15 0.0
vertex -12.2865765103969 -3.29217825370406 8.0
vertex -12.2865765103969 -3.29217825370406 0.0
endloop
endfacet
facet normal 0.991444861373811 0.130526192220051 0.0
outer loop
vertex -12.2865765103969 -3.29217825370406 8.0
vertex -12.72 1.55775072851543e-15 0.0
vertex -12.72 1.55775072851543e-15 8.0
endloop
endfacet
facet normal 0.923879532511287 0.382683432365089 0.0
outer loop
vertex -12.2865765103969 -3.29217825370406 0.0
vertex -11.0158431361381 -6.36 8.0
vertex -11.0158431361381 -6.36 0.0
endloop
endfacet
facet normal 0.923879532511287 0.382683432365089 0.0
outer loop
vertex -11.0158431361381 -6.36 8.0
vertex -12.2865765103969 -3.29217825370406 0.0
vertex -12.2865765103969 -3.29217825370406 8.0
endloop
endfacet
facet normal 0.793353340291235 0.608761429008721 0.0
outer loop
vertex -11.0158431361381 -6.36 0.0
vertex -8.99439825669289 -8.99439825669288 8.0
vertex -8.99439825669289 -8.99439825669288 0.0
endloop
endfacet
facet normal 0.793353340291235 0.608761429008721 0.0
outer loop
vertex -8.99439825669289 -8.99439825669288 8.0
vertex -11.0158431361381 -6.36 0.0
vertex -11.0158431361381 -6.36 8.0
endloop
endfacet
facet normal 0.608761429008721 0.793353340291235 0.0
outer loop
vertex -8.99439825669289 -8.99439825669288 8.0
vertex -6.36000000000001 -11.0158431361381 0.0
vertex -8.99439825669289 -8.99439825669288 0.0
endloop
endfacet
facet normal 0.608761429008721 0.793353340291235 0.0
outer loop
vertex -6.36000000000001 -11.0158431361381 0.0
vertex -8.99439825669289 -8.99439825669288 8.0
vertex -6.36000000000001 -11.0158431361381 8.0
endloop
endfacet
facet normal 0.38268343236509 0.923879532511287 0.0
outer loop
vertex -6.36000000000001 -11.0158431361381 8.0
vertex -3.29217825370407 -12.2865765103969 0.0
vertex -6.36000000000001 -11.0158431361381 0.0
endloop
endfacet
facet normal 0.38268343236509 0.923879532511287 0.0
outer loop
vertex -3.29217825370407 -12.2865765103969 0.0
vertex -6.36000000000001 -11.0158431361381 8.0
vertex -3.29217825370407 -12.2865765103969 8.0
endloop
endfacet
facet normal 0.130526192220052 0.99144486137381 0.0
outer loop
vertex -3.29217825370407 -12.2865765103969 8.0
vertex -2.33662609277315e-15 -12.72 0.0
vertex -3.29217825370407 -12.2865765103969 0.0
endloop
endfacet
facet normal 0.130526192220052 0.99144486137381 0.0
outer loop
vertex -2.33662609277315e-15 -12.72 0.0
vertex -3.29217825370407 -12.2865765103969 8.0
vertex -2.33662609277315e-15 -12.72 8.0
endloop
endfacet
facet normal -0.130526192220051 0.991444861373811 0.0
outer loop
vertex -2.33662609277315e-15 -12.72 8.0
vertex 3.29217825370406 -12.2865765103969 0.0
vertex -2.33662609277315e-15 -12.72 0.0
endloop
endfacet
facet normal -0.130526192220051 0.991444861373811 0.0
outer loop
vertex 3.29217825370406 -12.2865765103969 0.0
vertex -2.33662609277315e-15 -12.72 8.0
vertex 3.29217825370406 -12.2865765103969 8.0
endloop
endfacet
facet normal -0.382683432365089 0.923879532511287 0.0
outer loop
vertex 3.29217825370406 -12.2865765103969 8.0
vertex 6.35999999999999 -11.0158431361381 0.0
vertex 3.29217825370406 -12.2865765103969 0.0
endloop
endfacet
facet normal -0.382683432365089 0.923879532511287 0.0
outer loop
vertex 6.35999999999999 -11.0158431361381 0.0
vertex 3.29217825370406 -12.2865765103969 8.0
vertex 6.35999999999999 -11.0158431361381 8.0
endloop
endfacet
facet normal -0.60876142900872 0.793353340291236 0.0
outer loop
vertex 6.35999999999999 -11.0158431361381 8.0
vertex 8.99439825669288 -8.99439825669289 0.0
vertex 6.35999999999999 -11.0158431361381 0.0
endloop
endfacet
facet normal -0.60876142900872 0.793353340291236 0.0
outer loop
vertex 8.99439825669288 -8.99439825669289 0.0
vertex 6.35999999999999 -11.0158431361381 8.0
vertex 8.99439825669288 -8.99439825669289 8.0
endloop
endfacet
facet normal -0.793353340291235 0.608761429008721 0.0
outer loop
vertex 11.0158431361381 -6.36000000000001 8.0
vertex 8.99439825669288 -8.99439825669289 0.0
vertex 8.99439825669288 -8.99439825669289 8.0
endloop
endfacet
facet normal -0.793353340291235 0.608761429008721 0.0
outer loop
vertex 8.99439825669288 -8.99439825669289 0.0
vertex 11.0158431361381 -6.36000000000001 8.0
vertex 11.0158431361381 -6.36000000000001 0.0
endloop
endfacet
facet normal -0.923879532511287 0.382683432365091 0.0
outer loop
vertex 12.2865765103969 -3.29217825370407 8.0
vertex 11.0158431361381 -6.36000000000001 0.0
vertex 11.0158431361381 -6.36000000000001 8.0
endloop
endfacet
facet normal -0.923879532511287 0.382683432365091 0.0
outer loop
vertex 11.0158431361381 -6.36000000000001 0.0
vertex 12.2865765103969 -3.29217825370407 8.0
vertex 12.2865765103969 -3.29217825370407 0.0
endloop
endfacet
facet normal -0.99144486137381 0.130526192220052 0.0
outer loop
vertex 12.72 0.0 8.0
vertex 12.2865765103969 -3.29217825370407 0.0
vertex 12.2865765103969 -3.29217825370407 8.0
endloop
endfacet
facet normal -0.99144486137381 0.130526192220052 0.0
outer loop
vertex 12.2865765103969 -3.29217825370407 0.0
vertex 12.72 0.0 8.0
vertex 12.72 0.0 0.0
endloop
endfacet
facet normal -0.99144486137381 -0.130526192220052 -0.0
outer loop
vertex 12.2865765103969 3.29217825370406 8.0
vertex 12.72 0.0 0.0
vertex 12.72 0.0 8.0
endloop
endfacet
facet normal -0.99144486137381 -0.130526192220052 -0.0
outer loop
vertex 12.72 0.0 0.0
vertex 12.2865765103969 3.29217825370406 8.0
vertex 12.2865765103969 3.29217825370406 0.0
endloop
endfacet
facet normal -0.923879532511287 -0.38268343236509 -0.0
outer loop
vertex 11.0158431361381 6.36 8.0
vertex 12.2865765103969 3.29217825370406 0.0
vertex 12.2865765103969 3.29217825370406 8.0
endloop
endfacet
facet normal -0.923879532511287 -0.38268343236509 -0.0
outer loop
vertex 12.2865765103969 3.29217825370406 0.0
vertex 11.0158431361381 6.36 8.0
vertex 11.0158431361381 6.36 0.0
endloop
endfacet
facet normal -0.793353340291235 -0.608761429008721 -0.0
outer loop
vertex 8.99439825669288 8.99439825669288 8.0
vertex 11.0158431361381 6.36 0.0
vertex 11.0158431361381 6.36 8.0
endloop
endfacet
facet normal -0.793353340291235 -0.608761429008721 -0.0
outer loop
vertex 11.0158431361381 6.36 0.0
vertex 8.99439825669288 8.99439825669288 8.0
vertex 8.99439825669288 8.99439825669288 0.0
endloop
endfacet
facet normal -0.608761429008721 -0.793353340291235 -0.0
outer loop
vertex 8.99439825669288 8.99439825669288 8.0
vertex 6.36 11.0158431361381 0.0
vertex 8.99439825669288 8.99439825669288 0.0
endloop
endfacet
facet normal -0.608761429008721 -0.793353340291235 -0.0
outer loop
vertex 6.36 11.0158431361381 0.0
vertex 8.99439825669288 8.99439825669288 8.0
vertex 6.36 11.0158431361381 8.0
endloop
endfacet
facet normal -0.38268343236509 -0.923879532511287 -0.0
outer loop
vertex 6.36 11.0158431361381 8.0
vertex 3.29217825370407 12.2865765103969 0.0
vertex 6.36 11.0158431361381 0.0
endloop
endfacet
facet normal -0.38268343236509 -0.923879532511287 -0.0
outer loop
vertex 3.29217825370407 12.2865765103969 0.0
vertex 6.36 11.0158431361381 8.0
vertex 3.29217825370407 12.2865765103969 8.0
endloop
endfacet
facet normal -0.130526192220052 -0.99144486137381 -0.0
outer loop
vertex 3.29217825370407 12.2865765103969 8.0
vertex 1.19558055559812 12.5625988337886 0.0
vertex 3.29217825370407 12.2865765103969 0.0
endloop
endfacet
facet normal -0.130526192220052 -0.99144486137381 -0.0
outer loop
vertex 1.19558055559812 12.5625988337886 0.0
vertex 3.29217825370407 12.2865765103969 8.0
vertex 1.19558055559812 12.5625988337886 8.0
endloop
endfacet
facet normal -1.0 2.87048705471081e-17 0.0
outer loop
vertex 1.19558055559812 12.5625988337886 8.0
vertex 1.19558055559812 16.8986855882285 5.68419488180556
vertex 1.19558055559812 12.5625988337886 0.0
endloop
endfacet
facet normal -1.0 2.87048705471081e-17 0.0
outer loop
vertex 1.19558055559812 16.8986855882285 5.68419488180556
vertex 1.19558055559812 12.5625988337886 8.0
vertex 1.19558055559812 17.3277658692428 6.24338319100923
endloop
endfacet
facet normal -1.0 2.87048705471081e-17 0.0
outer loop
vertex 1.19558055559812 17.3277658692428 6.24338319100923
vertex 1.19558055559812 12.5625988337886 8.0
vertex 1.19558055559813 17.8869541784464 6.67246347202354
endloop
endfacet
facet normal -1.0 2.87048705471081e-17 0.0
outer loop
vertex 1.19558055559813 17.8869541784464 6.67246347202354
vertex 1.19558055559812 12.5625988337886 8.0
vertex 1.19558055559813 18.5381427566696 6.94219461278604
endloop
endfacet
facet normal -1.0 2.87048705471081e-17 0.0
outer loop
vertex 1.19558055559813 18.5381427566696 6.94219461278604
vertex 1.19558055559812 12.5625988337886 8.0
vertex 1.19558055559812 24.8425988337886 8.0
endloop
endfacet
facet normal -1.0 2.87048705471081e-17 0.0
outer loop
vertex 1.19558055559812 12.5625988337886 0.0
vertex 1.19558055559812 16.8986855882285 5.68419488180556
vertex 1.19558055559812 16.628954447466 5.03300630358236
endloop
endfacet
facet normal -1.0 2.87048705471081e-17 0.0
outer loop
vertex 1.19558055559812 12.5625988337886 0.0
vertex 1.19558055559812 16.628954447466 5.03300630358236
vertex 1.19558055559812 16.5369541784465 4.33419488180555
endloop
endfacet
facet normal -1.0 2.87048705471081e-17 0.0
outer loop
vertex 1.19558055559813 18.5381427566696 6.94219461278604
vertex 1.19558055559812 24.8425988337886 8.0
vertex 1.19558055559813 19.2369541784464 7.03419488180556
endloop
endfacet
facet normal -1.0 2.87048705471081e-17 0.0
outer loop
vertex 1.19558055559813 19.2369541784464 7.03419488180556
vertex 1.19558055559812 24.8425988337886 8.0
vertex 1.19558055559813 19.9357656002233 6.94219461278604
endloop
endfacet
facet normal -1.0 2.87048705471081e-17 0.0
outer loop
vertex 1.19558055559813 19.9357656002233 6.94219461278604
vertex 1.19558055559812 24.8425988337886 8.0
vertex 1.19558055559813 20.5869541784465 6.67246347202354
endloop
endfacet
facet normal -1.0 2.87048705471081e-17 0.0
outer loop
vertex 1.19558055559813 20.5869541784465 6.67246347202354
vertex 1.19558055559812 24.8425988337886 8.0
vertex 1.19558055559813 21.1461424876501 6.24338319100923
endloop
endfacet
facet normal -1.0 2.87048705471081e-17 0.0
outer loop
vertex 1.19558055559813 21.1461424876501 6.24338319100923
vertex 1.19558055559812 24.8425988337886 8.0
vertex 1.19558055559813 21.5752227686644 5.68419488180556
endloop
endfacet
facet normal -1.0 2.87048705471081e-17 0.0
outer loop
vertex 1.19558055559813 21.5752227686644 5.68419488180556
vertex 1.19558055559812 24.8425988337886 8.0
vertex 1.19558055559813 21.8449539094269 5.03300630358236
endloop
endfacet
facet normal -1.0 2.87048705471081e-17 0.0
outer loop
vertex 1.19558055559813 21.8449539094269 5.03300630358236
vertex 1.19558055559812 24.8425988337886 8.0
vertex 1.19558055559813 21.9369541784464 4.33419488180555
endloop
endfacet
facet normal -1.0 2.87048705471081e-17 0.0
outer loop
vertex 1.19558055559812 12.5625988337886 0.0
vertex 1.19558055559813 18.5381427566696 1.72619515082507
vertex 1.19558055559812 24.8425988337886 0.0
endloop
endfacet
facet normal -1.0 2.87048705471081e-17 0.0
outer loop
vertex 1.19558055559813 18.5381427566696 1.72619515082507
vertex 1.19558055559812 12.5625988337886 0.0
vertex 1.19558055559812 17.8869541784464 1.99592629158757
endloop
endfacet
facet normal -1.0 2.87048705471081e-17 0.0
outer loop
vertex 1.19558055559812 17.8869541784464 1.99592629158757
vertex 1.19558055559812 12.5625988337886 0.0
vertex 1.19558055559812 17.3277658692428 2.42500657260188
endloop
endfacet
facet normal -1.0 2.87048705471081e-17 0.0
outer loop
vertex 1.19558055559812 17.3277658692428 2.42500657260188
vertex 1.19558055559812 12.5625988337886 0.0
vertex 1.19558055559812 16.8986855882285 2.98419488180556
endloop
endfacet
facet normal -1.0 2.87048705471081e-17 0.0
outer loop
vertex 1.19558055559812 16.8986855882285 2.98419488180556
vertex 1.19558055559812 12.5625988337886 0.0
vertex 1.19558055559812 16.628954447466 3.63538346002875
endloop
endfacet
facet normal -1.0 2.87048705471081e-17 0.0
outer loop
vertex 1.19558055559812 16.628954447466 3.63538346002875
vertex 1.19558055559812 12.5625988337886 0.0
vertex 1.19558055559812 16.5369541784465 4.33419488180555
endloop
endfacet
facet normal -1.0 2.87048705471081e-17 0.0
outer loop
vertex 1.19558055559812 24.8425988337886 0.0
vertex 1.19558055559813 18.5381427566696 1.72619515082507
vertex 1.19558055559813 19.2369541784464 1.63419488180555
endloop
endfacet
facet normal -1.0 2.87048705471081e-17 0.0
outer loop
vertex 1.19558055559812 24.8425988337886 0.0
vertex 1.19558055559813 19.2369541784464 1.63419488180555
vertex 1.19558055559813 19.9357656002233 1.72619515082507
endloop
endfacet
facet normal -1.0 2.87048705471081e-17 0.0
outer loop
vertex 1.19558055559812 24.8425988337886 0.0
vertex 1.19558055559813 19.9357656002233 1.72619515082507
vertex 1.19558055559813 20.5869541784464 1.99592629158757
endloop
endfacet
facet normal -1.0 2.87048705471081e-17 0.0
outer loop
vertex 1.19558055559812 24.8425988337886 0.0
vertex 1.19558055559813 20.5869541784464 1.99592629158757
vertex 1.19558055559813 21.1461424876501 2.42500657260188
endloop
endfacet
facet normal -1.0 2.87048705471081e-17 0.0
outer loop
vertex 1.19558055559812 24.8425988337886 0.0
vertex 1.19558055559813 21.1461424876501 2.42500657260188
vertex 1.19558055559813 21.5752227686644 2.98419488180555
endloop
endfacet
facet normal -1.0 2.87048705471081e-17 0.0
outer loop
vertex 1.19558055559812 24.8425988337886 0.0
vertex 1.19558055559813 21.5752227686644 2.98419488180555
vertex 1.19558055559813 21.8449539094269 3.63538346002875
endloop
endfacet
facet normal -1.0 2.87048705471081e-17 0.0
outer loop
vertex 1.19558055559812 24.8425988337886 0.0
vertex 1.19558055559813 21.8449539094269 3.63538346002875
vertex 1.19558055559813 21.9369541784464 4.33419488180555
endloop
endfacet
facet normal -1.0 2.87048705471081e-17 0.0
outer loop
vertex 1.19558055559812 24.8425988337886 0.0
vertex 1.19558055559813 21.9369541784464 4.33419488180555
vertex 1.19558055559812 24.8425988337886 8.0
endloop
endfacet
facet normal 0.130526192220052 0.99144486137381 0.0
outer loop
vertex 1.19558055559812 24.8425988337886 8.0
vertex 6.47047612756302 24.1481456572267 0.0
vertex 1.19558055559812 24.8425988337886 0.0
endloop
endfacet
facet normal 0.130526192220052 0.99144486137381 0.0
outer loop
vertex 6.47047612756302 24.1481456572267 0.0
vertex 1.19558055559812 24.8425988337886 8.0
vertex 6.47047612756302 24.1481456572267 8.0
endloop
endfacet
facet normal 0.38268343236509 0.923879532511287 -8.72348763987339e-18
outer loop
vertex 6.47047612756302 24.1481456572267 8.0
vertex 12.5 21.650635094611 0.0
vertex 6.47047612756302 24.1481456572267 0.0
endloop
endfacet
facet normal 0.38268343236509 0.923879532511287 -8.72348763987339e-18
outer loop
vertex 12.5 21.650635094611 0.0
vertex 6.47047612756302 24.1481456572267 8.0
vertex 12.5 21.650635094611 3.16625634187577
endloop
endfacet
facet normal 0.38268343236509 0.923879532511287 -8.72348763987339e-18
outer loop
vertex 12.5 21.650635094611 3.16625634187577
vertex 6.47047612756302 24.1481456572267 8.0
vertex 12.030872881847 21.8449539094269 3.63538346002875
endloop
endfacet
facet normal 0.38268343236509 0.923879532511287 -8.72348763987339e-18
outer loop
vertex 12.030872881847 21.8449539094269 3.63538346002875
vertex 6.47047612756302 24.1481456572267 8.0
vertex 11.8087645846381 21.9369541784465 4.33419488180556
endloop
endfacet
facet normal 0.38268343236509 0.923879532511287 -8.72348763987339e-18
outer loop
vertex 11.8087645846381 21.9369541784465 4.33419488180556
vertex 6.47047612756302 24.1481456572267 8.0
vertex 12.030872881847 21.8449539094269 5.03300630358236
endloop
endfacet
facet normal 0.38268343236509 0.923879532511287 -8.72348763987339e-18
outer loop
vertex 12.030872881847 21.8449539094269 5.03300630358236
vertex 6.47047612756302 24.1481456572267 8.0
vertex 12.5 21.650635094611 5.50213342173533
endloop
endfacet
facet normal 0.38268343236509 0.923879532511287 -8.72348763987339e-18
outer loop
vertex 12.5 21.650635094611 5.50213342173533
vertex 6.47047612756302 24.1481456572267 8.0
vertex 12.5 21.650635094611 8.0
endloop
endfacet
facet normal 0.608761429008721 0.793353340291235 -9.13193711438186e-16
outer loop
vertex 12.5 21.650635094611 0.0
vertex 13.8862159585526 20.5869541784464 1.99592629158757
vertex 17.6776695296637 17.6776695296637 0.0
endloop
endfacet
facet normal 0.608761429008721 0.793353340291235 -9.13193711438186e-16
outer loop
vertex 13.8862159585526 20.5869541784464 1.99592629158757
vertex 12.5 21.650635094611 0.0
vertex 13.1574675658022 21.1461424876501 2.42500657260188
endloop
endfacet
facet normal 0.608761429008721 0.793353340291235 -9.13193711438186e-16
outer loop
vertex 13.1574675658022 21.1461424876501 2.42500657260188
vertex 12.5 21.650635094611 0.0
vertex 12.5982792565985 21.5752227686644 2.98419488180555
endloop
endfacet
facet normal 0.608761429008721 0.793353340291235 -9.13193711438186e-16
outer loop
vertex 12.5982792565985 21.5752227686644 2.98419488180555
vertex 12.5 21.650635094611 0.0
vertex 12.5 21.650635094611 3.16625634187577
endloop
endfacet
facet normal 0.608761429008721 0.793353340291235 -9.13193711438186e-16
outer loop
vertex 17.6776695296637 17.6776695296637 0.0
vertex 13.8862159585526 20.5869541784464 1.99592629158757
vertex 14.7348614361974 19.9357656002233 1.72619515082507
endloop
endfacet
facet normal 0.608761429008721 0.793353340291235 -9.13193711438186e-16
outer loop
vertex 17.6776695296637 17.6776695296637 0.0
vertex 14.7348614361974 19.9357656002233 1.72619515082507
vertex 15.6455702118882 19.2369541784464 1.63419488180555
endloop
endfacet
facet normal 0.608761429008721 0.793353340291235 -9.13193711438186e-16
outer loop
vertex 17.6776695296637 17.6776695296637 0.0
vertex 17.4049244652238 17.8869541784464 1.99592629158757
vertex 17.6776695296637 17.6776695296637 2.15651605076828
endloop
endfacet
facet normal 0.608761429008721 0.793353340291235 -9.13193711438186e-16
outer loop
vertex 17.4049244652238 17.8869541784464 1.99592629158757
vertex 17.6776695296637 17.6776695296637 0.0
vertex 16.556278987579 18.5381427566696 1.72619515082507
endloop
endfacet
facet normal 0.608761429008721 0.793353340291235 -9.13193711438186e-16
outer loop
vertex 16.556278987579 18.5381427566696 1.72619515082507
vertex 17.6776695296637 17.6776695296637 0.0
vertex 15.6455702118882 19.2369541784464 1.63419488180555
endloop
endfacet
facet normal 0.793353340291235 0.60876142900872 -1.46494487940232e-16
outer loop
vertex 17.6776695296637 17.6776695296637 0.0
vertex 21.650635094611 12.5 8.0
vertex 21.650635094611 12.5 0.0
endloop
endfacet
facet normal 0.793353340291235 0.60876142900872 -1.46494487940232e-16
outer loop
vertex 21.650635094611 12.5 8.0
vertex 17.6776695296637 17.6776695296637 0.0
vertex 18.4823769149346 16.628954447466 3.63538346002875
endloop
endfacet
facet normal 0.793353340291235 0.60876142900872 -1.46494487940232e-16
outer loop
vertex 21.650635094611 12.5 8.0
vertex 18.4823769149346 16.628954447466 3.63538346002875
vertex 18.5529712042546 16.5369541784464 4.33419488180555
endloop
endfacet
facet normal 0.793353340291235 0.60876142900872 -1.46494487940232e-16
outer loop
vertex 18.4823769149346 16.628954447466 3.63538346002875
vertex 17.6776695296637 17.6776695296637 0.0
vertex 18.2754049311292 16.8986855882285 2.98419488180555
endloop
endfacet
facet normal 0.793353340291235 0.60876142900872 -1.46494487940232e-16
outer loop
vertex 18.2754049311292 16.8986855882285 2.98419488180555
vertex 17.6776695296637 17.6776695296637 0.0
vertex 17.9461600514973 17.3277658692428 2.42500657260188
endloop
endfacet
facet normal 0.793353340291235 0.60876142900872 -1.46494487940232e-16
outer loop
vertex 17.9461600514973 17.3277658692428 2.42500657260188
vertex 17.6776695296637 17.6776695296637 0.0
vertex 17.6776695296637 17.6776695296637 2.15651605076828
endloop
endfacet
facet normal 0.793353340291235 0.60876142900872 -1.46494487940232e-16
outer loop
vertex 21.650635094611 12.5 8.0
vertex 18.4823769149346 16.628954447466 5.03300630358236
vertex 17.6776695296637 17.6776695296637 8.0
endloop
endfacet
facet normal 0.793353340291235 0.60876142900872 -1.46494487940232e-16
outer loop
vertex 18.4823769149346 16.628954447466 5.03300630358236
vertex 21.650635094611 12.5 8.0
vertex 18.5529712042546 16.5369541784464 4.33419488180555
endloop
endfacet
facet normal 0.793353340291235 0.60876142900872 -1.46494487940232e-16
outer loop
vertex 17.6776695296637 17.6776695296637 8.0
vertex 18.4823769149346 16.628954447466 5.03300630358236
vertex 18.2754049311292 16.8986855882285 5.68419488180555
endloop
endfacet
facet normal 0.793353340291235 0.60876142900872 -1.46494487940232e-16
outer loop
vertex 17.6776695296637 17.6776695296637 8.0
vertex 18.2754049311292 16.8986855882285 5.68419488180555
vertex 17.9461600514973 17.3277658692428 6.24338319100923
endloop
endfacet
facet normal 0.793353340291235 0.60876142900872 -1.46494487940232e-16
outer loop
vertex 17.6776695296637 17.6776695296637 8.0
vertex 17.9461600514973 17.3277658692428 6.24338319100923
vertex 17.6776695296637 17.6776695296637 6.51187371284283
endloop
endfacet
facet normal 0.923879532511287 0.38268343236509 0.0
outer loop
vertex 21.650635094611 12.5 0.0
vertex 24.1481456572267 6.47047612756302 8.0
vertex 24.1481456572267 6.47047612756302 0.0
endloop
endfacet
facet normal 0.923879532511287 0.38268343236509 0.0
outer loop
vertex 24.1481456572267 6.47047612756302 8.0
vertex 21.650635094611 12.5 0.0
vertex 21.650635094611 12.5 8.0
endloop
endfacet
facet normal 0.991444861373811 0.130526192220051 0.0
outer loop
vertex 24.1481456572267 6.47047612756302 0.0
vertex 25.0 0.0 8.0
vertex 25.0 0.0 0.0
endloop
endfacet
facet normal 0.991444861373811 0.130526192220051 0.0
outer loop
vertex 25.0 0.0 8.0
vertex 24.1481456572267 6.47047612756302 0.0
vertex 24.1481456572267 6.47047612756302 8.0
endloop
endfacet
facet normal 0.99144486137381 -0.130526192220052 0.0
outer loop
vertex 25.0 0.0 0.0
vertex 24.1481456572267 -6.47047612756304 8.0
vertex 24.1481456572267 -6.47047612756304 0.0
endloop
endfacet
facet normal 0.99144486137381 -0.130526192220052 0.0
outer loop
vertex 24.1481456572267 -6.47047612756304 8.0
vertex 25.0 0.0 0.0
vertex 25.0 0.0 8.0
endloop
endfacet
facet normal 0.923879532511287 -0.382683432365091 0.0
outer loop
vertex 24.1481456572267 -6.47047612756304 0.0
vertex 21.650635094611 -12.5 8.0
vertex 21.650635094611 -12.5 0.0
endloop
endfacet
facet normal 0.923879532511287 -0.382683432365091 0.0
outer loop
vertex 21.650635094611 -12.5 8.0
vertex 24.1481456572267 -6.47047612756304 0.0
vertex 24.1481456572267 -6.47047612756304 8.0
endloop
endfacet
facet normal 0.793353340291235 -0.608761429008721 0.0
outer loop
vertex 21.650635094611 -12.5 0.0
vertex 17.6776695296637 -17.6776695296637 8.0
vertex 17.6776695296637 -17.6776695296637 0.0
endloop
endfacet
facet normal 0.793353340291235 -0.608761429008721 0.0
outer loop
vertex 17.6776695296637 -17.6776695296637 8.0
vertex 21.650635094611 -12.5 0.0
vertex 21.650635094611 -12.5 8.0
endloop
endfacet
facet normal 0.60876142900872 -0.793353340291236 0.0
outer loop
vertex 17.6776695296637 -17.6776695296637 8.0
vertex 12.5 -21.650635094611 0.0
vertex 17.6776695296637 -17.6776695296637 0.0
endloop
endfacet
facet normal 0.60876142900872 -0.793353340291236 0.0
outer loop
vertex 12.5 -21.650635094611 0.0
vertex 17.6776695296637 -17.6776695296637 8.0
vertex 12.5 -21.650635094611 8.0
endloop
endfacet
facet normal 0.382683432365089 -0.923879532511287 0.0
outer loop
vertex 12.5 -21.650635094611 8.0
vertex 6.47047612756301 -24.1481456572267 0.0
vertex 12.5 -21.650635094611 0.0
endloop
endfacet
facet normal 0.382683432365089 -0.923879532511287 0.0
outer loop
vertex 6.47047612756301 -24.1481456572267 0.0
vertex 12.5 -21.650635094611 8.0
vertex 6.47047612756301 -24.1481456572267 8.0
endloop
endfacet
facet normal 0.130526192220051 -0.991444861373811 0.0
outer loop
vertex 6.47047612756301 -24.1481456572267 8.0
vertex -4.59242549680257e-15 -25.0 0.0
vertex 6.47047612756301 -24.1481456572267 0.0
endloop
endfacet
facet normal 0.130526192220051 -0.991444861373811 0.0
outer loop
vertex -4.59242549680257e-15 -25.0 0.0
vertex 6.47047612756301 -24.1481456572267 8.0
vertex -4.59242549680257e-15 -25.0 8.0
endloop
endfacet
facet normal -0.130526192220052 -0.99144486137381 -0.0
outer loop
vertex -4.59242549680257e-15 -25.0 8.0
vertex -6.47047612756304 -24.1481456572267 0.0
vertex -4.59242549680257e-15 -25.0 0.0
endloop
endfacet
facet normal -0.130526192220052 -0.99144486137381 -0.0
outer loop
vertex -6.47047612756304 -24.1481456572267 0.0
vertex -4.59242549680257e-15 -25.0 8.0
vertex -6.47047612756304 -24.1481456572267 8.0
endloop
endfacet
facet normal -0.38268343236509 -0.923879532511287 -0.0
outer loop
vertex -6.47047612756304 -24.1481456572267 8.0
vertex -12.5 -21.650635094611 0.0
vertex -6.47047612756304 -24.1481456572267 0.0
endloop
endfacet
facet normal -0.38268343236509 -0.923879532511287 -0.0
outer loop
vertex -12.5 -21.650635094611 0.0
vertex -6.47047612756304 -24.1481456572267 8.0
vertex -12.5 -21.650635094611 8.0
endloop
endfacet
facet normal -0.608761429008721 -0.793353340291235 -0.0
outer loop
vertex -12.5 -21.650635094611 8.0
vertex -17.6776695296637 -17.6776695296637 0.0
vertex -12.5 -21.650635094611 0.0
endloop
endfacet
facet normal -0.608761429008721 -0.793353340291235 -0.0
outer loop
vertex -17.6776695296637 -17.6776695296637 0.0
vertex -12.5 -21.650635094611 8.0
vertex -17.6776695296637 -17.6776695296637 8.0
endloop
endfacet
facet normal -0.793353340291235 -0.60876142900872 -0.0
outer loop
vertex -21.650635094611 -12.5 8.0
vertex -17.6776695296637 -17.6776695296637 0.0
vertex -17.6776695296637 -17.6776695296637 8.0
endloop
endfacet
facet normal -0.793353340291235 -0.60876142900872 -0.0
outer loop
vertex -17.6776695296637 -17.6776695296637 0.0
vertex -21.650635094611 -12.5 8.0
vertex -21.650635094611 -12.5 0.0
endloop
endfacet
facet normal -0.923879532511287 -0.382683432365089 -0.0
outer loop
vertex -24.1481456572267 -6.47047612756301 8.0
vertex -21.650635094611 -12.5 0.0
vertex -21.650635094611 -12.5 8.0
endloop
endfacet
facet normal -0.923879532511287 -0.382683432365089 -0.0
outer loop
vertex -21.650635094611 -12.5 0.0
vertex -24.1481456572267 -6.47047612756301 8.0
vertex -24.1481456572267 -6.47047612756301 0.0
endloop
endfacet
facet normal -0.991444861373811 -0.130526192220051 -0.0
outer loop
vertex -25.0 3.06161699786838e-15 8.0
vertex -24.1481456572267 -6.47047612756301 0.0
vertex -24.1481456572267 -6.47047612756301 8.0
endloop
endfacet
facet normal -0.991444861373811 -0.130526192220051 -0.0
outer loop
vertex -24.1481456572267 -6.47047612756301 0.0
vertex -25.0 3.06161699786838e-15 8.0
vertex -25.0 3.06161699786838e-15 0.0
endloop
endfacet
facet normal -0.99144486137381 0.130526192220052 0.0
outer loop
vertex -24.1481456572267 6.47047612756303 8.0
vertex -25.0 3.06161699786838e-15 0.0
vertex -25.0 3.06161699786838e-15 8.0
endloop
endfacet
facet normal -0.99144486137381 0.130526192220052 0.0
outer loop
vertex -25.0 3.06161699786838e-15 0.0
vertex -24.1481456572267 6.47047612756303 8.0
vertex -24.1481456572267 6.47047612756303 0.0
endloop
endfacet
facet normal -0.923879532511287 0.38268343236509 0.0
outer loop
vertex -21.650635094611 12.5 8.0
vertex -24.1481456572267 6.47047612756303 0.0
vertex -24.1481456572267 6.47047612756303 8.0
endloop
endfacet
facet normal -0.923879532511287 0.38268343236509 0.0
outer loop
vertex -24.1481456572267 6.47047612756303 0.0
vertex -21.650635094611 12.5 8.0
vertex -21.650635094611 12.5 0.0
endloop
endfacet
facet normal -0.608761429008721 0.793353340291235 6.42572323726447e-16
outer loop
vertex -17.6776695296637 17.6776695296637 8.0
vertex -17.2993231879458 17.9679848884669 7.28174771707091
vertex -17.6776695296637 17.6776695296637 7.11413406651597
endloop
endfacet
facet normal -0.608761429008721 0.793353340291235 6.42572323726447e-16
outer loop
vertex -17.2993231879458 17.9679848884669 7.28174771707091
vertex -17.6776695296637 17.6776695296637 8.0
vertex -16.2148847340471 18.8001037809456 7.50471330231723
endloop
endfacet
facet normal -0.608761429008721 0.793353340291235 6.42572323726447e-16
outer loop
vertex -16.2148847340471 18.8001037809456 7.50471330231723
vertex -17.6776695296637 17.6776695296637 8.0
vertex -15.0921914336051 19.6615766495979 7.50471330231723
endloop
endfacet
facet normal -0.608761429008721 0.793353340291235 6.42572323726447e-16
outer loop
vertex -13.035472060865 21.2397529310005 6.85101128274474
vertex -12.5 21.650635094611 8.0
vertex -12.5 21.650635094611 6.44012911913428
endloop
endfacet
facet normal -0.608761429008721 0.793353340291235 6.42572323726447e-16
outer loop
vertex -12.5 21.650635094611 8.0
vertex -13.035472060865 21.2397529310005 6.85101128274474
vertex -14.0077529797064 20.4936955420765 7.28174771707091
endloop
endfacet
facet normal -0.608761429008721 0.793353340291235 6.42572323726447e-16
outer loop
vertex -12.5 21.650635094611 8.0
vertex -14.0077529797064 20.4936955420765 7.28174771707091
vertex -15.0921914336051 19.6615766495979 7.50471330231723
endloop
endfacet
facet normal -0.608761429008721 0.793353340291235 6.42572323726447e-16
outer loop
vertex -12.5 21.650635094611 8.0
vertex -15.0921914336051 19.6615766495979 7.50471330231723
vertex -17.6776695296637 17.6776695296637 8.0
endloop
endfacet
facet normal 3.61338859405821e-17 0.793353340291237 -0.608761429008718
outer loop
vertex 1.19558055559812 16.8986855882285 5.68419488180556
vertex 17.9461600514973 17.3277658692428 6.24338319100923
vertex 18.2754049311292 16.8986855882285 5.68419488180555
endloop
endfacet
facet normal 3.61338859405821e-17 0.793353340291237 -0.608761429008718
outer loop
vertex 17.9461600514973 17.3277658692428 6.24338319100923
vertex 1.19558055559812 16.8986855882285 5.68419488180556
vertex 1.19558055559812 17.3277658692428 6.24338319100923
endloop
endfacet
facet normal 3.25570958630107e-17 0.923879532511286 -0.382683432365092
outer loop
vertex 1.19558055559812 16.8986855882285 5.68419488180556
vertex 18.4823769149346 16.628954447466 5.03300630358236
vertex 1.19558055559812 16.628954447466 5.03300630358236
endloop
endfacet
facet normal 3.25570958630107e-17 0.923879532511286 -0.382683432365092
outer loop
vertex 18.4823769149346 16.628954447466 5.03300630358236
vertex 1.19558055559812 16.8986855882285 5.68419488180556
vertex 18.2754049311292 16.8986855882285 5.68419488180555
endloop
endfacet
facet normal -3.6965455543714e-17 -0.130526192220052 0.99144486137381
outer loop
vertex 15.6455702118882 19.2369541784464 1.63419488180555
vertex 1.19558055559813 19.9357656002233 1.72619515082507
vertex 1.19558055559813 19.2369541784464 1.63419488180555
endloop
endfacet
facet normal -3.6965455543714e-17 -0.130526192220052 0.99144486137381
outer loop
vertex 1.19558055559813 19.9357656002233 1.72619515082507
vertex 15.6455702118882 19.2369541784464 1.63419488180555
vertex 14.7348614361974 19.9357656002233 1.72619515082507
endloop
endfacet
facet normal 8.35883303258072e-17 0.130526192220052 0.99144486137381
outer loop
vertex 16.556278987579 18.5381427566696 1.72619515082507
vertex 1.19558055559813 19.2369541784464 1.63419488180555
vertex 1.19558055559813 18.5381427566696 1.72619515082507
endloop
endfacet
facet normal 8.35883303258072e-17 0.130526192220052 0.99144486137381
outer loop
vertex 1.19558055559813 19.2369541784464 1.63419488180555
vertex 16.556278987579 18.5381427566696 1.72619515082507
vertex 15.6455702118882 19.2369541784464 1.63419488180555
endloop
endfacet
facet normal 1.19998335814123e-16 0.382683432365091 0.923879532511286
outer loop
vertex 17.4049244652238 17.8869541784464 1.99592629158757
vertex 1.19558055559813 18.5381427566696 1.72619515082507
vertex 1.19558055559812 17.8869541784464 1.99592629158757
endloop
endfacet
facet normal 1.19998335814123e-16 0.382683432365091 0.923879532511286
outer loop
vertex 1.19558055559813 18.5381427566696 1.72619515082507
vertex 17.4049244652238 17.8869541784464 1.99592629158757
vertex 16.556278987579 18.5381427566696 1.72619515082507
endloop
endfacet
facet normal 8.73370606366532e-17 0.793353340291234 0.608761429008722
outer loop
vertex 1.19558055559812 17.3277658692428 2.42500657260188
vertex 18.2754049311292 16.8986855882285 2.98419488180555
vertex 17.9461600514973 17.3277658692428 2.42500657260188
endloop
endfacet
facet normal 8.73370606366532e-17 0.793353340291234 0.608761429008722
outer loop
vertex 18.2754049311292 16.8986855882285 2.98419488180555
vertex 1.19558055559812 17.3277658692428 2.42500657260188
vertex 1.19558055559812 16.8986855882285 2.98419488180556
endloop
endfacet
facet normal 8.87849541711113e-17 0.923879532511288 0.382683432365087
outer loop
vertex 1.19558055559812 16.8986855882285 2.98419488180556
vertex 18.4823769149346 16.628954447466 3.63538346002875
vertex 18.2754049311292 16.8986855882285 2.98419488180555
endloop
endfacet
facet normal 8.87849541711113e-17 0.923879532511288 0.382683432365087
outer loop
vertex 18.4823769149346 16.628954447466 3.63538346002875
vertex 1.19558055559812 16.8986855882285 2.98419488180556
vertex 1.19558055559812 16.628954447466 3.63538346002875
endloop
endfacet
facet normal 8.1315630421052e-17 0.99144486137381 0.130526192220053
outer loop
vertex 1.19558055559812 16.628954447466 3.63538346002875
vertex 18.5529712042546 16.5369541784464 4.33419488180555
vertex 18.4823769149346 16.628954447466 3.63538346002875
endloop
endfacet
facet normal 8.1315630421052e-17 0.99144486137381 0.130526192220053
outer loop
vertex 18.5529712042546 16.5369541784464 4.33419488180555
vertex 1.19558055559812 16.628954447466 3.63538346002875
vertex 1.19558055559812 16.5369541784465 4.33419488180555
endloop
endfacet
facet normal 7.48830985202136e-17 0.99144486137381 -0.130526192220052
outer loop
vertex 1.19558055559812 16.5369541784465 4.33419488180555
vertex 18.4823769149346 16.628954447466 5.03300630358236
vertex 18.5529712042546 16.5369541784464 4.33419488180555
endloop
endfacet
facet normal 7.48830985202136e-17 0.99144486137381 -0.130526192220052
outer loop
vertex 18.4823769149346 16.628954447466 5.03300630358236
vertex 1.19558055559812 16.5369541784465 4.33419488180555
vertex 1.19558055559812 16.628954447466 5.03300630358236
endloop
endfacet
facet normal 0.608761429008721 0.793353340291235 7.26321241256466e-16
outer loop
vertex 12.5 21.650635094611 8.0
vertex 12.5982792565985 21.5752227686644 5.68419488180555
vertex 12.5 21.650635094611 5.50213342173533
endloop
endfacet
facet normal 0.608761429008721 0.793353340291235 7.26321241256466e-16
outer loop
vertex 12.5982792565985 21.5752227686644 5.68419488180555
vertex 12.5 21.650635094611 8.0
vertex 13.1574675658022 21.1461424876501 6.24338319100924
endloop
endfacet
facet normal 0.608761429008721 0.793353340291235 7.26321241256466e-16
outer loop
vertex 13.1574675658022 21.1461424876501 6.24338319100924
vertex 12.5 21.650635094611 8.0
vertex 13.8862159585526 20.5869541784464 6.67246347202354
endloop
endfacet
facet normal 0.608761429008721 0.793353340291235 7.26321241256466e-16
outer loop
vertex 13.8862159585526 20.5869541784464 6.67246347202354
vertex 12.5 21.650635094611 8.0
vertex 14.7348614361974 19.9357656002233 6.94219461278604
endloop
endfacet
facet normal 0.608761429008721 0.793353340291235 7.26321241256466e-16
outer loop
vertex 14.7348614361974 19.9357656002233 6.94219461278604
vertex 12.5 21.650635094611 8.0
vertex 15.6455702118882 19.2369541784464 7.03419488180555
endloop
endfacet
facet normal 0.608761429008721 0.793353340291235 7.26321241256466e-16
outer loop
vertex 17.4049244652238 17.8869541784464 6.67246347202354
vertex 17.6776695296637 17.6776695296637 8.0
vertex 17.6776695296637 17.6776695296637 6.51187371284283
endloop
endfacet
facet normal 0.608761429008721 0.793353340291235 7.26321241256466e-16
outer loop
vertex 17.6776695296637 17.6776695296637 8.0
vertex 17.4049244652238 17.8869541784464 6.67246347202354
vertex 16.556278987579 18.5381427566696 6.94219461278604
endloop
endfacet
facet normal 0.608761429008721 0.793353340291235 7.26321241256466e-16
outer loop
vertex 17.6776695296637 17.6776695296637 8.0
vertex 16.556278987579 18.5381427566696 6.94219461278604
vertex 15.6455702118882 19.2369541784464 7.03419488180555
endloop
endfacet
facet normal 0.608761429008721 0.793353340291235 7.26321241256466e-16
outer loop
vertex 17.6776695296637 17.6776695296637 8.0
vertex 15.6455702118882 19.2369541784464 7.03419488180555
vertex 12.5 21.650635094611 8.0
endloop
endfacet
facet normal -1.07339064927995e-17 0.382683432365086 -0.923879532511289
outer loop
vertex 16.556278987579 18.5381427566696 6.94219461278604
vertex 1.19558055559813 17.8869541784464 6.67246347202354
vertex 1.19558055559813 18.5381427566696 6.94219461278604
endloop
endfacet
facet normal -1.07339064927995e-17 0.382683432365086 -0.923879532511289
outer loop
vertex 1.19558055559813 17.8869541784464 6.67246347202354
vertex 16.556278987579 18.5381427566696 6.94219461278604
vertex 17.4049244652238 17.8869541784464 6.67246347202354
endloop
endfacet
facet normal -1.8797315559128e-16 0.130526192220053 -0.99144486137381
outer loop
vertex 15.6455702118882 19.2369541784464 7.03419488180555
vertex 1.19558055559813 18.5381427566696 6.94219461278604
vertex 1.19558055559813 19.2369541784464 7.03419488180556
endloop
endfacet
facet normal -1.8797315559128e-16 0.130526192220053 -0.99144486137381
outer loop
vertex 1.19558055559813 18.5381427566696 6.94219461278604
vertex 15.6455702118882 19.2369541784464 7.03419488180555
vertex 16.556278987579 18.5381427566696 6.94219461278604
endloop
endfacet
facet normal -1.64205345343488e-16 -0.130526192220052 -0.99144486137381
outer loop
vertex 14.7348614361974 19.9357656002233 6.94219461278604
vertex 1.19558055559813 19.2369541784464 7.03419488180556
vertex 1.19558055559813 19.9357656002233 6.94219461278604
endloop
endfacet
facet normal -1.64205345343488e-16 -0.130526192220052 -0.99144486137381
outer loop
vertex 1.19558055559813 19.2369541784464 7.03419488180556
vertex 14.7348614361974 19.9357656002233 6.94219461278604
vertex 15.6455702118882 19.2369541784464 7.03419488180555
endloop
endfacet
facet normal -1.82350323653649e-16 -0.38268343236509 -0.923879532511287
outer loop
vertex 1.19558055559813 20.5869541784465 6.67246347202354
vertex 14.7348614361974 19.9357656002233 6.94219461278604
vertex 1.19558055559813 19.9357656002233 6.94219461278604
endloop
endfacet
facet normal -1.82350323653649e-16 -0.38268343236509 -0.923879532511287
outer loop
vertex 14.7348614361974 19.9357656002233 6.94219461278604
vertex 1.19558055559813 20.5869541784465 6.67246347202354
vertex 13.8862159585526 20.5869541784464 6.67246347202354
endloop
endfacet
facet normal 1.72435248851334e-16 0.608761429008721 -0.793353340291235
outer loop
vertex 1.19558055559813 17.8869541784464 6.67246347202354
vertex 17.9461600514973 17.3277658692428 6.24338319100923
vertex 1.19558055559812 17.3277658692428 6.24338319100923
endloop
endfacet
facet normal 1.72435248851334e-16 0.608761429008721 -0.793353340291235
outer loop
vertex 17.9461600514973 17.3277658692428 6.24338319100923
vertex 1.19558055559813 17.8869541784464 6.67246347202354
vertex 17.4049244652238 17.8869541784464 6.67246347202354
endloop
endfacet
facet normal 1.72435248851334e-16 0.608761429008721 -0.793353340291235
outer loop
vertex 17.9461600514973 17.3277658692428 6.24338319100923
vertex 17.4049244652238 17.8869541784464 6.67246347202354
vertex 17.6776695296637 17.6776695296637 6.51187371284283
endloop
endfacet
facet normal -1.66725064863911e-16 -0.608761429008719 -0.793353340291236
outer loop
vertex 13.1574675658022 21.1461424876501 6.24338319100924
vertex 1.19558055559813 20.5869541784465 6.67246347202354
vertex 1.19558055559813 21.1461424876501 6.24338319100923
endloop
endfacet
facet normal -1.66725064863911e-16 -0.608761429008719 -0.793353340291236
outer loop
vertex 1.19558055559813 20.5869541784465 6.67246347202354
vertex 13.1574675658022 21.1461424876501 6.24338319100924
vertex 13.8862159585526 20.5869541784464 6.67246347202354
endloop
endfacet
facet normal -3.62125113049577e-16 -0.793353340291236 -0.60876142900872
outer loop
vertex 13.1574675658022 21.1461424876501 6.24338319100924
vertex 1.19558055559813 21.5752227686644 5.68419488180556
vertex 12.5982792565985 21.5752227686644 5.68419488180555
endloop
endfacet
facet normal -3.62125113049577e-16 -0.793353340291236 -0.60876142900872
outer loop
vertex 1.19558055559813 21.5752227686644 5.68419488180556
vertex 13.1574675658022 21.1461424876501 6.24338319100924
vertex 1.19558055559813 21.1461424876501 6.24338319100923
endloop
endfacet
facet normal -3.53952995978453e-16 -0.923879532511287 -0.382683432365089
outer loop
vertex 12.030872881847 21.8449539094269 5.03300630358236
vertex 1.19558055559813 21.5752227686644 5.68419488180556
vertex 1.19558055559813 21.8449539094269 5.03300630358236
endloop
endfacet
facet normal -3.53952995978453e-16 -0.923879532511287 -0.382683432365089
outer loop
vertex 1.19558055559813 21.5752227686644 5.68419488180556
vertex 12.030872881847 21.8449539094269 5.03300630358236
vertex 12.5 21.650635094611 5.50213342173533
endloop
endfacet
facet normal -3.53952995978453e-16 -0.923879532511287 -0.382683432365089
outer loop
vertex 1.19558055559813 21.5752227686644 5.68419488180556
vertex 12.5 21.650635094611 5.50213342173533
vertex 12.5982792565985 21.5752227686644 5.68419488180555
endloop
endfacet
facet normal 1.01610968894815e-17 -0.99144486137381 -0.130526192220057
outer loop
vertex 11.8087645846381 21.9369541784465 4.33419488180556
vertex 1.19558055559813 21.8449539094269 5.03300630358236
vertex 1.19558055559813 21.9369541784464 4.33419488180555
endloop
endfacet
facet normal 1.01610968894815e-17 -0.99144486137381 -0.130526192220057
outer loop
vertex 1.19558055559813 21.8449539094269 5.03300630358236
vertex 11.8087645846381 21.9369541784465 4.33419488180556
vertex 12.030872881847 21.8449539094269 5.03300630358236
endloop
endfacet
facet normal 2.52423038517643e-16 -0.99144486137381 0.130526192220052
outer loop
vertex 11.8087645846381 21.9369541784465 4.33419488180556
vertex 1.19558055559813 21.8449539094269 3.63538346002875
vertex 12.030872881847 21.8449539094269 3.63538346002875
endloop
endfacet
facet normal 2.52423038517643e-16 -0.99144486137381 0.130526192220052
outer loop
vertex 1.19558055559813 21.8449539094269 3.63538346002875
vertex 11.8087645846381 21.9369541784465 4.33419488180556
vertex 1.19558055559813 21.9369541784464 4.33419488180555
endloop
endfacet
facet normal 4.13670900396608e-17 -0.923879532511285 0.382683432365093
outer loop
vertex 12.5 21.650635094611 3.16625634187577
vertex 1.19558055559813 21.5752227686644 2.98419488180555
vertex 12.5982792565985 21.5752227686644 2.98419488180555
endloop
endfacet
facet normal 4.13670900396608e-17 -0.923879532511285 0.382683432365093
outer loop
vertex 1.19558055559813 21.5752227686644 2.98419488180555
vertex 12.5 21.650635094611 3.16625634187577
vertex 1.19558055559813 21.8449539094269 3.63538346002875
endloop
endfacet
facet normal 4.13670900396608e-17 -0.923879532511285 0.382683432365093
outer loop
vertex 1.19558055559813 21.8449539094269 3.63538346002875
vertex 12.5 21.650635094611 3.16625634187577
vertex 12.030872881847 21.8449539094269 3.63538346002875
endloop
endfacet
facet normal 3.9712985829067e-17 -0.793353340291236 0.60876142900872
outer loop
vertex 13.1574675658022 21.1461424876501 2.42500657260188
vertex 1.19558055559813 21.5752227686644 2.98419488180555
vertex 1.19558055559813 21.1461424876501 2.42500657260188
endloop
endfacet
facet normal 3.9712985829067e-17 -0.793353340291236 0.60876142900872
outer loop
vertex 1.19558055559813 21.5752227686644 2.98419488180555
vertex 13.1574675658022 21.1461424876501 2.42500657260188
vertex 12.5982792565985 21.5752227686644 2.98419488180555
endloop
endfacet
facet normal -5.47784667358815e-17 -0.608761429008719 0.793353340291236
outer loop
vertex 13.8862159585526 20.5869541784464 1.99592629158757
vertex 1.19558055559813 21.1461424876501 2.42500657260188
vertex 1.19558055559813 20.5869541784464 1.99592629158757
endloop
endfacet
facet normal -5.47784667358815e-17 -0.608761429008719 0.793353340291236
outer loop
vertex 1.19558055559813 21.1461424876501 2.42500657260188
vertex 13.8862159585526 20.5869541784464 1.99592629158757
vertex 13.1574675658022 21.1461424876501 2.42500657260188
endloop
endfacet
facet normal -1.16966300875697e-16 -0.382683432365089 0.923879532511287
outer loop
vertex 14.7348614361974 19.9357656002233 1.72619515082507
vertex 1.19558055559813 20.5869541784464 1.99592629158757
vertex 1.19558055559813 19.9357656002233 1.72619515082507
endloop
endfacet
facet normal -1.16966300875697e-16 -0.382683432365089 0.923879532511287
outer loop
vertex 1.19558055559813 20.5869541784464 1.99592629158757
vertex 14.7348614361974 19.9357656002233 1.72619515082507
vertex 13.8862159585526 20.5869541784464 1.99592629158757
endloop
endfacet
facet normal 1.54386743689008e-16 0.60876142900872 0.793353340291235
outer loop
vertex 17.9461600514973 17.3277658692428 2.42500657260188
vertex 1.19558055559812 17.8869541784464 1.99592629158757
vertex 1.19558055559812 17.3277658692428 2.42500657260188
endloop
endfacet
facet normal 1.54386743689008e-16 0.60876142900872 0.793353340291235
outer loop
vertex 1.19558055559812 17.8869541784464 1.99592629158757
vertex 17.9461600514973 17.3277658692428 2.42500657260188
vertex 17.4049244652238 17.8869541784464 1.99592629158757
endloop
endfacet
facet normal 1.54386743689008e-16 0.60876142900872 0.793353340291235
outer loop
vertex 17.4049244652238 17.8869541784464 1.99592629158757
vertex 17.9461600514973 17.3277658692428 2.42500657260188
vertex 17.6776695296637 17.6776695296637 2.15651605076828
endloop
endfacet
facet normal -1.77656126293887e-16 -0.707106781186545 0.70710678118655
outer loop
vertex -1.10441944440187 21.2397529310005 1.61487923682259
vertex -12.5 21.650635094611 2.02576140043304
vertex -13.035472060865 21.2397529310005 1.61487923682258
endloop
endfacet
facet normal -1.77656126293887e-16 -0.707106781186545 0.70710678118655
outer loop
vertex -12.5 21.650635094611 2.02576140043304
vertex -1.10441944440187 21.2397529310005 1.61487923682259
vertex -12.0213311160409 21.8489062382328 2.22403254405488
endloop
endfacet
facet normal -1.77656126293887e-16 -0.707106781186545 0.70710678118655
outer loop
vertex -12.0213311160409 21.8489062382328 2.22403254405488
vertex -1.10441944440187 21.2397529310005 1.61487923682259
vertex -1.10441944440187 21.8489062382328 2.22403254405488
endloop
endfacet
facet normal -9.0167101509055e-17 -0.86602540378444 0.499999999999998
outer loop
vertex -1.10441944440187 21.8489062382328 2.22403254405488
vertex -10.9814413744824 22.279642672559 2.97008993297887
vertex -12.0213311160409 21.8489062382328 2.22403254405488
endloop
endfacet
facet normal -9.0167101509055e-17 -0.86602540378444 0.499999999999998
outer loop
vertex -10.9814413744824 22.279642672559 2.97008993297887
vertex -1.10441944440187 21.8489062382328 2.22403254405488
vertex -1.10441944440187 22.279642672559 2.97008993297886
endloop
endfacet
facet normal 9.0669041414301e-18 -0.965925826289069 -0.258819045102519
outer loop
vertex -1.10441944440187 22.279642672559 5.49580058658845
vertex -10.4431548346383 22.5026082578053 4.66368169410983
vertex -1.10441944440187 22.5026082578053 4.66368169410983
endloop
endfacet
facet normal 9.0669041414301e-18 -0.965925826289069 -0.258819045102519
outer loop
vertex -10.4431548346383 22.5026082578053 4.66368169410983
vertex -1.10441944440187 22.279642672559 5.49580058658845
vertex -10.9814413744824 22.279642672559 5.49580058658845
endloop
endfacet
facet normal -5.05908174214388e-17 -0.707106781186549 -0.707106781186546
outer loop
vertex -1.10441944440187 21.8489062382328 6.24185797551244
vertex -12.5 21.650635094611 6.44012911913428
vertex -12.0213311160409 21.8489062382328 6.24185797551244
endloop
endfacet
facet normal -5.05908174214388e-17 -0.707106781186549 -0.707106781186546
outer loop
vertex -12.5 21.650635094611 6.44012911913428
vertex -1.10441944440187 21.8489062382328 6.24185797551244
vertex -1.10441944440187 21.2397529310005 6.85101128274474
endloop
endfacet
facet normal -5.05908174214388e-17 -0.707106781186549 -0.707106781186546
outer loop
vertex -12.5 21.650635094611 6.44012911913428
vertex -1.10441944440187 21.2397529310005 6.85101128274474
vertex -13.035472060865 21.2397529310005 6.85101128274474
endloop
endfacet
facet normal -1.14339567372856e-16 -0.500000000000001 -0.866025403784438
outer loop
vertex -13.035472060865 21.2397529310005 6.85101128274474
vertex -1.10441944440187 20.4936955420765 7.28174771707091
vertex -14.0077529797064 20.4936955420765 7.28174771707091
endloop
endfacet
facet normal -1.14339567372856e-16 -0.500000000000001 -0.866025403784438
outer loop
vertex -1.10441944440187 20.4936955420765 7.28174771707091
vertex -13.035472060865 21.2397529310005 6.85101128274474
vertex -1.10441944440187 21.2397529310005 6.85101128274474
endloop
endfacet
facet normal 5.45765588618496e-17 -0.25881904510252 -0.965925826289069
outer loop
vertex -14.0077529797064 20.4936955420765 7.28174771707091
vertex -1.10441944440187 19.6615766495979 7.50471330231723
vertex -15.0921914336051 19.6615766495979 7.50471330231723
endloop
endfacet
facet normal 5.45765588618496e-17 -0.25881904510252 -0.965925826289069
outer loop
vertex -1.10441944440187 19.6615766495979 7.50471330231723
vertex -14.0077529797064 20.4936955420765 7.28174771707091
vertex -1.10441944440187 20.4936955420765 7.28174771707091
endloop
endfacet
facet normal 9.6767882814092e-17 -6.30551800797246e-17 -1.0
outer loop
vertex -15.0921914336051 19.6615766495979 7.50471330231723
vertex -1.10441944440187 18.8001037809456 7.50471330231723
vertex -16.2148847340471 18.8001037809456 7.50471330231723
endloop
endfacet
facet normal 9.6767882814092e-17 -6.30551800797246e-17 -1.0
outer loop
vertex -1.10441944440187 18.8001037809456 7.50471330231723
vertex -15.0921914336051 19.6615766495979 7.50471330231723
vertex -1.10441944440187 19.6615766495979 7.50471330231723
endloop
endfacet
facet normal -7.04248648424531e-17 0.258819045102516 -0.96592582628907
outer loop
vertex -16.2148847340471 18.8001037809456 7.50471330231723
vertex -1.10441944440187 17.9679848884669 7.28174771707091
vertex -17.2993231879458 17.9679848884669 7.28174771707091
endloop
endfacet
facet normal -7.04248648424531e-17 0.258819045102516 -0.96592582628907
outer loop
vertex -1.10441944440187 17.9679848884669 7.28174771707091
vertex -16.2148847340471 18.8001037809456 7.50471330231723
vertex -1.10441944440187 18.8001037809456 7.50471330231723
endloop
endfacet
facet normal -6.43752096227384e-17 0.5 -0.866025403784439
outer loop
vertex -17.6776695296637 17.6776695296637 7.11413406651597
vertex -1.10441944440187 17.221927499543 6.85101128274474
vertex -18.0273726889316 17.221927499543 6.85101128274474
endloop
endfacet
facet normal -6.43752096227384e-17 0.5 -0.866025403784439
outer loop
vertex -1.10441944440187 17.221927499543 6.85101128274474
vertex -17.6776695296637 17.6776695296637 7.11413406651597
vertex -17.2993231879458 17.9679848884669 7.28174771707091
endloop
endfacet
facet normal -6.43752096227384e-17 0.5 -0.866025403784439
outer loop
vertex -1.10441944440187 17.221927499543 6.85101128274474
vertex -17.2993231879458 17.9679848884669 7.28174771707091
vertex -1.10441944440187 17.9679848884669 7.28174771707091
endloop
endfacet
facet normal -7.3167482560941e-17 0.707106781186548 -0.707106781186547
outer loop
vertex -18.4947924613876 16.6127741923107 6.24185797551245
vertex -1.10441944440187 17.221927499543 6.85101128274474
vertex -1.10441944440187 16.6127741923107 6.24185797551244
endloop
endfacet
facet normal -7.3167482560941e-17 0.707106781186548 -0.707106781186547
outer loop
vertex -1.10441944440187 17.221927499543 6.85101128274474
vertex -18.4947924613876 16.6127741923107 6.24185797551245
vertex -18.0273726889316 17.221927499543 6.85101128274474
endloop
endfacet
facet normal -6.02043530183327e-17 0.866025403784437 -0.500000000000002
outer loop
vertex -18.8253081521519 16.1820377579845 5.49580058658846
vertex -1.10441944440187 16.6127741923107 6.24185797551244
vertex -1.10441944440187 16.1820377579845 5.49580058658846
endloop
endfacet
facet normal -6.02043530183327e-17 0.866025403784437 -0.500000000000002
outer loop
vertex -1.10441944440187 16.6127741923107 6.24185797551244
vertex -18.8253081521519 16.1820377579845 5.49580058658846
vertex -18.4947924613876 16.6127741923107 6.24185797551245
endloop
endfacet
facet normal -5.31984375525965e-18 0.965925826289068 -0.258819045102521
outer loop
vertex -18.8253081521519 16.1820377579845 5.49580058658846
vertex -1.10441944440187 15.9590721727382 4.66368169410984
vertex -18.9963956631019 15.9590721727382 4.66368169410984
endloop
endfacet
facet normal -5.31984375525965e-18 0.965925826289068 -0.258819045102521
outer loop
vertex -1.10441944440187 15.9590721727382 4.66368169410984
vertex -18.8253081521519 16.1820377579845 5.49580058658846
vertex -1.10441944440187 16.1820377579845 5.49580058658846
endloop
endfacet
facet normal -0.0 1.0 -0.0
outer loop
vertex -18.9963956631019 15.9590721727382 4.66368169410984
vertex -1.10441944440187 15.9590721727382 3.8022088254575
vertex -18.9963956631019 15.9590721727382 3.8022088254575
endloop
endfacet
facet normal -0.0 1.0 -0.0
outer loop
vertex -1.10441944440187 15.9590721727382 3.8022088254575
vertex -18.9963956631019 15.9590721727382 4.66368169410984
vertex -1.10441944440187 15.9590721727382 4.66368169410984
endloop
endfacet
facet normal -1.29784798676153e-17 0.965925826289069 0.258819045102519
outer loop
vertex -18.9963956631019 15.9590721727382 3.8022088254575
vertex -1.10441944440187 16.1820377579845 2.97008993297887
vertex -18.8253081521519 16.1820377579845 2.97008993297887
endloop
endfacet
facet normal -1.29784798676153e-17 0.965925826289069 0.258819045102519
outer loop
vertex -1.10441944440187 16.1820377579845 2.97008993297887
vertex -18.9963956631019 15.9590721727382 3.8022088254575
vertex -1.10441944440187 15.9590721727382 3.8022088254575
endloop
endfacet
facet normal -1.41820877779905e-17 0.86602540378444 0.499999999999998
outer loop
vertex -18.8253081521519 16.1820377579845 2.97008993297887
vertex -1.10441944440187 16.6127741923107 2.22403254405489
vertex -18.4947924613876 16.6127741923107 2.22403254405489
endloop
endfacet
facet normal -1.41820877779905e-17 0.86602540378444 0.499999999999998
outer loop
vertex -1.10441944440187 16.6127741923107 2.22403254405489
vertex -18.8253081521519 16.1820377579845 2.97008993297887
vertex -1.10441944440187 16.1820377579845 2.97008993297887
endloop
endfacet
facet normal -3.74395013104229e-17 0.707106781186549 0.707106781186546
outer loop
vertex -18.0273726889316 17.221927499543 1.61487923682259
vertex -1.10441944440187 16.6127741923107 2.22403254405489
vertex -1.10441944440187 17.221927499543 1.61487923682259
endloop
endfacet
facet normal -3.74395013104229e-17 0.707106781186549 0.707106781186546
outer loop
vertex -1.10441944440187 16.6127741923107 2.22403254405489
vertex -18.0273726889316 17.221927499543 1.61487923682259
vertex -18.4947924613876 16.6127741923107 2.22403254405489
endloop
endfacet
facet normal 1.22224330888124e-17 -0.25881904510252 0.965925826289068
outer loop
vertex -1.10441944440187 19.6615766495979 0.961177217250089
vertex -14.0077529797064 20.4936955420765 1.18414280249642
vertex -15.0921914336051 19.6615766495979 0.961177217250089
endloop
endfacet
facet normal 1.22224330888124e-17 -0.25881904510252 0.965925826289068
outer loop
vertex -14.0077529797064 20.4936955420765 1.18414280249642
vertex -1.10441944440187 19.6615766495979 0.961177217250089
vertex -1.10441944440187 20.4936955420765 1.18414280249642
endloop
endfacet
facet normal -0.382683432365089 0.923879532511287 1.73512599965174e-16
outer loop
vertex -12.5 21.650635094611 2.02576140043304
vertex -6.47047612756302 24.1481456572267 0.0
vertex -12.5 21.650635094611 0.0
endloop
endfacet
facet normal -0.382683432365089 0.923879532511287 1.73512599965174e-16
outer loop
vertex -6.47047612756302 24.1481456572267 0.0
vertex -12.5 21.650635094611 2.02576140043304
vertex -12.0213311160409 21.8489062382328 2.22403254405488
endloop
endfacet
facet normal -0.382683432365089 0.923879532511287 1.73512599965174e-16
outer loop
vertex -6.47047612756302 24.1481456572267 0.0
vertex -12.0213311160409 21.8489062382328 2.22403254405488
vertex -10.9814413744824 22.279642672559 2.97008993297887
endloop
endfacet
facet normal -0.382683432365089 0.923879532511287 1.73512599965174e-16
outer loop
vertex -6.47047612756302 24.1481456572267 0.0
vertex -10.9814413744824 22.279642672559 2.97008993297887
vertex -6.47047612756302 24.1481456572267 8.0
endloop
endfacet
facet normal -0.382683432365089 0.923879532511287 1.73512599965174e-16
outer loop
vertex -6.47047612756302 24.1481456572267 8.0
vertex -10.9814413744824 22.279642672559 2.97008993297887
vertex -10.4431548346383 22.5026082578053 3.80220882545749
endloop
endfacet
facet normal -0.382683432365089 0.923879532511287 1.73512599965174e-16
outer loop
vertex -6.47047612756302 24.1481456572267 8.0
vertex -10.4431548346383 22.5026082578053 3.80220882545749
vertex -10.4431548346383 22.5026082578053 4.66368169410983
endloop
endfacet
facet normal -0.382683432365089 0.923879532511287 1.73512599965174e-16
outer loop
vertex -6.47047612756302 24.1481456572267 8.0
vertex -10.4431548346383 22.5026082578053 4.66368169410983
vertex -10.9814413744824 22.279642672559 5.49580058658845
endloop
endfacet
facet normal -0.382683432365089 0.923879532511287 1.73512599965174e-16
outer loop
vertex -6.47047612756302 24.1481456572267 8.0
vertex -10.9814413744824 22.279642672559 5.49580058658845
vertex -12.0213311160409 21.8489062382328 6.24185797551244
endloop
endfacet
facet normal -0.382683432365089 0.923879532511287 1.73512599965174e-16
outer loop
vertex -6.47047612756302 24.1481456572267 8.0
vertex -12.0213311160409 21.8489062382328 6.24185797551244
vertex -12.5 21.650635094611 6.44012911913428
endloop
endfacet
facet normal -0.382683432365089 0.923879532511287 1.73512599965174e-16
outer loop
vertex -6.47047612756302 24.1481456572267 8.0
vertex -12.5 21.650635094611 6.44012911913428
vertex -12.5 21.650635094611 8.0
endloop
endfacet
facet normal -0.608761429008721 0.793353340291235 -6.17170435310644e-16
outer loop
vertex -17.6776695296637 17.6776695296637 0.0
vertex -17.2993231879458 17.9679848884669 1.18414280249642
vertex -12.5 21.650635094611 0.0
endloop
endfacet
facet normal -0.608761429008721 0.793353340291235 -6.17170435310644e-16
outer loop
vertex -17.2993231879458 17.9679848884669 1.18414280249642
vertex -17.6776695296637 17.6776695296637 0.0
vertex -17.6776695296637 17.6776695296637 1.35175645305136
endloop
endfacet
facet normal -0.608761429008721 0.793353340291235 -6.17170435310644e-16
outer loop
vertex -12.5 21.650635094611 0.0
vertex -17.2993231879458 17.9679848884669 1.18414280249642
vertex -16.2148847340471 18.8001037809456 0.961177217250091
endloop
endfacet
facet normal -0.608761429008721 0.793353340291235 -6.17170435310644e-16
outer loop
vertex -12.5 21.650635094611 0.0
vertex -16.2148847340471 18.8001037809456 0.961177217250091
vertex -15.0921914336051 19.6615766495979 0.961177217250089
endloop
endfacet
facet normal -0.608761429008721 0.793353340291235 -6.17170435310644e-16
outer loop
vertex -12.5 21.650635094611 0.0
vertex -13.035472060865 21.2397529310005 1.61487923682258
vertex -12.5 21.650635094611 2.02576140043304
endloop
endfacet
facet normal -0.608761429008721 0.793353340291235 -6.17170435310644e-16
outer loop
vertex -13.035472060865 21.2397529310005 1.61487923682258
vertex -12.5 21.650635094611 0.0
vertex -14.0077529797064 20.4936955420765 1.18414280249642
endloop
endfacet
facet normal -0.608761429008721 0.793353340291235 -6.17170435310644e-16
outer loop
vertex -14.0077529797064 20.4936955420765 1.18414280249642
vertex -12.5 21.650635094611 0.0
vertex -15.0921914336051 19.6615766495979 0.961177217250089
endloop
endfacet
facet normal 6.35515115968125e-17 -0.965925826289068 0.258819045102522
outer loop
vertex -1.10441944440187 22.5026082578053 3.80220882545749
vertex -10.9814413744824 22.279642672559 2.97008993297887
vertex -1.10441944440187 22.279642672559 2.97008993297886
endloop
endfacet
facet normal 6.35515115968125e-17 -0.965925826289068 0.258819045102522
outer loop
vertex -10.9814413744824 22.279642672559 2.97008993297887
vertex -1.10441944440187 22.5026082578053 3.80220882545749
vertex -10.4431548346383 22.5026082578053 3.80220882545749
endloop
endfacet
facet normal -3.98073050669691e-33 2.45506845180107e-15 1.0
outer loop
vertex -1.10441944440187 18.8001037809456 0.961177217250091
vertex -15.0921914336051 19.6615766495979 0.961177217250089
vertex -16.2148847340471 18.8001037809456 0.961177217250091
endloop
endfacet
facet normal -3.98073050669691e-33 2.45506845180107e-15 1.0
outer loop
vertex -15.0921914336051 19.6615766495979 0.961177217250089
vertex -1.10441944440187 18.8001037809456 0.961177217250091
vertex -1.10441944440187 19.6615766495979 0.961177217250089
endloop
endfacet
facet normal 0.0 -1.0 0.0
outer loop
vertex -1.10441944440187 22.5026082578053 4.66368169410983
vertex -10.4431548346383 22.5026082578053 3.80220882545749
vertex -1.10441944440187 22.5026082578053 3.80220882545749
endloop
endfacet
facet normal 0.0 -1.0 0.0
outer loop
vertex -10.4431548346383 22.5026082578053 3.80220882545749
vertex -1.10441944440187 22.5026082578053 4.66368169410983
vertex -10.4431548346383 22.5026082578053 4.66368169410983
endloop
endfacet
facet normal 1.73373935533201e-16 -0.866025403784439 -0.499999999999998
outer loop
vertex -1.10441944440187 22.279642672559 5.49580058658845
vertex -12.0213311160409 21.8489062382328 6.24185797551244
vertex -10.9814413744824 22.279642672559 5.49580058658845
endloop
endfacet
facet normal 1.73373935533201e-16 -0.866025403784439 -0.499999999999998
outer loop
vertex -12.0213311160409 21.8489062382328 6.24185797551244
vertex -1.10441944440187 22.279642672559 5.49580058658845
vertex -1.10441944440187 21.8489062382328 6.24185797551244
endloop
endfacet
facet normal 7.83429292446453e-18 0.5 0.866025403784438
outer loop
vertex -1.10441944440187 17.221927499543 1.61487923682259
vertex -17.6776695296637 17.6776695296637 1.35175645305136
vertex -18.0273726889316 17.221927499543 1.61487923682259
endloop
endfacet
facet normal 7.83429292446453e-18 0.5 0.866025403784438
outer loop
vertex -17.6776695296637 17.6776695296637 1.35175645305136
vertex -1.10441944440187 17.221927499543 1.61487923682259
vertex -17.2993231879458 17.9679848884669 1.18414280249642
endloop
endfacet
facet normal 7.83429292446453e-18 0.5 0.866025403784438
outer loop
vertex -17.2993231879458 17.9679848884669 1.18414280249642
vertex -1.10441944440187 17.221927499543 1.61487923682259
vertex -1.10441944440187 17.9679848884669 1.18414280249642
endloop
endfacet
facet normal 1.25937703143533e-17 0.258819045102522 0.965925826289068
outer loop
vertex -1.10441944440187 17.9679848884669 1.18414280249642
vertex -16.2148847340471 18.8001037809456 0.961177217250091
vertex -17.2993231879458 17.9679848884669 1.18414280249642
endloop
endfacet
facet normal 1.25937703143533e-17 0.258819045102522 0.965925826289068
outer loop
vertex -16.2148847340471 18.8001037809456 0.961177217250091
vertex -1.10441944440187 17.9679848884669 1.18414280249642
vertex -1.10441944440187 18.8001037809456 0.961177217250091
endloop
endfacet
facet normal -3.39688423457221e-17 -0.499999999999998 0.866025403784439
outer loop
vertex -1.10441944440187 20.4936955420765 1.18414280249642
vertex -13.035472060865 21.2397529310005 1.61487923682258
vertex -14.0077529797064 20.4936955420765 1.18414280249642
endloop
endfacet
facet normal -3.39688423457221e-17 -0.499999999999998 0.866025403784439
outer loop
vertex -13.035472060865 21.2397529310005 1.61487923682258
vertex -1.10441944440187 20.4936955420765 1.18414280249642
vertex -1.10441944440187 21.2397529310005 1.61487923682259
endloop
endfacet
facet normal -0.793353340291235 0.608761429008721 -4.3715280921165e-18
outer loop
vertex -17.6776695296637 17.6776695296637 8.0
vertex -21.650635094611 12.5 0.0
vertex -21.650635094611 12.5 8.0
endloop
endfacet
facet normal -0.793353340291235 0.608761429008721 -4.3715280921165e-18
outer loop
vertex -21.650635094611 12.5 0.0
vertex -17.6776695296637 17.6776695296637 8.0
vertex -18.4947924613876 16.6127741923107 6.24185797551245
endloop
endfacet
facet normal -0.793353340291235 0.608761429008721 -4.3715280921165e-18
outer loop
vertex -21.650635094611 12.5 0.0
vertex -18.4947924613876 16.6127741923107 6.24185797551245
vertex -18.8253081521519 16.1820377579845 5.49580058658846
endloop
endfacet
facet normal -0.793353340291235 0.608761429008721 -4.3715280921165e-18
outer loop
vertex -21.650635094611 12.5 0.0
vertex -18.8253081521519 16.1820377579845 5.49580058658846
vertex -18.9963956631019 15.9590721727382 4.66368169410984
endloop
endfacet
facet normal -0.793353340291235 0.608761429008721 -4.3715280921165e-18
outer loop
vertex -18.4947924613876 16.6127741923107 6.24185797551245
vertex -17.6776695296637 17.6776695296637 8.0
vertex -18.0273726889316 17.221927499543 6.85101128274474
endloop
endfacet
facet normal -0.793353340291235 0.608761429008721 -4.3715280921165e-18
outer loop
vertex -18.0273726889316 17.221927499543 6.85101128274474
vertex -17.6776695296637 17.6776695296637 8.0
vertex -17.6776695296637 17.6776695296637 7.11413406651597
endloop
endfacet
facet normal -0.793353340291235 0.608761429008721 -4.3715280921165e-18
outer loop
vertex -21.650635094611 12.5 0.0
vertex -18.8253081521519 16.1820377579845 2.97008993297887
vertex -17.6776695296637 17.6776695296637 0.0
endloop
endfacet
facet normal -0.793353340291235 0.608761429008721 -4.3715280921165e-18
outer loop
vertex -18.8253081521519 16.1820377579845 2.97008993297887
vertex -21.650635094611 12.5 0.0
vertex -18.9963956631019 15.9590721727382 3.8022088254575
endloop
endfacet
facet normal -0.793353340291235 0.608761429008721 -4.3715280921165e-18
outer loop
vertex -18.9963956631019 15.9590721727382 3.8022088254575
vertex -21.650635094611 12.5 0.0
vertex -18.9963956631019 15.9590721727382 4.66368169410984
endloop
endfacet
facet normal -0.793353340291235 0.608761429008721 -4.3715280921165e-18
outer loop
vertex -17.6776695296637 17.6776695296637 0.0
vertex -18.8253081521519 16.1820377579845 2.97008993297887
vertex -18.4947924613876 16.6127741923107 2.22403254405489
endloop
endfacet
facet normal -0.793353340291235 0.608761429008721 -4.3715280921165e-18
outer loop
vertex -17.6776695296637 17.6776695296637 0.0
vertex -18.4947924613876 16.6127741923107 2.22403254405489
vertex -18.0273726889316 17.221927499543 1.61487923682259
endloop
endfacet
facet normal -0.793353340291235 0.608761429008721 -4.3715280921165e-18
outer loop
vertex -17.6776695296637 17.6776695296637 0.0
vertex -18.0273726889316 17.221927499543 1.61487923682259
vertex -17.6776695296637 17.6776695296637 1.35175645305136
endloop
endfacet
endsolid collar
