solid mast-downtube-bracketA
facet normal 0.0 0.5 0.866025403784439
outer loop
vertex 4.4016434413318 -65.7999999999999 -4.65923546970395
vertex -3.5983565586682 -64.5940952255126 -5.15873758222709
vertex -3.5983565586682 -65.7999999999999 -4.65923546970395
endloop
endfacet
facet normal 0.0 0.258819045102521 0.965925826289068
outer loop
vertex -3.5983565586682 -64.5940952255126 -5.15873758222709
vertex 4.4016434413318 -65.7999999999999 -4.65923546970395
vertex 4.4016434413318 -64.5940952255126 -5.15873758222709
endloop
endfacet
facet normal 1.0 0.0 0.0
outer loop
vertex 4.4016434413318 -75.5672579938711 -3.61611032358376
vertex 4.4016434413318 -75.5672579938711 2.95789342202026
vertex 4.4016434413318 -75.9999999999999 -0.329108450781752
endloop
endfacet
facet normal 1.0 0.0 0.0
outer loop
vertex 4.4016434413318 -75.5672579938711 2.95789342202026
vertex 4.4016434413318 -75.5672579938711 -3.61611032358376
vertex 4.4016434413318 -74.2985226280623 -6.67910845078175
endloop
endfacet
facet normal 1.0 0.0 0.0
outer loop
vertex 4.4016434413318 -75.5672579938711 2.95789342202026
vertex 4.4016434413318 -74.2985226280623 -6.67910845078175
vertex 4.4016434413318 -74.2985226280623 6.02089154921825
endloop
endfacet
facet normal 1.0 0.0 0.0
outer loop
vertex 4.4016434413318 -74.2985226280623 6.02089154921825
vertex 4.4016434413318 -74.2985226280623 -6.67910845078175
vertex 4.4016434413318 -72.2802561210691 -9.3093645718509
endloop
endfacet
facet normal 1.0 0.0 0.0
outer loop
vertex 4.4016434413318 -74.2985226280623 6.02089154921825
vertex 4.4016434413318 -72.2802561210691 -9.3093645718509
vertex 4.4016434413318 -72.2802561210691 8.6511476702874
endloop
endfacet
facet normal 1.0 0.0 0.0
outer loop
vertex 4.4016434413318 -72.2802561210691 8.6511476702874
vertex 4.4016434413318 -72.2802561210691 -9.3093645718509
vertex 4.4016434413318 -69.6499999999999 -11.3276310788441
endloop
endfacet
facet normal 1.0 0.0 0.0
outer loop
vertex 4.4016434413318 -72.2802561210691 8.6511476702874
vertex 4.4016434413318 -69.6499999999999 -11.3276310788441
vertex 4.4016434413318 -69.6499999999999 10.6694141772806
endloop
endfacet
facet normal 1.0 0.0 0.0
outer loop
vertex 4.4016434413318 -69.6499999999999 10.6694141772806
vertex 4.4016434413318 -69.6499999999999 -11.3276310788441
vertex 4.4016434413318 -68.2999999999999 -0.329108450781755
endloop
endfacet
facet normal 1.0 0.0 0.0
outer loop
vertex 4.4016434413318 -68.2999999999999 -0.329108450781755
vertex 4.4016434413318 -69.6499999999999 -11.3276310788441
vertex 4.4016434413318 -68.1296291314453 -1.62320367629436
endloop
endfacet
facet normal 1.0 0.0 0.0
outer loop
vertex 4.4016434413318 -68.1296291314453 -1.62320367629436
vertex 4.4016434413318 -69.6499999999999 -11.3276310788441
vertex 4.4016434413318 -66.587001872802 -12.5963664446529
endloop
endfacet
facet normal 1.0 0.0 0.0
outer loop
vertex 4.4016434413318 -68.1296291314453 -1.62320367629436
vertex 4.4016434413318 -66.587001872802 -12.5963664446529
vertex 4.4016434413318 -67.6301270189221 -2.82910845078175
endloop
endfacet
facet normal 1.0 0.0 0.0
outer loop
vertex 4.4016434413318 -67.6301270189221 -2.82910845078175
vertex 4.4016434413318 -66.587001872802 -12.5963664446529
vertex 4.4016434413318 -66.8355339059327 -3.86464235671449
endloop
endfacet
facet normal 1.0 0.0 0.0
outer loop
vertex 4.4016434413318 -66.8355339059327 -3.86464235671449
vertex 4.4016434413318 -66.587001872802 -12.5963664446529
vertex 4.4016434413318 -65.7999999999999 -4.65923546970395
endloop
endfacet
facet normal 1.0 0.0 0.0
outer loop
vertex 4.4016434413318 -65.7999999999999 -4.65923546970395
vertex 4.4016434413318 -66.587001872802 -12.5963664446529
vertex 4.4016434413318 -63.3 -13.0291084507818
endloop
endfacet
facet normal 1.0 0.0 0.0
outer loop
vertex 4.4016434413318 -65.7999999999999 -4.65923546970395
vertex 4.4016434413318 -63.3 -13.0291084507818
vertex 4.4016434413318 -64.5940952255126 -5.15873758222709
endloop
endfacet
facet normal 1.0 0.0 0.0
outer loop
vertex 4.4016434413318 -64.5940952255126 -5.15873758222709
vertex 4.4016434413318 -63.3 -13.0291084507818
vertex 4.4016434413318 -63.3 -5.32910845078175
endloop
endfacet
facet normal 1.0 0.0 0.0
outer loop
vertex 4.4016434413318 -63.3 -5.32910845078175
vertex 4.4016434413318 -63.3 -13.0291084507818
vertex 4.4016434413318 -50.0 -13.0291084507818
endloop
endfacet
facet normal 1.0 0.0 0.0
outer loop
vertex 4.4016434413318 -63.3 -5.32910845078175
vertex 4.4016434413318 -50.0 -13.0291084507818
vertex 4.4016434413318 -62.0059047744873 -5.15873758222709
endloop
endfacet
facet normal 1.0 0.0 0.0
outer loop
vertex 4.4016434413318 -62.0059047744873 -5.15873758222709
vertex 4.4016434413318 -50.0 -13.0291084507818
vertex 4.4016434413318 -60.7999999999999 -4.65923546970394
endloop
endfacet
facet normal 1.0 0.0 0.0
outer loop
vertex 4.4016434413318 -60.7999999999999 -4.65923546970394
vertex 4.4016434413318 -50.0 -13.0291084507818
vertex 4.4016434413318 -59.7644660940672 -3.86464235671449
endloop
endfacet
facet normal 1.0 0.0 0.0
outer loop
vertex 4.4016434413318 -59.7644660940672 -3.86464235671449
vertex 4.4016434413318 -50.0 -13.0291084507818
vertex 4.4016434413318 -58.9698729810778 -2.82910845078175
endloop
endfacet
facet normal 1.0 0.0 0.0
outer loop
vertex 4.4016434413318 -58.9698729810778 -2.82910845078175
vertex 4.4016434413318 -50.0 -13.0291084507818
vertex 4.4016434413318 -58.4703708685546 -1.62320367629436
endloop
endfacet
facet normal 1.0 0.0 0.0
outer loop
vertex 4.4016434413318 -58.4703708685546 -1.62320367629436
vertex 4.4016434413318 -50.0 -13.0291084507818
vertex 4.4016434413318 -58.2999999999999 -0.329108450781755
endloop
endfacet
facet normal 1.0 0.0 0.0
outer loop
vertex 4.4016434413318 -69.6499999999999 10.6694141772806
vertex 4.4016434413318 -68.1296291314453 0.964986774730847
vertex 4.4016434413318 -66.5870018728019 11.9381495430894
endloop
endfacet
facet normal 1.0 0.0 0.0
outer loop
vertex 4.4016434413318 -68.1296291314453 0.964986774730847
vertex 4.4016434413318 -69.6499999999999 10.6694141772806
vertex 4.4016434413318 -68.2999999999999 -0.329108450781755
endloop
endfacet
facet normal 1.0 0.0 0.0
outer loop
vertex 4.4016434413318 -66.5870018728019 11.9381495430894
vertex 4.4016434413318 -68.1296291314453 0.964986774730847
vertex 4.4016434413318 -67.6301270189221 2.17089154921824
endloop
endfacet
facet normal 1.0 0.0 0.0
outer loop
vertex 4.4016434413318 -66.5870018728019 11.9381495430894
vertex 4.4016434413318 -67.6301270189221 2.17089154921824
vertex 4.4016434413318 -66.8355339059327 3.20642545515098
endloop
endfacet
facet normal 1.0 0.0 0.0
outer loop
vertex 4.4016434413318 -66.5870018728019 11.9381495430894
vertex 4.4016434413318 -66.8355339059327 3.20642545515098
vertex 4.4016434413318 -65.7999999999999 4.00101856814044
endloop
endfacet
facet normal 1.0 0.0 0.0
outer loop
vertex 4.4016434413318 -66.5870018728019 11.9381495430894
vertex 4.4016434413318 -65.7999999999999 4.00101856814044
vertex 4.4016434413318 -63.3 12.3708915492182
endloop
endfacet
facet normal 1.0 0.0 0.0
outer loop
vertex 4.4016434413318 -63.3 12.3708915492182
vertex 4.4016434413318 -65.7999999999999 4.00101856814044
vertex 4.4016434413318 -64.5940952255126 4.50052068066358
endloop
endfacet
facet normal 1.0 0.0 0.0
outer loop
vertex 4.4016434413318 -63.3 12.3708915492182
vertex 4.4016434413318 -64.5940952255126 4.50052068066358
vertex 4.4016434413318 -63.3 4.67089154921824
endloop
endfacet
facet normal 1.0 0.0 0.0
outer loop
vertex 4.4016434413318 -63.3 12.3708915492182
vertex 4.4016434413318 -63.3 4.67089154921824
vertex 4.4016434413318 -62.0059047744873 4.50052068066359
endloop
endfacet
facet normal 1.0 0.0 0.0
outer loop
vertex 4.4016434413318 -63.3 12.3708915492182
vertex 4.4016434413318 -62.0059047744873 4.50052068066359
vertex 4.4016434413318 -63.3 12.4708915492182
endloop
endfacet
facet normal 1.0 0.0 0.0
outer loop
vertex 4.4016434413318 -63.3 12.4708915492182
vertex 4.4016434413318 -62.0059047744873 4.50052068066359
vertex 4.4016434413318 -50.0 12.4708915492182
endloop
endfacet
facet normal 1.0 0.0 0.0
outer loop
vertex 4.4016434413318 -50.0 12.4708915492182
vertex 4.4016434413318 -62.0059047744873 4.50052068066359
vertex 4.4016434413318 -60.8 4.00101856814044
endloop
endfacet
facet normal 1.0 0.0 0.0
outer loop
vertex 4.4016434413318 -50.0 12.4708915492182
vertex 4.4016434413318 -60.8 4.00101856814044
vertex 4.4016434413318 -59.7644660940672 3.20642545515098
endloop
endfacet
facet normal 1.0 0.0 0.0
outer loop
vertex 4.4016434413318 -50.0 12.4708915492182
vertex 4.4016434413318 -59.7644660940672 3.20642545515098
vertex 4.4016434413318 -58.9698729810778 2.17089154921825
endloop
endfacet
facet normal 1.0 0.0 0.0
outer loop
vertex 4.4016434413318 -50.0 12.4708915492182
vertex 4.4016434413318 -58.9698729810778 2.17089154921825
vertex 4.4016434413318 -58.4703708685546 0.964986774730853
endloop
endfacet
facet normal 1.0 0.0 0.0
outer loop
vertex 4.4016434413318 -50.0 12.4708915492182
vertex 4.4016434413318 -58.4703708685546 0.964986774730853
vertex 4.4016434413318 -58.2999999999999 -0.329108450781755
endloop
endfacet
facet normal 1.0 0.0 0.0
outer loop
vertex 4.4016434413318 -50.0 12.4708915492182
vertex 4.4016434413318 -58.2999999999999 -0.329108450781755
vertex 4.4016434413318 -50.0 -13.0291084507818
endloop
endfacet
facet normal 0.0 0.0 1.0
outer loop
vertex 4.4016434413318 -63.3 12.4708915492182
vertex -3.5983565586682 -50.0 12.4708915492182
vertex -3.5983565586682 -63.3 12.4708915492182
endloop
endfacet
facet normal 0.0 0.0 1.0
outer loop
vertex -3.5983565586682 -50.0 12.4708915492182
vertex 4.4016434413318 -63.3 12.4708915492182
vertex 4.4016434413318 -50.0 12.4708915492182
endloop
endfacet
facet normal 0.0 0.866025403784439 0.5
outer loop
vertex -3.5983565586682 -67.6301270189221 -2.82910845078175
vertex 4.4016434413318 -66.8355339059327 -3.86464235671449
vertex -3.5983565586682 -66.8355339059327 -3.86464235671449
endloop
endfacet
facet normal 0.0 0.707106781186547 0.707106781186548
outer loop
vertex 4.4016434413318 -66.8355339059327 -3.86464235671449
vertex -3.5983565586682 -67.6301270189221 -2.82910845078175
vertex 4.4016434413318 -67.6301270189221 -2.82910845078175
endloop
endfacet
facet normal 0.0 -0.5 0.866025403784439
outer loop
vertex 4.4016434413318 -69.6499999999999 10.6694141772806
vertex -3.5983565586682 -66.5870018728019 11.9381495430894
vertex -3.5983565586682 -69.6499999999999 10.6694141772806
endloop
endfacet
facet normal 0.0 -0.258819045102521 0.965925826289068
outer loop
vertex -3.5983565586682 -66.5870018728019 11.9381495430894
vertex 4.4016434413318 -69.6499999999999 10.6694141772806
vertex 4.4016434413318 -66.5870018728019 11.9381495430894
endloop
endfacet
facet normal 0.0 0.0 -1.0
outer loop
vertex 4.4016434413318 -50.0 -13.0291084507818
vertex -3.5983565586682 -63.3 -13.0291084507818
vertex -3.5983565586682 -50.0 -13.0291084507818
endloop
endfacet
facet normal 0.0 0.0 -1.0
outer loop
vertex -3.5983565586682 -63.3 -13.0291084507818
vertex 4.4016434413318 -50.0 -13.0291084507818
vertex 4.4016434413318 -63.3 -13.0291084507818
endloop
endfacet
facet normal 0.0 0.707106781186547 0.707106781186548
outer loop
vertex 4.4016434413318 -66.8355339059327 -3.86464235671449
vertex -3.5983565586682 -65.7999999999999 -4.65923546970395
vertex -3.5983565586682 -66.8355339059327 -3.86464235671449
endloop
endfacet
facet normal 0.0 0.5 0.866025403784439
outer loop
vertex -3.5983565586682 -65.7999999999999 -4.65923546970395
vertex 4.4016434413318 -66.8355339059327 -3.86464235671449
vertex 4.4016434413318 -65.7999999999999 -4.65923546970395
endloop
endfacet
facet normal 0.0 -1.0 -1.1584442864341e-16
outer loop
vertex 4.4016434413318 -75.9999999999999 -0.329108450781752
vertex -3.5983565586682 -75.5672579938711 -3.61611032358376
vertex 4.4016434413318 -75.5672579938711 -3.61611032358376
endloop
endfacet
facet normal 0.0 -0.965925826289069 -0.25881904510252
outer loop
vertex -3.5983565586682 -75.5672579938711 -3.61611032358376
vertex 4.4016434413318 -75.9999999999999 -0.329108450781752
vertex -3.5983565586682 -75.9999999999999 -0.329108450781752
endloop
endfacet
facet normal 0.0 0.258819045102521 -0.965925826289068
outer loop
vertex 4.4016434413318 -64.5940952255126 4.50052068066358
vertex -3.5983565586682 -65.7999999999999 4.00101856814044
vertex -3.5983565586682 -64.5940952255126 4.50052068066358
endloop
endfacet
facet normal 0.0 0.500000000000001 -0.866025403784438
outer loop
vertex -3.5983565586682 -65.7999999999999 4.00101856814044
vertex 4.4016434413318 -64.5940952255126 4.50052068066358
vertex 4.4016434413318 -65.7999999999999 4.00101856814044
endloop
endfacet
facet normal 0.0 -0.258819045102522 -0.965925826289068
outer loop
vertex 4.4016434413318 -66.587001872802 -12.5963664446529
vertex -3.5983565586682 -69.6499999999999 -11.3276310788441
vertex -3.5983565586682 -66.587001872802 -12.5963664446529
endloop
endfacet
facet normal 0.0 -0.500000000000001 -0.866025403784438
outer loop
vertex -3.5983565586682 -69.6499999999999 -11.3276310788441
vertex 4.4016434413318 -66.587001872802 -12.5963664446529
vertex 4.4016434413318 -69.6499999999999 -11.3276310788441
endloop
endfacet
facet normal 0.0 1.0 0.0
outer loop
vertex -3.5983565586682 -50.0 12.4708915492182
vertex 4.4016434413318 -50.0 -13.0291084507818
vertex -3.5983565586682 -50.0 -13.0291084507818
endloop
endfacet
facet normal 0.0 1.0 0.0
outer loop
vertex 4.4016434413318 -50.0 -13.0291084507818
vertex -3.5983565586682 -50.0 12.4708915492182
vertex 4.4016434413318 -50.0 12.4708915492182
endloop
endfacet
facet normal 0.0 -0.258819045102521 0.965925826289068
outer loop
vertex 4.4016434413318 -66.5870018728019 11.9381495430894
vertex -3.5983565586682 -63.3 12.3708915492182
vertex -3.5983565586682 -66.5870018728019 11.9381495430894
endloop
endfacet
facet normal 0.0 -0.130526192220052 0.99144486137381
outer loop
vertex -3.5983565586682 -63.3 12.3708915492182
vertex 4.4016434413318 -66.5870018728019 11.9381495430894
vertex 4.4016434413318 -63.3 12.3708915492182
endloop
endfacet
facet normal 0.0 0.965925826289068 0.258819045102521
outer loop
vertex -3.5983565586682 -68.1296291314453 -1.62320367629436
vertex 4.4016434413318 -67.6301270189221 -2.82910845078175
vertex -3.5983565586682 -67.6301270189221 -2.82910845078175
endloop
endfacet
facet normal 0.0 0.866025403784439 0.5
outer loop
vertex 4.4016434413318 -67.6301270189221 -2.82910845078175
vertex -3.5983565586682 -68.1296291314453 -1.62320367629436
vertex 4.4016434413318 -68.1296291314453 -1.62320367629436
endloop
endfacet
facet normal 0.0 -0.866025403784439 0.5
outer loop
vertex 4.4016434413318 -74.2985226280623 6.02089154921825
vertex -3.5983565586682 -75.5672579938711 2.95789342202026
vertex 4.4016434413318 -75.5672579938711 2.95789342202026
endloop
endfacet
facet normal 0.0 -0.965925826289069 0.25881904510252
outer loop
vertex -3.5983565586682 -75.5672579938711 2.95789342202026
vertex 4.4016434413318 -74.2985226280623 6.02089154921825
vertex -3.5983565586682 -74.2985226280623 6.02089154921825
endloop
endfacet
facet normal 0.0 -0.965925826289068 -0.258819045102521
outer loop
vertex 4.4016434413318 -58.4703708685546 0.964986774730853
vertex -3.5983565586682 -58.2999999999999 -0.329108450781755
vertex 4.4016434413318 -58.2999999999999 -0.329108450781755
endloop
endfacet
facet normal 0.0 -1.0 2.13866637495526e-16
outer loop
vertex -3.5983565586682 -58.2999999999999 -0.329108450781755
vertex 4.4016434413318 -58.4703708685546 0.964986774730853
vertex -3.5983565586682 -58.4703708685546 0.964986774730853
endloop
endfacet
facet normal 0.0 -0.707106781186547 -0.707106781186548
outer loop
vertex 4.4016434413318 -59.7644660940672 3.20642545515098
vertex -3.5983565586682 -58.9698729810778 2.17089154921825
vertex 4.4016434413318 -58.9698729810778 2.17089154921825
endloop
endfacet
facet normal 0.0 -0.866025403784438 -0.5
outer loop
vertex -3.5983565586682 -58.9698729810778 2.17089154921825
vertex 4.4016434413318 -59.7644660940672 3.20642545515098
vertex -3.5983565586682 -59.7644660940672 3.20642545515098
endloop
endfacet
facet normal 0.0 -0.866025403784438 -0.5
outer loop
vertex 4.4016434413318 -58.9698729810778 2.17089154921825
vertex -3.5983565586682 -58.4703708685546 0.964986774730853
vertex 4.4016434413318 -58.4703708685546 0.964986774730853
endloop
endfacet
facet normal 0.0 -0.965925826289068 -0.258819045102521
outer loop
vertex -3.5983565586682 -58.4703708685546 0.964986774730853
vertex 4.4016434413318 -58.9698729810778 2.17089154921825
vertex -3.5983565586682 -58.9698729810778 2.17089154921825
endloop
endfacet
facet normal -0.0 -0.130526192220052 -0.99144486137381
outer loop
vertex 4.4016434413318 -63.3 -13.0291084507818
vertex -3.5983565586682 -66.587001872802 -12.5963664446529
vertex -3.5983565586682 -63.3 -13.0291084507818
endloop
endfacet
facet normal 0.0 -0.258819045102522 -0.965925826289068
outer loop
vertex -3.5983565586682 -66.587001872802 -12.5963664446529
vertex 4.4016434413318 -63.3 -13.0291084507818
vertex 4.4016434413318 -66.587001872802 -12.5963664446529
endloop
endfacet
facet normal 0.0 -0.866025403784439 -0.5
outer loop
vertex 4.4016434413318 -74.2985226280623 -6.67910845078175
vertex -3.5983565586682 -72.2802561210691 -9.3093645718509
vertex 4.4016434413318 -72.2802561210691 -9.3093645718509
endloop
endfacet
facet normal 0.0 -0.707106781186548 -0.707106781186547
outer loop
vertex -3.5983565586682 -72.2802561210691 -9.3093645718509
vertex 4.4016434413318 -74.2985226280623 -6.67910845078175
vertex -3.5983565586682 -74.2985226280623 -6.67910845078175
endloop
endfacet
facet normal 0.0 -0.500000000000001 -0.866025403784438
outer loop
vertex 4.4016434413318 -69.6499999999999 -11.3276310788441
vertex -3.5983565586682 -72.2802561210691 -9.3093645718509
vertex -3.5983565586682 -69.6499999999999 -11.3276310788441
endloop
endfacet
facet normal 0.0 -0.707106781186548 -0.707106781186547
outer loop
vertex -3.5983565586682 -72.2802561210691 -9.3093645718509
vertex 4.4016434413318 -69.6499999999999 -11.3276310788441
vertex 4.4016434413318 -72.2802561210691 -9.3093645718509
endloop
endfacet
facet normal -1.0 -0.0 -0.0
outer loop
vertex -3.5983565586682 -50.0 12.4708915492182
vertex -3.5983565586682 -63.3 12.3708915492182
vertex -3.5983565586682 -63.3 12.4708915492182
endloop
endfacet
facet normal -1.0 -0.0 -0.0
outer loop
vertex -3.5983565586682 -63.3 12.3708915492182
vertex -3.5983565586682 -50.0 12.4708915492182
vertex -3.5983565586682 -63.3 4.67089154921824
endloop
endfacet
facet normal -1.0 -0.0 -0.0
outer loop
vertex -3.5983565586682 -63.3 4.67089154921824
vertex -3.5983565586682 -50.0 12.4708915492182
vertex -3.5983565586682 -62.0059047744873 4.50052068066359
endloop
endfacet
facet normal -1.0 -0.0 -0.0
outer loop
vertex -3.5983565586682 -62.0059047744873 4.50052068066359
vertex -3.5983565586682 -50.0 12.4708915492182
vertex -3.5983565586682 -60.8 4.00101856814044
endloop
endfacet
facet normal -1.0 -0.0 -0.0
outer loop
vertex -3.5983565586682 -60.8 4.00101856814044
vertex -3.5983565586682 -50.0 12.4708915492182
vertex -3.5983565586682 -59.7644660940672 3.20642545515098
endloop
endfacet
facet normal -1.0 -0.0 -0.0
outer loop
vertex -3.5983565586682 -59.7644660940672 3.20642545515098
vertex -3.5983565586682 -50.0 12.4708915492182
vertex -3.5983565586682 -58.9698729810778 2.17089154921825
endloop
endfacet
facet normal -1.0 -0.0 -0.0
outer loop
vertex -3.5983565586682 -58.9698729810778 2.17089154921825
vertex -3.5983565586682 -50.0 12.4708915492182
vertex -3.5983565586682 -58.4703708685546 0.964986774730853
endloop
endfacet
facet normal -1.0 -0.0 -0.0
outer loop
vertex -3.5983565586682 -58.4703708685546 0.964986774730853
vertex -3.5983565586682 -50.0 12.4708915492182
vertex -3.5983565586682 -58.2999999999999 -0.329108450781755
endloop
endfacet
facet normal -1.0 -0.0 -0.0
outer loop
vertex -3.5983565586682 -75.5672579938711 2.95789342202026
vertex -3.5983565586682 -75.5672579938711 -3.61611032358376
vertex -3.5983565586682 -75.9999999999999 -0.329108450781752
endloop
endfacet
facet normal -1.0 -0.0 -0.0
outer loop
vertex -3.5983565586682 -75.5672579938711 -3.61611032358376
vertex -3.5983565586682 -75.5672579938711 2.95789342202026
vertex -3.5983565586682 -74.2985226280623 6.02089154921825
endloop
endfacet
facet normal -1.0 -0.0 -0.0
outer loop
vertex -3.5983565586682 -75.5672579938711 -3.61611032358376
vertex -3.5983565586682 -74.2985226280623 6.02089154921825
vertex -3.5983565586682 -74.2985226280623 -6.67910845078175
endloop
endfacet
facet normal -1.0 -0.0 -0.0
outer loop
vertex -3.5983565586682 -74.2985226280623 -6.67910845078175
vertex -3.5983565586682 -74.2985226280623 6.02089154921825
vertex -3.5983565586682 -72.2802561210691 8.6511476702874
endloop
endfacet
facet normal -1.0 -0.0 -0.0
outer loop
vertex -3.5983565586682 -74.2985226280623 -6.67910845078175
vertex -3.5983565586682 -72.2802561210691 8.6511476702874
vertex -3.5983565586682 -72.2802561210691 -9.3093645718509
endloop
endfacet
facet normal -1.0 -0.0 -0.0
outer loop
vertex -3.5983565586682 -72.2802561210691 -9.3093645718509
vertex -3.5983565586682 -72.2802561210691 8.6511476702874
vertex -3.5983565586682 -69.6499999999999 10.6694141772806
endloop
endfacet
facet normal -1.0 -0.0 -0.0
outer loop
vertex -3.5983565586682 -72.2802561210691 -9.3093645718509
vertex -3.5983565586682 -69.6499999999999 10.6694141772806
vertex -3.5983565586682 -69.6499999999999 -11.3276310788441
endloop
endfacet
facet normal -1.0 -0.0 -0.0
outer loop
vertex -3.5983565586682 -69.6499999999999 -11.3276310788441
vertex -3.5983565586682 -69.6499999999999 10.6694141772806
vertex -3.5983565586682 -68.2999999999999 -0.329108450781755
endloop
endfacet
facet normal -1.0 -0.0 -0.0
outer loop
vertex -3.5983565586682 -69.6499999999999 -11.3276310788441
vertex -3.5983565586682 -68.2999999999999 -0.329108450781755
vertex -3.5983565586682 -68.1296291314453 -1.62320367629436
endloop
endfacet
facet normal -1.0 -0.0 -0.0
outer loop
vertex -3.5983565586682 -69.6499999999999 -11.3276310788441
vertex -3.5983565586682 -68.1296291314453 -1.62320367629436
vertex -3.5983565586682 -66.587001872802 -12.5963664446529
endloop
endfacet
facet normal -1.0 -0.0 -0.0
outer loop
vertex -3.5983565586682 -66.587001872802 -12.5963664446529
vertex -3.5983565586682 -68.1296291314453 -1.62320367629436
vertex -3.5983565586682 -67.6301270189221 -2.82910845078175
endloop
endfacet
facet normal -1.0 -0.0 -0.0
outer loop
vertex -3.5983565586682 -66.587001872802 -12.5963664446529
vertex -3.5983565586682 -67.6301270189221 -2.82910845078175
vertex -3.5983565586682 -66.8355339059327 -3.86464235671449
endloop
endfacet
facet normal -1.0 -0.0 -0.0
outer loop
vertex -3.5983565586682 -66.587001872802 -12.5963664446529
vertex -3.5983565586682 -66.8355339059327 -3.86464235671449
vertex -3.5983565586682 -65.7999999999999 -4.65923546970395
endloop
endfacet
facet normal -1.0 -0.0 -0.0
outer loop
vertex -3.5983565586682 -66.587001872802 -12.5963664446529
vertex -3.5983565586682 -65.7999999999999 -4.65923546970395
vertex -3.5983565586682 -63.3 -13.0291084507818
endloop
endfacet
facet normal -1.0 -0.0 -0.0
outer loop
vertex -3.5983565586682 -63.3 -13.0291084507818
vertex -3.5983565586682 -65.7999999999999 -4.65923546970395
vertex -3.5983565586682 -64.5940952255126 -5.15873758222709
endloop
endfacet
facet normal -1.0 -0.0 -0.0
outer loop
vertex -3.5983565586682 -63.3 -13.0291084507818
vertex -3.5983565586682 -64.5940952255126 -5.15873758222709
vertex -3.5983565586682 -63.3 -5.32910845078175
endloop
endfacet
facet normal -1.0 -0.0 -0.0
outer loop
vertex -3.5983565586682 -63.3 -13.0291084507818
vertex -3.5983565586682 -63.3 -5.32910845078175
vertex -3.5983565586682 -62.0059047744873 -5.15873758222709
endloop
endfacet
facet normal -1.0 -0.0 -0.0
outer loop
vertex -3.5983565586682 -63.3 -13.0291084507818
vertex -3.5983565586682 -62.0059047744873 -5.15873758222709
vertex -3.5983565586682 -50.0 -13.0291084507818
endloop
endfacet
facet normal -1.0 -0.0 -0.0
outer loop
vertex -3.5983565586682 -50.0 -13.0291084507818
vertex -3.5983565586682 -62.0059047744873 -5.15873758222709
vertex -3.5983565586682 -60.7999999999999 -4.65923546970394
endloop
endfacet
facet normal -1.0 -0.0 -0.0
outer loop
vertex -3.5983565586682 -50.0 -13.0291084507818
vertex -3.5983565586682 -60.7999999999999 -4.65923546970394
vertex -3.5983565586682 -59.7644660940672 -3.86464235671449
endloop
endfacet
facet normal -1.0 -0.0 -0.0
outer loop
vertex -3.5983565586682 -50.0 -13.0291084507818
vertex -3.5983565586682 -59.7644660940672 -3.86464235671449
vertex -3.5983565586682 -58.9698729810778 -2.82910845078175
endloop
endfacet
facet normal -1.0 -0.0 -0.0
outer loop
vertex -3.5983565586682 -50.0 -13.0291084507818
vertex -3.5983565586682 -58.9698729810778 -2.82910845078175
vertex -3.5983565586682 -58.4703708685546 -1.62320367629436
endloop
endfacet
facet normal -1.0 -0.0 -0.0
outer loop
vertex -3.5983565586682 -50.0 -13.0291084507818
vertex -3.5983565586682 -58.4703708685546 -1.62320367629436
vertex -3.5983565586682 -58.2999999999999 -0.329108450781755
endloop
endfacet
facet normal -1.0 -0.0 -0.0
outer loop
vertex -3.5983565586682 -50.0 -13.0291084507818
vertex -3.5983565586682 -58.2999999999999 -0.329108450781755
vertex -3.5983565586682 -50.0 12.4708915492182
endloop
endfacet
facet normal -1.0 -0.0 -0.0
outer loop
vertex -3.5983565586682 -69.6499999999999 10.6694141772806
vertex -3.5983565586682 -68.1296291314453 0.964986774730847
vertex -3.5983565586682 -68.2999999999999 -0.329108450781755
endloop
endfacet
facet normal -1.0 -0.0 -0.0
outer loop
vertex -3.5983565586682 -68.1296291314453 0.964986774730847
vertex -3.5983565586682 -69.6499999999999 10.6694141772806
vertex -3.5983565586682 -66.5870018728019 11.9381495430894
endloop
endfacet
facet normal -1.0 -0.0 -0.0
outer loop
vertex -3.5983565586682 -68.1296291314453 0.964986774730847
vertex -3.5983565586682 -66.5870018728019 11.9381495430894
vertex -3.5983565586682 -67.6301270189221 2.17089154921824
endloop
endfacet
facet normal -1.0 -0.0 -0.0
outer loop
vertex -3.5983565586682 -67.6301270189221 2.17089154921824
vertex -3.5983565586682 -66.5870018728019 11.9381495430894
vertex -3.5983565586682 -66.8355339059327 3.20642545515098
endloop
endfacet
facet normal -1.0 -0.0 -0.0
outer loop
vertex -3.5983565586682 -66.8355339059327 3.20642545515098
vertex -3.5983565586682 -66.5870018728019 11.9381495430894
vertex -3.5983565586682 -65.7999999999999 4.00101856814044
endloop
endfacet
facet normal -1.0 -0.0 -0.0
outer loop
vertex -3.5983565586682 -65.7999999999999 4.00101856814044
vertex -3.5983565586682 -66.5870018728019 11.9381495430894
vertex -3.5983565586682 -63.3 12.3708915492182
endloop
endfacet
facet normal -1.0 -0.0 -0.0
outer loop
vertex -3.5983565586682 -65.7999999999999 4.00101856814044
vertex -3.5983565586682 -63.3 12.3708915492182
vertex -3.5983565586682 -64.5940952255126 4.50052068066358
endloop
endfacet
facet normal -1.0 -0.0 -0.0
outer loop
vertex -3.5983565586682 -64.5940952255126 4.50052068066358
vertex -3.5983565586682 -63.3 12.3708915492182
vertex -3.5983565586682 -63.3 4.67089154921824
endloop
endfacet
facet normal 0.0 0.258819045102521 0.965925826289068
outer loop
vertex 4.4016434413318 -64.5940952255126 -5.15873758222709
vertex -3.5983565586682 -63.3 -5.32910845078175
vertex -3.5983565586682 -64.5940952255126 -5.15873758222709
endloop
endfacet
facet normal 0.0 -2.85155516660701e-16 1.0
outer loop
vertex -3.5983565586682 -63.3 -5.32910845078175
vertex 4.4016434413318 -64.5940952255126 -5.15873758222709
vertex 4.4016434413318 -63.3 -5.32910845078175
endloop
endfacet
facet normal 0.0 -0.25881904510252 -0.965925826289069
outer loop
vertex 4.4016434413318 -62.0059047744873 4.50052068066359
vertex -3.5983565586682 -63.3 4.67089154921824
vertex -3.5983565586682 -62.0059047744873 4.50052068066359
endloop
endfacet
facet normal 0.0 2.67333296869407e-16 -1.0
outer loop
vertex -3.5983565586682 -63.3 4.67089154921824
vertex 4.4016434413318 -62.0059047744873 4.50052068066359
vertex 4.4016434413318 -63.3 4.67089154921824
endloop
endfacet
facet normal 0.0 0.500000000000001 -0.866025403784438
outer loop
vertex 4.4016434413318 -65.7999999999999 4.00101856814044
vertex -3.5983565586682 -66.8355339059327 3.20642545515098
vertex -3.5983565586682 -65.7999999999999 4.00101856814044
endloop
endfacet
facet normal 0.0 0.707106781186548 -0.707106781186547
outer loop
vertex -3.5983565586682 -66.8355339059327 3.20642545515098
vertex 4.4016434413318 -65.7999999999999 4.00101856814044
vertex 4.4016434413318 -66.8355339059327 3.20642545515098
endloop
endfacet
facet normal 0.0 -0.965925826289069 -0.25881904510252
outer loop
vertex 4.4016434413318 -75.5672579938711 -3.61611032358376
vertex -3.5983565586682 -74.2985226280623 -6.67910845078175
vertex 4.4016434413318 -74.2985226280623 -6.67910845078175
endloop
endfacet
facet normal 0.0 -0.866025403784439 -0.5
outer loop
vertex -3.5983565586682 -74.2985226280623 -6.67910845078175
vertex 4.4016434413318 -75.5672579938711 -3.61611032358376
vertex -3.5983565586682 -75.5672579938711 -3.61611032358376
endloop
endfacet
facet normal 0.0 -0.965925826289069 0.25881904510252
outer loop
vertex 4.4016434413318 -75.5672579938711 2.95789342202026
vertex -3.5983565586682 -75.9999999999999 -0.329108450781752
vertex 4.4016434413318 -75.9999999999999 -0.329108450781752
endloop
endfacet
facet normal 0.0 -1.0 -1.1584442864341e-16
outer loop
vertex -3.5983565586682 -75.9999999999999 -0.329108450781752
vertex 4.4016434413318 -75.5672579938711 2.95789342202026
vertex -3.5983565586682 -75.5672579938711 2.95789342202026
endloop
endfacet
facet normal 0.0 -0.5 -0.866025403784439
outer loop
vertex 4.4016434413318 -60.8 4.00101856814044
vertex -3.5983565586682 -62.0059047744873 4.50052068066359
vertex -3.5983565586682 -60.8 4.00101856814044
endloop
endfacet
facet normal 0.0 -0.25881904510252 -0.965925826289069
outer loop
vertex -3.5983565586682 -62.0059047744873 4.50052068066359
vertex 4.4016434413318 -60.8 4.00101856814044
vertex 4.4016434413318 -62.0059047744873 4.50052068066359
endloop
endfacet
facet normal 0.0 -0.707106781186547 -0.707106781186548
outer loop
vertex 4.4016434413318 -59.7644660940672 3.20642545515098
vertex -3.5983565586682 -60.8 4.00101856814044
vertex -3.5983565586682 -59.7644660940672 3.20642545515098
endloop
endfacet
facet normal 0.0 -0.5 -0.866025403784439
outer loop
vertex -3.5983565586682 -60.8 4.00101856814044
vertex 4.4016434413318 -59.7644660940672 3.20642545515098
vertex 4.4016434413318 -60.8 4.00101856814044
endloop
endfacet
facet normal 0.0 -0.5 0.866025403784439
outer loop
vertex 4.4016434413318 -60.7999999999999 -4.65923546970394
vertex -3.5983565586682 -59.7644660940672 -3.86464235671449
vertex -3.5983565586682 -60.7999999999999 -4.65923546970394
endloop
endfacet
facet normal 0.0 -0.707106781186548 0.707106781186547
outer loop
vertex -3.5983565586682 -59.7644660940672 -3.86464235671449
vertex 4.4016434413318 -60.7999999999999 -4.65923546970394
vertex 4.4016434413318 -59.7644660940672 -3.86464235671449
endloop
endfacet
facet normal 0.0 -0.25881904510252 0.965925826289068
outer loop
vertex 4.4016434413318 -62.0059047744873 -5.15873758222709
vertex -3.5983565586682 -60.7999999999999 -4.65923546970394
vertex -3.5983565586682 -62.0059047744873 -5.15873758222709
endloop
endfacet
facet normal 0.0 -0.5 0.866025403784439
outer loop
vertex -3.5983565586682 -60.7999999999999 -4.65923546970394
vertex 4.4016434413318 -62.0059047744873 -5.15873758222709
vertex 4.4016434413318 -60.7999999999999 -4.65923546970394
endloop
endfacet
facet normal -0.0 -1.0 -0.0
outer loop
vertex 4.4016434413318 -63.3 12.4708915492182
vertex -3.5983565586682 -63.3 12.3708915492182
vertex 4.4016434413318 -63.3 12.3708915492182
endloop
endfacet
facet normal -0.0 -1.0 -0.0
outer loop
vertex -3.5983565586682 -63.3 12.3708915492182
vertex 4.4016434413318 -63.3 12.4708915492182
vertex -3.5983565586682 -63.3 12.4708915492182
endloop
endfacet
facet normal 0.0 2.67333296869407e-16 -1.0
outer loop
vertex 4.4016434413318 -63.3 4.67089154921824
vertex -3.5983565586682 -64.5940952255126 4.50052068066358
vertex -3.5983565586682 -63.3 4.67089154921824
endloop
endfacet
facet normal 0.0 0.258819045102521 -0.965925826289068
outer loop
vertex -3.5983565586682 -64.5940952255126 4.50052068066358
vertex 4.4016434413318 -63.3 4.67089154921824
vertex 4.4016434413318 -64.5940952255126 4.50052068066358
endloop
endfacet
facet normal 0.0 1.0 -8.91110989564691e-17
outer loop
vertex -3.5983565586682 -68.2999999999999 -0.329108450781755
vertex 4.4016434413318 -68.1296291314453 -1.62320367629436
vertex -3.5983565586682 -68.1296291314453 -1.62320367629436
endloop
endfacet
facet normal 0.0 0.965925826289068 0.258819045102521
outer loop
vertex 4.4016434413318 -68.1296291314453 -1.62320367629436
vertex -3.5983565586682 -68.2999999999999 -0.329108450781755
vertex 4.4016434413318 -68.2999999999999 -0.329108450781755
endloop
endfacet
facet normal 0.0 0.965925826289068 -0.258819045102521
outer loop
vertex -3.5983565586682 -68.1296291314453 0.964986774730847
vertex 4.4016434413318 -68.2999999999999 -0.329108450781755
vertex -3.5983565586682 -68.2999999999999 -0.329108450781755
endloop
endfacet
facet normal 0.0 1.0 -8.91110989564691e-17
outer loop
vertex 4.4016434413318 -68.2999999999999 -0.329108450781755
vertex -3.5983565586682 -68.1296291314453 0.964986774730847
vertex 4.4016434413318 -68.1296291314453 0.964986774730847
endloop
endfacet
facet normal 0.0 0.866025403784439 -0.5
outer loop
vertex -3.5983565586682 -67.6301270189221 2.17089154921824
vertex 4.4016434413318 -68.1296291314453 0.964986774730847
vertex -3.5983565586682 -68.1296291314453 0.964986774730847
endloop
endfacet
facet normal 0.0 0.965925826289068 -0.258819045102521
outer loop
vertex 4.4016434413318 -68.1296291314453 0.964986774730847
vertex -3.5983565586682 -67.6301270189221 2.17089154921824
vertex 4.4016434413318 -67.6301270189221 2.17089154921824
endloop
endfacet
facet normal 0.0 -0.965925826289068 0.258819045102521
outer loop
vertex 4.4016434413318 -58.4703708685546 -1.62320367629436
vertex -3.5983565586682 -58.9698729810778 -2.82910845078175
vertex 4.4016434413318 -58.9698729810778 -2.82910845078175
endloop
endfacet
facet normal 0.0 -0.866025403784439 0.5
outer loop
vertex -3.5983565586682 -58.9698729810778 -2.82910845078175
vertex 4.4016434413318 -58.4703708685546 -1.62320367629436
vertex -3.5983565586682 -58.4703708685546 -1.62320367629436
endloop
endfacet
facet normal 0.0 -2.85155516660701e-16 1.0
outer loop
vertex 4.4016434413318 -63.3 -5.32910845078175
vertex -3.5983565586682 -62.0059047744873 -5.15873758222709
vertex -3.5983565586682 -63.3 -5.32910845078175
endloop
endfacet
facet normal 0.0 -0.25881904510252 0.965925826289068
outer loop
vertex -3.5983565586682 -62.0059047744873 -5.15873758222709
vertex 4.4016434413318 -63.3 -5.32910845078175
vertex 4.4016434413318 -62.0059047744873 -5.15873758222709
endloop
endfacet
facet normal 0.0 -1.0 2.13866637495526e-16
outer loop
vertex 4.4016434413318 -58.2999999999999 -0.329108450781755
vertex -3.5983565586682 -58.4703708685546 -1.62320367629436
vertex 4.4016434413318 -58.4703708685546 -1.62320367629436
endloop
endfacet
facet normal 0.0 -0.965925826289068 0.258819045102521
outer loop
vertex -3.5983565586682 -58.4703708685546 -1.62320367629436
vertex 4.4016434413318 -58.2999999999999 -0.329108450781755
vertex -3.5983565586682 -58.2999999999999 -0.329108450781755
endloop
endfacet
facet normal 0.0 -0.707106781186547 0.707106781186548
outer loop
vertex 4.4016434413318 -72.2802561210691 8.6511476702874
vertex -3.5983565586682 -69.6499999999999 10.6694141772806
vertex -3.5983565586682 -72.2802561210691 8.6511476702874
endloop
endfacet
facet normal 0.0 -0.5 0.866025403784439
outer loop
vertex -3.5983565586682 -69.6499999999999 10.6694141772806
vertex 4.4016434413318 -72.2802561210691 8.6511476702874
vertex 4.4016434413318 -69.6499999999999 10.6694141772806
endloop
endfacet
facet normal 0.0 -0.866025403784439 0.5
outer loop
vertex 4.4016434413318 -58.9698729810778 -2.82910845078175
vertex -3.5983565586682 -59.7644660940672 -3.86464235671449
vertex 4.4016434413318 -59.7644660940672 -3.86464235671449
endloop
endfacet
facet normal 0.0 -0.707106781186548 0.707106781186547
outer loop
vertex -3.5983565586682 -59.7644660940672 -3.86464235671449
vertex 4.4016434413318 -58.9698729810778 -2.82910845078175
vertex -3.5983565586682 -58.9698729810778 -2.82910845078175
endloop
endfacet
facet normal 0.0 -0.707106781186547 0.707106781186548
outer loop
vertex 4.4016434413318 -72.2802561210691 8.6511476702874
vertex -3.5983565586682 -74.2985226280623 6.02089154921825
vertex 4.4016434413318 -74.2985226280623 6.02089154921825
endloop
endfacet
facet normal 0.0 -0.866025403784439 0.5
outer loop
vertex -3.5983565586682 -74.2985226280623 6.02089154921825
vertex 4.4016434413318 -72.2802561210691 8.6511476702874
vertex -3.5983565586682 -72.2802561210691 8.6511476702874
endloop
endfacet
facet normal 0.0 0.707106781186548 -0.707106781186547
outer loop
vertex -3.5983565586682 -66.8355339059327 3.20642545515098
vertex 4.4016434413318 -67.6301270189221 2.17089154921824
vertex -3.5983565586682 -67.6301270189221 2.17089154921824
endloop
endfacet
facet normal 0.0 0.866025403784439 -0.5
outer loop
vertex 4.4016434413318 -67.6301270189221 2.17089154921824
vertex -3.5983565586682 -66.8355339059327 3.20642545515098
vertex 4.4016434413318 -66.8355339059327 3.20642545515098
endloop
endfacet
facet normal -0.0 1.0 -0.0
outer loop
vertex -5.37542094832283 0.0 -20.0613440912109
vertex 5.37542094832282 0.0 -20.0613440912109
vertex -1.25136012663063e-14 0.0 -20.7690316846412
endloop
endfacet
facet normal -0.0 1.0 -0.0
outer loop
vertex 5.37542094832282 0.0 -20.0613440912109
vertex -5.37542094832283 0.0 -20.0613440912109
vertex -10.3845158423206 0.0 -17.9865090509032
endloop
endfacet
facet normal -0.0 1.0 -0.0
outer loop
vertex 5.37542094832282 0.0 -20.0613440912109
vertex -10.3845158423206 0.0 -17.9865090509032
vertex 10.3845158423206 0.0 -17.9865090509032
endloop
endfacet
facet normal -0.0 1.0 -0.0
outer loop
vertex 10.3845158423206 0.0 -17.9865090509032
vertex -10.3845158423206 0.0 -17.9865090509032
vertex -14.6859231428881 0.0 -14.6859231428881
endloop
endfacet
facet normal -0.0 1.0 -0.0
outer loop
vertex 10.3845158423206 0.0 -17.9865090509032
vertex -14.6859231428881 0.0 -14.6859231428881
vertex 14.6859231428881 0.0 -14.6859231428881
endloop
endfacet
facet normal -0.0 1.0 -0.0
outer loop
vertex 14.6859231428881 0.0 -14.6859231428881
vertex -14.6859231428881 0.0 -14.6859231428881
vertex -2.51704039555545e-15 0.0 -13.002588688174
endloop
endfacet
facet normal -0.0 1.0 -0.0
outer loop
vertex -2.51704039555545e-15 0.0 -13.002588688174
vertex -14.6859231428881 0.0 -14.6859231428881
vertex -3.36531758813404 0.0 -12.5595362225214
endloop
endfacet
facet normal -0.0 1.0 -0.0
outer loop
vertex -3.36531758813404 0.0 -12.5595362225214
vertex -14.6859231428881 0.0 -14.6859231428881
vertex -17.9865090509032 0.0 -10.3845158423206
endloop
endfacet
facet normal -0.0 1.0 -0.0
outer loop
vertex -3.36531758813404 0.0 -12.5595362225214
vertex -17.9865090509032 0.0 -10.3845158423206
vertex -6.50129434408702 0.0 -11.2605721189189
endloop
endfacet
facet normal -0.0 1.0 -0.0
outer loop
vertex -6.50129434408702 0.0 -11.2605721189189
vertex -17.9865090509032 0.0 -10.3845158423206
vertex -9.19421863438736 0.0 -9.19421863438737
endloop
endfacet
facet normal -0.0 1.0 -0.0
outer loop
vertex -9.19421863438736 0.0 -9.19421863438737
vertex -17.9865090509032 0.0 -10.3845158423206
vertex -20.0613440912109 0.0 -5.37542094832286
endloop
endfacet
facet normal -0.0 1.0 -0.0
outer loop
vertex -9.19421863438736 0.0 -9.19421863438737
vertex -20.0613440912109 0.0 -5.37542094832286
vertex -11.2605721189189 0.0 -6.50129434408704
endloop
endfacet
facet normal -0.0 1.0 -0.0
outer loop
vertex -11.2605721189189 0.0 -6.50129434408704
vertex -20.0613440912109 0.0 -5.37542094832286
vertex -12.5595362225214 0.0 -3.36531758813404
endloop
endfacet
facet normal -0.0 1.0 -0.0
outer loop
vertex -12.5595362225214 0.0 -3.36531758813404
vertex -20.0613440912109 0.0 -5.37542094832286
vertex -20.7690316846412 0.0 1.9563517472676e-14
endloop
endfacet
facet normal -0.0 1.0 -0.0
outer loop
vertex -12.5595362225214 0.0 -3.36531758813404
vertex -20.7690316846412 0.0 1.9563517472676e-14
vertex -13.002588688174 0.0 1.5036149408898e-15
endloop
endfacet
facet normal -0.0 1.0 -0.0
outer loop
vertex -13.002588688174 0.0 1.5036149408898e-15
vertex -20.7690316846412 0.0 1.9563517472676e-14
vertex -12.5595362225214 0.0 3.36531758813407
endloop
endfacet
facet normal -0.0 1.0 -0.0
outer loop
vertex -12.5595362225214 0.0 3.36531758813407
vertex -20.7690316846412 0.0 1.9563517472676e-14
vertex -20.0613440912109 0.0 5.37542094832287
endloop
endfacet
facet normal -0.0 1.0 -0.0
outer loop
vertex -12.5595362225214 0.0 3.36531758813407
vertex -20.0613440912109 0.0 5.37542094832287
vertex -11.2605721189189 0.0 6.50129434408703
endloop
endfacet
facet normal -0.0 1.0 -0.0
outer loop
vertex -11.2605721189189 0.0 6.50129434408703
vertex -20.0613440912109 0.0 5.37542094832287
vertex -17.9865090509032 0.0 10.3845158423206
endloop
endfacet
facet normal -0.0 1.0 -0.0
outer loop
vertex -11.2605721189189 0.0 6.50129434408703
vertex -17.9865090509032 0.0 10.3845158423206
vertex -9.19421863438737 0.0 9.19421863438736
endloop
endfacet
facet normal -0.0 1.0 -0.0
outer loop
vertex -9.19421863438737 0.0 9.19421863438736
vertex -17.9865090509032 0.0 10.3845158423206
vertex -6.50129434408699 0.0 11.2605721189189
endloop
endfacet
facet normal -0.0 1.0 -0.0
outer loop
vertex -6.50129434408699 0.0 11.2605721189189
vertex -17.9865090509032 0.0 10.3845158423206
vertex -14.6859231428881 0.0 14.6859231428881
endloop
endfacet
facet normal -0.0 1.0 -0.0
outer loop
vertex -6.50129434408699 0.0 11.2605721189189
vertex -14.6859231428881 0.0 14.6859231428881
vertex -3.36531758813405 0.0 12.5595362225214
endloop
endfacet
facet normal -0.0 1.0 -0.0
outer loop
vertex -3.36531758813405 0.0 12.5595362225214
vertex -14.6859231428881 0.0 14.6859231428881
vertex 1.43201422941885e-14 0.0 13.002588688174
endloop
endfacet
facet normal -0.0 1.0 -0.0
outer loop
vertex 1.43201422941885e-14 0.0 13.002588688174
vertex -14.6859231428881 0.0 14.6859231428881
vertex 14.6859231428881 0.0 14.6859231428881
endloop
endfacet
facet normal -0.0 1.0 -0.0
outer loop
vertex 14.6859231428881 0.0 14.6859231428881
vertex -14.6859231428881 0.0 14.6859231428881
vertex 10.3845158423206 0.0 17.9865090509032
endloop
endfacet
facet normal -0.0 1.0 -0.0
outer loop
vertex 10.3845158423206 0.0 17.9865090509032
vertex -14.6859231428881 0.0 14.6859231428881
vertex -10.3845158423206 0.0 17.9865090509032
endloop
endfacet
facet normal -0.0 1.0 -0.0
outer loop
vertex 10.3845158423206 0.0 17.9865090509032
vertex -10.3845158423206 0.0 17.9865090509032
vertex 5.37542094832287 0.0 20.0613440912109
endloop
endfacet
facet normal -0.0 1.0 -0.0
outer loop
vertex 5.37542094832287 0.0 20.0613440912109
vertex -10.3845158423206 0.0 17.9865090509032
vertex -5.37542094832285 0.0 20.0613440912109
endloop
endfacet
facet normal -0.0 1.0 -0.0
outer loop
vertex 5.37542094832287 0.0 20.0613440912109
vertex -5.37542094832285 0.0 20.0613440912109
vertex 1.58623114643319e-14 0.0 20.7690316846412
endloop
endfacet
facet normal -0.0 1.0 -0.0
outer loop
vertex 14.6859231428881 0.0 -14.6859231428881
vertex 3.36531758813403 0.0 -12.5595362225214
vertex 17.9865090509032 0.0 -10.3845158423206
endloop
endfacet
facet normal -0.0 1.0 -0.0
outer loop
vertex 3.36531758813403 0.0 -12.5595362225214
vertex 14.6859231428881 0.0 -14.6859231428881
vertex -2.51704039555545e-15 0.0 -13.002588688174
endloop
endfacet
facet normal -0.0 1.0 -0.0
outer loop
vertex 17.9865090509032 0.0 -10.3845158423206
vertex 3.36531758813403 0.0 -12.5595362225214
vertex 6.50129434408701 0.0 -11.2605721189189
endloop
endfacet
facet normal -0.0 1.0 -0.0
outer loop
vertex 17.9865090509032 0.0 -10.3845158423206
vertex 6.50129434408701 0.0 -11.2605721189189
vertex 9.19421863438738 0.0 -9.19421863438735
endloop
endfacet
facet normal -0.0 1.0 -0.0
outer loop
vertex 17.9865090509032 0.0 -10.3845158423206
vertex 9.19421863438738 0.0 -9.19421863438735
vertex 20.0613440912109 0.0 -5.37542094832284
endloop
endfacet
facet normal -0.0 1.0 -0.0
outer loop
vertex 20.0613440912109 0.0 -5.37542094832284
vertex 9.19421863438738 0.0 -9.19421863438735
vertex 11.2605721189189 0.0 -6.50129434408701
endloop
endfacet
facet normal -0.0 1.0 -0.0
outer loop
vertex 20.0613440912109 0.0 -5.37542094832284
vertex 11.2605721189189 0.0 -6.50129434408701
vertex 12.5595362225214 0.0 -3.36531758813404
endloop
endfacet
facet normal -0.0 1.0 -0.0
outer loop
vertex 20.0613440912109 0.0 -5.37542094832284
vertex 12.5595362225214 0.0 -3.36531758813404
vertex 20.7690316846412 0.0 -1.33948407921025e-14
endloop
endfacet
facet normal -0.0 1.0 -0.0
outer loop
vertex 20.7690316846412 0.0 -1.33948407921025e-14
vertex 12.5595362225214 0.0 -3.36531758813404
vertex 13.002588688174 0.0 -1.35986274324429e-14
endloop
endfacet
facet normal -0.0 1.0 -0.0
outer loop
vertex 20.7690316846412 0.0 -1.33948407921025e-14
vertex 13.002588688174 0.0 -1.35986274324429e-14
vertex 12.5595362225214 0.0 3.36531758813405
endloop
endfacet
facet normal -0.0 1.0 -0.0
outer loop
vertex 20.7690316846412 0.0 -1.33948407921025e-14
vertex 12.5595362225214 0.0 3.36531758813405
vertex 20.0613440912109 0.0 5.37542094832284
endloop
endfacet
facet normal -0.0 1.0 -0.0
outer loop
vertex 20.0613440912109 0.0 5.37542094832284
vertex 12.5595362225214 0.0 3.36531758813405
vertex 11.2605721189189 0.0 6.50129434408703
endloop
endfacet
facet normal -0.0 1.0 -0.0
outer loop
vertex 20.0613440912109 0.0 5.37542094832284
vertex 11.2605721189189 0.0 6.50129434408703
vertex 17.9865090509032 0.0 10.3845158423206
endloop
endfacet
facet normal -0.0 1.0 -0.0
outer loop
vertex 17.9865090509032 0.0 10.3845158423206
vertex 11.2605721189189 0.0 6.50129434408703
vertex 9.19421863438737 0.0 9.19421863438736
endloop
endfacet
facet normal -0.0 1.0 -0.0
outer loop
vertex 17.9865090509032 0.0 10.3845158423206
vertex 9.19421863438737 0.0 9.19421863438736
vertex 6.50129434408701 0.0 11.2605721189189
endloop
endfacet
facet normal -0.0 1.0 -0.0
outer loop
vertex 17.9865090509032 0.0 10.3845158423206
vertex 6.50129434408701 0.0 11.2605721189189
vertex 14.6859231428881 0.0 14.6859231428881
endloop
endfacet
facet normal -0.0 1.0 -0.0
outer loop
vertex 14.6859231428881 0.0 14.6859231428881
vertex 6.50129434408701 0.0 11.2605721189189
vertex 3.36531758813406 0.0 12.5595362225214
endloop
endfacet
facet normal -0.0 1.0 -0.0
outer loop
vertex 14.6859231428881 0.0 14.6859231428881
vertex 3.36531758813406 0.0 12.5595362225214
vertex 1.43201422941885e-14 0.0 13.002588688174
endloop
endfacet
facet normal -0.0 -1.0 -0.0
outer loop
vertex 5.37542094832282 -50.0 -20.0613440912109
vertex -5.37542094832283 -50.0 -20.0613440912109
vertex -1.25136012663063e-14 -50.0 -20.7690316846412
endloop
endfacet
facet normal -0.0 -1.0 -0.0
outer loop
vertex -5.37542094832283 -50.0 -20.0613440912109
vertex 5.37542094832282 -50.0 -20.0613440912109
vertex -10.3845158423206 -50.0 -17.9865090509032
endloop
endfacet
facet normal -0.0 -1.0 -0.0
outer loop
vertex -10.3845158423206 -50.0 -17.9865090509032
vertex 5.37542094832282 -50.0 -20.0613440912109
vertex 10.3845158423206 -50.0 -17.9865090509032
endloop
endfacet
facet normal -0.0 -1.0 -0.0
outer loop
vertex -10.3845158423206 -50.0 -17.9865090509032
vertex 10.3845158423206 -50.0 -17.9865090509032
vertex -14.6859231428881 -50.0 -14.6859231428881
endloop
endfacet
facet normal -0.0 -1.0 -0.0
outer loop
vertex -14.6859231428881 -50.0 -14.6859231428881
vertex 10.3845158423206 -50.0 -17.9865090509032
vertex 14.6859231428881 -50.0 -14.6859231428881
endloop
endfacet
facet normal -0.0 -1.0 -0.0
outer loop
vertex -14.6859231428881 -50.0 -14.6859231428881
vertex 14.6859231428881 -50.0 -14.6859231428881
vertex -17.9865090509032 -50.0 -10.3845158423206
endloop
endfacet
facet normal -0.0 -1.0 -0.0
outer loop
vertex -17.9865090509032 -50.0 -10.3845158423206
vertex 14.6859231428881 -50.0 -14.6859231428881
vertex 17.9865090509032 -50.0 -10.3845158423206
endloop
endfacet
facet normal -0.0 -1.0 -0.0
outer loop
vertex -17.9865090509032 -50.0 -10.3845158423206
vertex 17.9865090509032 -50.0 -10.3845158423206
vertex -20.0613440912109 -50.0 -5.37542094832286
endloop
endfacet
facet normal -0.0 -1.0 -0.0
outer loop
vertex -20.0613440912109 -50.0 -5.37542094832286
vertex 17.9865090509032 -50.0 -10.3845158423206
vertex 20.0613440912109 -50.0 -5.37542094832284
endloop
endfacet
facet normal -0.0 -1.0 -0.0
outer loop
vertex -20.0613440912109 -50.0 -5.37542094832286
vertex 20.0613440912109 -50.0 -5.37542094832284
vertex -20.7690316846412 -50.0 1.9563517472676e-14
endloop
endfacet
facet normal -0.0 -1.0 -0.0
outer loop
vertex -20.7690316846412 -50.0 1.9563517472676e-14
vertex 20.0613440912109 -50.0 -5.37542094832284
vertex 20.7690316846412 -50.0 -1.33948407921025e-14
endloop
endfacet
facet normal -0.0 -1.0 -0.0
outer loop
vertex -20.7690316846412 -50.0 1.9563517472676e-14
vertex 20.7690316846412 -50.0 -1.33948407921025e-14
vertex 20.0613440912109 -50.0 5.37542094832284
endloop
endfacet
facet normal -0.0 -1.0 -0.0
outer loop
vertex -20.7690316846412 -50.0 1.9563517472676e-14
vertex 20.0613440912109 -50.0 5.37542094832284
vertex -20.0613440912109 -50.0 5.37542094832287
endloop
endfacet
facet normal -0.0 -1.0 -0.0
outer loop
vertex -20.0613440912109 -50.0 5.37542094832287
vertex 20.0613440912109 -50.0 5.37542094832284
vertex 17.9865090509032 -50.0 10.3845158423206
endloop
endfacet
facet normal -0.0 -1.0 -0.0
outer loop
vertex -20.0613440912109 -50.0 5.37542094832287
vertex 17.9865090509032 -50.0 10.3845158423206
vertex -17.9865090509032 -50.0 10.3845158423206
endloop
endfacet
facet normal -0.0 -1.0 -0.0
outer loop
vertex -17.9865090509032 -50.0 10.3845158423206
vertex 17.9865090509032 -50.0 10.3845158423206
vertex -14.6859231428881 -50.0 14.6859231428881
endloop
endfacet
facet normal -0.0 -1.0 -0.0
outer loop
vertex -14.6859231428881 -50.0 14.6859231428881
vertex 17.9865090509032 -50.0 10.3845158423206
vertex 14.6859231428881 -50.0 14.6859231428881
endloop
endfacet
facet normal -0.0 -1.0 -0.0
outer loop
vertex -14.6859231428881 -50.0 14.6859231428881
vertex 14.6859231428881 -50.0 14.6859231428881
vertex 10.3845158423206 -50.0 17.9865090509032
endloop
endfacet
facet normal -0.0 -1.0 -0.0
outer loop
vertex -14.6859231428881 -50.0 14.6859231428881
vertex 10.3845158423206 -50.0 17.9865090509032
vertex -10.3845158423206 -50.0 17.9865090509032
endloop
endfacet
facet normal -0.0 -1.0 -0.0
outer loop
vertex -10.3845158423206 -50.0 17.9865090509032
vertex 10.3845158423206 -50.0 17.9865090509032
vertex 5.37542094832287 -50.0 20.0613440912109
endloop
endfacet
facet normal -0.0 -1.0 -0.0
outer loop
vertex -10.3845158423206 -50.0 17.9865090509032
vertex 5.37542094832287 -50.0 20.0613440912109
vertex -5.37542094832285 -50.0 20.0613440912109
endloop
endfacet
facet normal -0.0 -1.0 -0.0
outer loop
vertex -5.37542094832285 -50.0 20.0613440912109
vertex 5.37542094832287 -50.0 20.0613440912109
vertex 1.58623114643319e-14 -50.0 20.7690316846412
endloop
endfacet
facet normal -0.793353340291235 0.0 0.60876142900872
outer loop
vertex -14.6859231428881 0.0 14.6859231428881
vertex -17.9865090509032 -50.0 10.3845158423206
vertex -14.6859231428881 -50.0 14.6859231428881
endloop
endfacet
facet normal -0.793353340291235 0.0 0.60876142900872
outer loop
vertex -17.9865090509032 -50.0 10.3845158423206
vertex -14.6859231428881 0.0 14.6859231428881
vertex -17.9865090509032 0.0 10.3845158423206
endloop
endfacet
facet normal -0.60876142900872 0.0 0.793353340291236
outer loop
vertex -10.3845158423206 -50.0 17.9865090509032
vertex -14.6859231428881 0.0 14.6859231428881
vertex -14.6859231428881 -50.0 14.6859231428881
endloop
endfacet
facet normal -0.60876142900872 0.0 0.793353340291236
outer loop
vertex -14.6859231428881 0.0 14.6859231428881
vertex -10.3845158423206 -50.0 17.9865090509032
vertex -10.3845158423206 0.0 17.9865090509032
endloop
endfacet
facet normal -0.38268343236509 0.0 0.923879532511287
outer loop
vertex -5.37542094832285 -50.0 20.0613440912109
vertex -10.3845158423206 0.0 17.9865090509032
vertex -10.3845158423206 -50.0 17.9865090509032
endloop
endfacet
facet normal -0.38268343236509 0.0 0.923879532511287
outer loop
vertex -10.3845158423206 0.0 17.9865090509032
vertex -5.37542094832285 -50.0 20.0613440912109
vertex -5.37542094832285 0.0 20.0613440912109
endloop
endfacet
facet normal -0.130526192220051 0.0 0.99144486137381
outer loop
vertex 1.58623114643319e-14 -50.0 20.7690316846412
vertex -5.37542094832285 0.0 20.0613440912109
vertex -5.37542094832285 -50.0 20.0613440912109
endloop
endfacet
facet normal -0.130526192220051 0.0 0.99144486137381
outer loop
vertex -5.37542094832285 0.0 20.0613440912109
vertex 1.58623114643319e-14 -50.0 20.7690316846412
vertex 1.58623114643319e-14 0.0 20.7690316846412
endloop
endfacet
facet normal 0.130526192220053 0.0 0.99144486137381
outer loop
vertex 5.37542094832287 -50.0 20.0613440912109
vertex 1.58623114643319e-14 0.0 20.7690316846412
vertex 1.58623114643319e-14 -50.0 20.7690316846412
endloop
endfacet
facet normal 0.130526192220053 0.0 0.99144486137381
outer loop
vertex 1.58623114643319e-14 0.0 20.7690316846412
vertex 5.37542094832287 -50.0 20.0613440912109
vertex 5.37542094832287 0.0 20.0613440912109
endloop
endfacet
facet normal 0.382683432365091 0.0 0.923879532511287
outer loop
vertex 10.3845158423206 -50.0 17.9865090509032
vertex 5.37542094832287 0.0 20.0613440912109
vertex 5.37542094832287 -50.0 20.0613440912109
endloop
endfacet
facet normal 0.382683432365091 0.0 0.923879532511287
outer loop
vertex 5.37542094832287 0.0 20.0613440912109
vertex 10.3845158423206 -50.0 17.9865090509032
vertex 10.3845158423206 0.0 17.9865090509032
endloop
endfacet
facet normal 0.608761429008721 0.0 0.793353340291235
outer loop
vertex 14.6859231428881 -50.0 14.6859231428881
vertex 10.3845158423206 0.0 17.9865090509032
vertex 10.3845158423206 -50.0 17.9865090509032
endloop
endfacet
facet normal 0.608761429008721 0.0 0.793353340291235
outer loop
vertex 10.3845158423206 0.0 17.9865090509032
vertex 14.6859231428881 -50.0 14.6859231428881
vertex 14.6859231428881 0.0 14.6859231428881
endloop
endfacet
facet normal 0.793353340291235 0.0 0.60876142900872
outer loop
vertex 17.9865090509032 0.0 10.3845158423206
vertex 14.6859231428881 -50.0 14.6859231428881
vertex 17.9865090509032 -50.0 10.3845158423206
endloop
endfacet
facet normal 0.793353340291235 0.0 0.60876142900872
outer loop
vertex 14.6859231428881 -50.0 14.6859231428881
vertex 17.9865090509032 0.0 10.3845158423206
vertex 14.6859231428881 0.0 14.6859231428881
endloop
endfacet
facet normal 0.923879532511287 0.0 0.38268343236509
outer loop
vertex 20.0613440912109 0.0 5.37542094832284
vertex 17.9865090509032 -50.0 10.3845158423206
vertex 20.0613440912109 -50.0 5.37542094832284
endloop
endfacet
facet normal 0.923879532511287 0.0 0.38268343236509
outer loop
vertex 17.9865090509032 -50.0 10.3845158423206
vertex 20.0613440912109 0.0 5.37542094832284
vertex 17.9865090509032 0.0 10.3845158423206
endloop
endfacet
facet normal 0.99144486137381 0.0 0.130526192220051
outer loop
vertex 20.7690316846412 0.0 -1.33948407921025e-14
vertex 20.0613440912109 -50.0 5.37542094832284
vertex 20.7690316846412 -50.0 -1.33948407921025e-14
endloop
endfacet
facet normal 0.99144486137381 0.0 0.130526192220051
outer loop
vertex 20.0613440912109 -50.0 5.37542094832284
vertex 20.7690316846412 0.0 -1.33948407921025e-14
vertex 20.0613440912109 0.0 5.37542094832284
endloop
endfacet
facet normal 0.99144486137381 0.0 -0.130526192220052
outer loop
vertex 20.0613440912109 0.0 -5.37542094832284
vertex 20.7690316846412 -50.0 -1.33948407921025e-14
vertex 20.0613440912109 -50.0 -5.37542094832284
endloop
endfacet
facet normal 0.99144486137381 0.0 -0.130526192220052
outer loop
vertex 20.7690316846412 -50.0 -1.33948407921025e-14
vertex 20.0613440912109 0.0 -5.37542094832284
vertex 20.7690316846412 0.0 -1.33948407921025e-14
endloop
endfacet
facet normal 0.923879532511287 0.0 -0.382683432365089
outer loop
vertex 17.9865090509032 0.0 -10.3845158423206
vertex 20.0613440912109 -50.0 -5.37542094832284
vertex 17.9865090509032 -50.0 -10.3845158423206
endloop
endfacet
facet normal 0.923879532511287 0.0 -0.382683432365089
outer loop
vertex 20.0613440912109 -50.0 -5.37542094832284
vertex 17.9865090509032 0.0 -10.3845158423206
vertex 20.0613440912109 0.0 -5.37542094832284
endloop
endfacet
facet normal 0.793353340291236 0.0 -0.60876142900872
outer loop
vertex 14.6859231428881 0.0 -14.6859231428881
vertex 17.9865090509032 -50.0 -10.3845158423206
vertex 14.6859231428881 -50.0 -14.6859231428881
endloop
endfacet
facet normal 0.793353340291236 0.0 -0.60876142900872
outer loop
vertex 17.9865090509032 -50.0 -10.3845158423206
vertex 14.6859231428881 0.0 -14.6859231428881
vertex 17.9865090509032 0.0 -10.3845158423206
endloop
endfacet
facet normal 0.608761429008722 0.0 -0.793353340291235
outer loop
vertex 14.6859231428881 0.0 -14.6859231428881
vertex 10.3845158423206 -50.0 -17.9865090509032
vertex 10.3845158423206 0.0 -17.9865090509032
endloop
endfacet
facet normal 0.608761429008722 0.0 -0.793353340291235
outer loop
vertex 10.3845158423206 -50.0 -17.9865090509032
vertex 14.6859231428881 0.0 -14.6859231428881
vertex 14.6859231428881 -50.0 -14.6859231428881
endloop
endfacet
facet normal 0.382683432365089 0.0 -0.923879532511287
outer loop
vertex 10.3845158423206 0.0 -17.9865090509032
vertex 5.37542094832282 -50.0 -20.0613440912109
vertex 5.37542094832282 0.0 -20.0613440912109
endloop
endfacet
facet normal 0.382683432365089 0.0 -0.923879532511287
outer loop
vertex 5.37542094832282 -50.0 -20.0613440912109
vertex 10.3845158423206 0.0 -17.9865090509032
vertex 10.3845158423206 -50.0 -17.9865090509032
endloop
endfacet
facet normal 0.130526192220051 0.0 -0.991444861373811
outer loop
vertex 5.37542094832282 0.0 -20.0613440912109
vertex -1.25136012663063e-14 -50.0 -20.7690316846412
vertex -1.25136012663063e-14 0.0 -20.7690316846412
endloop
endfacet
facet normal 0.130526192220051 0.0 -0.991444861373811
outer loop
vertex -1.25136012663063e-14 -50.0 -20.7690316846412
vertex 5.37542094832282 0.0 -20.0613440912109
vertex 5.37542094832282 -50.0 -20.0613440912109
endloop
endfacet
facet normal -0.130526192220051 -0.0 -0.99144486137381
outer loop
vertex -1.25136012663063e-14 0.0 -20.7690316846412
vertex -5.37542094832283 -50.0 -20.0613440912109
vertex -5.37542094832283 0.0 -20.0613440912109
endloop
endfacet
facet normal -0.130526192220051 -0.0 -0.99144486137381
outer loop
vertex -5.37542094832283 -50.0 -20.0613440912109
vertex -1.25136012663063e-14 0.0 -20.7690316846412
vertex -1.25136012663063e-14 -50.0 -20.7690316846412
endloop
endfacet
facet normal -0.38268343236509 -0.0 -0.923879532511287
outer loop
vertex -5.37542094832283 0.0 -20.0613440912109
vertex -10.3845158423206 -50.0 -17.9865090509032
vertex -10.3845158423206 0.0 -17.9865090509032
endloop
endfacet
facet normal -0.38268343236509 -0.0 -0.923879532511287
outer loop
vertex -10.3845158423206 -50.0 -17.9865090509032
vertex -5.37542094832283 0.0 -20.0613440912109
vertex -5.37542094832283 -50.0 -20.0613440912109
endloop
endfacet
facet normal -0.60876142900872 -0.0 -0.793353340291236
outer loop
vertex -10.3845158423206 0.0 -17.9865090509032
vertex -14.6859231428881 -50.0 -14.6859231428881
vertex -14.6859231428881 0.0 -14.6859231428881
endloop
endfacet
facet normal -0.60876142900872 -0.0 -0.793353340291236
outer loop
vertex -14.6859231428881 -50.0 -14.6859231428881
vertex -10.3845158423206 0.0 -17.9865090509032
vertex -10.3845158423206 -50.0 -17.9865090509032
endloop
endfacet
facet normal -0.793353340291235 -0.0 -0.608761429008721
outer loop
vertex -17.9865090509032 0.0 -10.3845158423206
vertex -14.6859231428881 -50.0 -14.6859231428881
vertex -17.9865090509032 -50.0 -10.3845158423206
endloop
endfacet
facet normal -0.793353340291235 -0.0 -0.608761429008721
outer loop
vertex -14.6859231428881 -50.0 -14.6859231428881
vertex -17.9865090509032 0.0 -10.3845158423206
vertex -14.6859231428881 0.0 -14.6859231428881
endloop
endfacet
facet normal -0.923879532511287 -0.0 -0.382683432365091
outer loop
vertex -20.0613440912109 0.0 -5.37542094832286
vertex -17.9865090509032 -50.0 -10.3845158423206
vertex -20.0613440912109 -50.0 -5.37542094832286
endloop
endfacet
facet normal -0.923879532511287 -0.0 -0.382683432365091
outer loop
vertex -17.9865090509032 -50.0 -10.3845158423206
vertex -20.0613440912109 0.0 -5.37542094832286
vertex -17.9865090509032 0.0 -10.3845158423206
endloop
endfacet
facet normal -0.99144486137381 -0.0 -0.130526192220051
outer loop
vertex -20.7690316846412 0.0 1.9563517472676e-14
vertex -20.0613440912109 -50.0 -5.37542094832286
vertex -20.7690316846412 -50.0 1.9563517472676e-14
endloop
endfacet
facet normal -0.99144486137381 -0.0 -0.130526192220051
outer loop
vertex -20.0613440912109 -50.0 -5.37542094832286
vertex -20.7690316846412 0.0 1.9563517472676e-14
vertex -20.0613440912109 0.0 -5.37542094832286
endloop
endfacet
facet normal -0.99144486137381 0.0 0.130526192220053
outer loop
vertex -20.0613440912109 0.0 5.37542094832287
vertex -20.7690316846412 -50.0 1.9563517472676e-14
vertex -20.0613440912109 -50.0 5.37542094832287
endloop
endfacet
facet normal -0.99144486137381 0.0 0.130526192220053
outer loop
vertex -20.7690316846412 -50.0 1.9563517472676e-14
vertex -20.0613440912109 0.0 5.37542094832287
vertex -20.7690316846412 0.0 1.9563517472676e-14
endloop
endfacet
facet normal -0.923879532511287 0.0 0.38268343236509
outer loop
vertex -17.9865090509032 0.0 10.3845158423206
vertex -20.0613440912109 -50.0 5.37542094832287
vertex -17.9865090509032 -50.0 10.3845158423206
endloop
endfacet
facet normal -0.923879532511287 0.0 0.38268343236509
outer loop
vertex -20.0613440912109 -50.0 5.37542094832287
vertex -17.9865090509032 0.0 10.3845158423206
vertex -20.0613440912109 0.0 5.37542094832287
endloop
endfacet
facet normal -0.0 1.0 -0.0
outer loop
vertex -3.28700187280202 -42.0 -12.2672579938712
vertex 3.28700187280201 -42.0 -12.2672579938712
vertex -7.77650717458569e-16 -42.0 -12.7
endloop
endfacet
facet normal -0.0 1.0 -0.0
outer loop
vertex 3.28700187280201 -42.0 -12.2672579938712
vertex -3.28700187280202 -42.0 -12.2672579938712
vertex 6.35 -42.0 -10.9985226280624
endloop
endfacet
facet normal -0.0 1.0 -0.0
outer loop
vertex 6.35 -42.0 -10.9985226280624
vertex -3.28700187280202 -42.0 -12.2672579938712
vertex -6.35 -42.0 -10.9985226280624
endloop
endfacet
facet normal -0.0 1.0 -0.0
outer loop
vertex 6.35 -42.0 -10.9985226280624
vertex -6.35 -42.0 -10.9985226280624
vertex 8.98025612106915 -42.0 -8.98025612106915
endloop
endfacet
facet normal -0.0 1.0 -0.0
outer loop
vertex 8.98025612106915 -42.0 -8.98025612106915
vertex -6.35 -42.0 -10.9985226280624
vertex -8.98025612106915 -42.0 -8.98025612106915
endloop
endfacet
facet normal -0.0 1.0 -0.0
outer loop
vertex 8.98025612106915 -42.0 -8.98025612106915
vertex -8.98025612106915 -42.0 -8.98025612106915
vertex 10.9985226280624 -42.0 -6.35
endloop
endfacet
facet normal -0.0 1.0 -0.0
outer loop
vertex 10.9985226280624 -42.0 -6.35
vertex -8.98025612106915 -42.0 -8.98025612106915
vertex -10.9985226280624 -42.0 -6.35
endloop
endfacet
facet normal -0.0 1.0 -0.0
outer loop
vertex 10.9985226280624 -42.0 -6.35
vertex -10.9985226280624 -42.0 -6.35
vertex 12.2672579938712 -42.0 -3.28700187280202
endloop
endfacet
facet normal -0.0 1.0 -0.0
outer loop
vertex 12.2672579938712 -42.0 -3.28700187280202
vertex -10.9985226280624 -42.0 -6.35
vertex -12.2672579938712 -42.0 -3.28700187280201
endloop
endfacet
facet normal -0.0 1.0 -0.0
outer loop
vertex 12.2672579938712 -42.0 -3.28700187280202
vertex -12.2672579938712 -42.0 -3.28700187280201
vertex 12.7 -42.0 -1.55530143491714e-15
endloop
endfacet
facet normal -0.0 1.0 -0.0
outer loop
vertex 12.7 -42.0 -1.55530143491714e-15
vertex -12.2672579938712 -42.0 -3.28700187280201
vertex -12.7 -42.0 0.0
endloop
endfacet
facet normal -0.0 1.0 -0.0
outer loop
vertex 12.7 -42.0 -1.55530143491714e-15
vertex -12.7 -42.0 0.0
vertex 12.2672579938712 -42.0 3.28700187280201
endloop
endfacet
facet normal -0.0 1.0 -0.0
outer loop
vertex 12.2672579938712 -42.0 3.28700187280201
vertex -12.7 -42.0 0.0
vertex -12.2672579938712 -42.0 3.28700187280202
endloop
endfacet
facet normal -0.0 1.0 -0.0
outer loop
vertex 12.2672579938712 -42.0 3.28700187280201
vertex -12.2672579938712 -42.0 3.28700187280202
vertex 10.9985226280624 -42.0 6.35
endloop
endfacet
facet normal -0.0 1.0 -0.0
outer loop
vertex 10.9985226280624 -42.0 6.35
vertex -12.2672579938712 -42.0 3.28700187280202
vertex -10.9985226280624 -42.0 6.35
endloop
endfacet
facet normal -0.0 1.0 -0.0
outer loop
vertex 10.9985226280624 -42.0 6.35
vertex -10.9985226280624 -42.0 6.35
vertex 8.98025612106916 -42.0 8.98025612106915
endloop
endfacet
facet normal -0.0 1.0 -0.0
outer loop
vertex 8.98025612106916 -42.0 8.98025612106915
vertex -10.9985226280624 -42.0 6.35
vertex -8.98025612106915 -42.0 8.98025612106916
endloop
endfacet
facet normal -0.0 1.0 -0.0
outer loop
vertex 8.98025612106916 -42.0 8.98025612106915
vertex -8.98025612106915 -42.0 8.98025612106916
vertex 6.35 -42.0 10.9985226280624
endloop
endfacet
facet normal -0.0 1.0 -0.0
outer loop
vertex 6.35 -42.0 10.9985226280624
vertex -8.98025612106915 -42.0 8.98025612106916
vertex -6.34999999999999 -42.0 10.9985226280624
endloop
endfacet
facet normal -0.0 1.0 -0.0
outer loop
vertex 6.35 -42.0 10.9985226280624
vertex -6.34999999999999 -42.0 10.9985226280624
vertex 3.28700187280202 -42.0 12.2672579938712
endloop
endfacet
facet normal -0.0 1.0 -0.0
outer loop
vertex 3.28700187280202 -42.0 12.2672579938712
vertex -6.34999999999999 -42.0 10.9985226280624
vertex -3.28700187280201 -42.0 12.2672579938712
endloop
endfacet
facet normal -0.0 1.0 -0.0
outer loop
vertex 3.28700187280202 -42.0 12.2672579938712
vertex -3.28700187280201 -42.0 12.2672579938712
vertex 2.33295215237571e-15 -42.0 12.7
endloop
endfacet
facet normal -0.0 1.0 -0.0
outer loop
vertex -3.36531758813404 -42.0 -12.5595362225214
vertex -7.77650717458569e-16 -42.0 -12.7
vertex -2.51704039555545e-15 -42.0 -13.002588688174
endloop
endfacet
facet normal -0.0 1.0 -0.0
outer loop
vertex -7.77650717458569e-16 -42.0 -12.7
vertex -3.36531758813404 -42.0 -12.5595362225214
vertex -3.28700187280202 -42.0 -12.2672579938712
endloop
endfacet
facet normal -0.0 1.0 -0.0
outer loop
vertex -3.28700187280202 -42.0 -12.2672579938712
vertex -3.36531758813404 -42.0 -12.5595362225214
vertex -6.50129434408702 -42.0 -11.2605721189189
endloop
endfacet
facet normal -0.0 1.0 -0.0
outer loop
vertex -3.28700187280202 -42.0 -12.2672579938712
vertex -6.50129434408702 -42.0 -11.2605721189189
vertex -6.35 -42.0 -10.9985226280624
endloop
endfacet
facet normal -0.0 1.0 -0.0
outer loop
vertex -6.35 -42.0 -10.9985226280624
vertex -6.50129434408702 -42.0 -11.2605721189189
vertex -9.19421863438736 -42.0 -9.19421863438737
endloop
endfacet
facet normal -0.0 1.0 -0.0
outer loop
vertex -6.35 -42.0 -10.9985226280624
vertex -9.19421863438736 -42.0 -9.19421863438737
vertex -8.98025612106915 -42.0 -8.98025612106915
endloop
endfacet
facet normal -0.0 1.0 -0.0
outer loop
vertex -8.98025612106915 -42.0 -8.98025612106915
vertex -9.19421863438736 -42.0 -9.19421863438737
vertex -11.2605721189189 -42.0 -6.50129434408704
endloop
endfacet
facet normal -0.0 1.0 -0.0
outer loop
vertex -8.98025612106915 -42.0 -8.98025612106915
vertex -11.2605721189189 -42.0 -6.50129434408704
vertex -10.9985226280624 -42.0 -6.35
endloop
endfacet
facet normal -0.0 1.0 -0.0
outer loop
vertex -10.9985226280624 -42.0 -6.35
vertex -11.2605721189189 -42.0 -6.50129434408704
vertex -12.5595362225214 -42.0 -3.36531758813404
endloop
endfacet
facet normal -0.0 1.0 -0.0
outer loop
vertex -10.9985226280624 -42.0 -6.35
vertex -12.5595362225214 -42.0 -3.36531758813404
vertex -12.2672579938712 -42.0 -3.28700187280201
endloop
endfacet
facet normal -0.0 1.0 -0.0
outer loop
vertex -12.2672579938712 -42.0 -3.28700187280201
vertex -12.5595362225214 -42.0 -3.36531758813404
vertex -13.002588688174 -42.0 1.5036149408898e-15
endloop
endfacet
facet normal -0.0 1.0 -0.0
outer loop
vertex -12.2672579938712 -42.0 -3.28700187280201
vertex -13.002588688174 -42.0 1.5036149408898e-15
vertex -12.7 -42.0 0.0
endloop
endfacet
facet normal -0.0 1.0 -0.0
outer loop
vertex -12.7 -42.0 0.0
vertex -13.002588688174 -42.0 1.5036149408898e-15
vertex -12.2672579938712 -42.0 3.28700187280202
endloop
endfacet
facet normal -0.0 1.0 -0.0
outer loop
vertex -12.2672579938712 -42.0 3.28700187280202
vertex -13.002588688174 -42.0 1.5036149408898e-15
vertex -12.5595362225214 -42.0 3.36531758813407
endloop
endfacet
facet normal -0.0 1.0 -0.0
outer loop
vertex -12.2672579938712 -42.0 3.28700187280202
vertex -12.5595362225214 -42.0 3.36531758813407
vertex -10.9985226280624 -42.0 6.35
endloop
endfacet
facet normal -0.0 1.0 -0.0
outer loop
vertex -10.9985226280624 -42.0 6.35
vertex -12.5595362225214 -42.0 3.36531758813407
vertex -11.2605721189189 -42.0 6.50129434408703
endloop
endfacet
facet normal -0.0 1.0 -0.0
outer loop
vertex -10.9985226280624 -42.0 6.35
vertex -11.2605721189189 -42.0 6.50129434408703
vertex -8.98025612106915 -42.0 8.98025612106916
endloop
endfacet
facet normal -0.0 1.0 -0.0
outer loop
vertex -8.98025612106915 -42.0 8.98025612106916
vertex -11.2605721189189 -42.0 6.50129434408703
vertex -9.19421863438737 -42.0 9.19421863438736
endloop
endfacet
facet normal -0.0 1.0 -0.0
outer loop
vertex -8.98025612106915 -42.0 8.98025612106916
vertex -9.19421863438737 -42.0 9.19421863438736
vertex -6.34999999999999 -42.0 10.9985226280624
endloop
endfacet
facet normal -0.0 1.0 -0.0
outer loop
vertex -6.34999999999999 -42.0 10.9985226280624
vertex -9.19421863438737 -42.0 9.19421863438736
vertex -6.50129434408699 -42.0 11.2605721189189
endloop
endfacet
facet normal -0.0 1.0 -0.0
outer loop
vertex -6.34999999999999 -42.0 10.9985226280624
vertex -6.50129434408699 -42.0 11.2605721189189
vertex -3.28700187280201 -42.0 12.2672579938712
endloop
endfacet
facet normal -0.0 1.0 -0.0
outer loop
vertex -3.28700187280201 -42.0 12.2672579938712
vertex -6.50129434408699 -42.0 11.2605721189189
vertex -3.36531758813405 -42.0 12.5595362225214
endloop
endfacet
facet normal -0.0 1.0 -0.0
outer loop
vertex -3.28700187280201 -42.0 12.2672579938712
vertex -3.36531758813405 -42.0 12.5595362225214
vertex 2.33295215237571e-15 -42.0 12.7
endloop
endfacet
facet normal -0.0 1.0 -0.0
outer loop
vertex 2.33295215237571e-15 -42.0 12.7
vertex -3.36531758813405 -42.0 12.5595362225214
vertex 1.43201422941885e-14 -42.0 13.002588688174
endloop
endfacet
facet normal -0.0 1.0 -0.0
outer loop
vertex -7.77650717458569e-16 -42.0 -12.7
vertex 3.36531758813403 -42.0 -12.5595362225214
vertex -2.51704039555545e-15 -42.0 -13.002588688174
endloop
endfacet
facet normal -0.0 1.0 -0.0
outer loop
vertex 3.36531758813403 -42.0 -12.5595362225214
vertex -7.77650717458569e-16 -42.0 -12.7
vertex 3.28700187280201 -42.0 -12.2672579938712
endloop
endfacet
facet normal -0.0 1.0 -0.0
outer loop
vertex 3.36531758813403 -42.0 -12.5595362225214
vertex 3.28700187280201 -42.0 -12.2672579938712
vertex 6.50129434408701 -42.0 -11.2605721189189
endloop
endfacet
facet normal -0.0 1.0 -0.0
outer loop
vertex 6.50129434408701 -42.0 -11.2605721189189
vertex 3.28700187280201 -42.0 -12.2672579938712
vertex 6.35 -42.0 -10.9985226280624
endloop
endfacet
facet normal -0.0 1.0 -0.0
outer loop
vertex 6.50129434408701 -42.0 -11.2605721189189
vertex 6.35 -42.0 -10.9985226280624
vertex 9.19421863438738 -42.0 -9.19421863438735
endloop
endfacet
facet normal -0.0 1.0 -0.0
outer loop
vertex 9.19421863438738 -42.0 -9.19421863438735
vertex 6.35 -42.0 -10.9985226280624
vertex 8.98025612106915 -42.0 -8.98025612106915
endloop
endfacet
facet normal -0.0 1.0 -0.0
outer loop
vertex 9.19421863438738 -42.0 -9.19421863438735
vertex 8.98025612106915 -42.0 -8.98025612106915
vertex 11.2605721189189 -42.0 -6.50129434408701
endloop
endfacet
facet normal -0.0 1.0 -0.0
outer loop
vertex 11.2605721189189 -42.0 -6.50129434408701
vertex 8.98025612106915 -42.0 -8.98025612106915
vertex 10.9985226280624 -42.0 -6.35
endloop
endfacet
facet normal -0.0 1.0 -0.0
outer loop
vertex 11.2605721189189 -42.0 -6.50129434408701
vertex 10.9985226280624 -42.0 -6.35
vertex 12.5595362225214 -42.0 -3.36531758813404
endloop
endfacet
facet normal -0.0 1.0 -0.0
outer loop
vertex 12.5595362225214 -42.0 -3.36531758813404
vertex 10.9985226280624 -42.0 -6.35
vertex 12.2672579938712 -42.0 -3.28700187280202
endloop
endfacet
facet normal -0.0 1.0 -0.0
outer loop
vertex 12.5595362225214 -42.0 -3.36531758813404
vertex 12.2672579938712 -42.0 -3.28700187280202
vertex 13.002588688174 -42.0 -1.35986274324429e-14
endloop
endfacet
facet normal -0.0 1.0 -0.0
outer loop
vertex 13.002588688174 -42.0 -1.35986274324429e-14
vertex 12.2672579938712 -42.0 -3.28700187280202
vertex 12.7 -42.0 -1.55530143491714e-15
endloop
endfacet
facet normal -0.0 1.0 -0.0
outer loop
vertex 13.002588688174 -42.0 -1.35986274324429e-14
vertex 12.7 -42.0 -1.55530143491714e-15
vertex 12.5595362225214 -42.0 3.36531758813405
endloop
endfacet
facet normal -0.0 1.0 -0.0
outer loop
vertex 12.5595362225214 -42.0 3.36531758813405
vertex 12.7 -42.0 -1.55530143491714e-15
vertex 12.2672579938712 -42.0 3.28700187280201
endloop
endfacet
facet normal -0.0 1.0 -0.0
outer loop
vertex 12.5595362225214 -42.0 3.36531758813405
vertex 12.2672579938712 -42.0 3.28700187280201
vertex 10.9985226280624 -42.0 6.35
endloop
endfacet
facet normal -0.0 1.0 -0.0
outer loop
vertex 12.5595362225214 -42.0 3.36531758813405
vertex 10.9985226280624 -42.0 6.35
vertex 11.2605721189189 -42.0 6.50129434408703
endloop
endfacet
facet normal -0.0 1.0 -0.0
outer loop
vertex 11.2605721189189 -42.0 6.50129434408703
vertex 10.9985226280624 -42.0 6.35
vertex 8.98025612106916 -42.0 8.98025612106915
endloop
endfacet
facet normal -0.0 1.0 -0.0
outer loop
vertex 11.2605721189189 -42.0 6.50129434408703
vertex 8.98025612106916 -42.0 8.98025612106915
vertex 9.19421863438737 -42.0 9.19421863438736
endloop
endfacet
facet normal -0.0 1.0 -0.0
outer loop
vertex 9.19421863438737 -42.0 9.19421863438736
vertex 8.98025612106916 -42.0 8.98025612106915
vertex 6.35 -42.0 10.9985226280624
endloop
endfacet
facet normal -0.0 1.0 -0.0
outer loop
vertex 9.19421863438737 -42.0 9.19421863438736
vertex 6.35 -42.0 10.9985226280624
vertex 6.50129434408701 -42.0 11.2605721189189
endloop
endfacet
facet normal -0.0 1.0 -0.0
outer loop
vertex 6.50129434408701 -42.0 11.2605721189189
vertex 6.35 -42.0 10.9985226280624
vertex 3.28700187280202 -42.0 12.2672579938712
endloop
endfacet
facet normal -0.0 1.0 -0.0
outer loop
vertex 6.50129434408701 -42.0 11.2605721189189
vertex 3.28700187280202 -42.0 12.2672579938712
vertex 3.36531758813406 -42.0 12.5595362225214
endloop
endfacet
facet normal -0.0 1.0 -0.0
outer loop
vertex 3.36531758813406 -42.0 12.5595362225214
vertex 3.28700187280202 -42.0 12.2672579938712
vertex 2.33295215237571e-15 -42.0 12.7
endloop
endfacet
facet normal -0.0 1.0 -0.0
outer loop
vertex 3.36531758813406 -42.0 12.5595362225214
vertex 2.33295215237571e-15 -42.0 12.7
vertex 1.43201422941885e-14 -42.0 13.002588688174
endloop
endfacet
facet normal 0.923879532511287 -0.0 -0.382683432365091
outer loop
vertex -12.5595362225214 0.0 3.36531758813407
vertex -11.2605721189189 -42.0 6.50129434408703
vertex -12.5595362225214 -42.0 3.36531758813407
endloop
endfacet
facet normal 0.923879532511287 -0.0 -0.382683432365091
outer loop
vertex -11.2605721189189 -42.0 6.50129434408703
vertex -12.5595362225214 0.0 3.36531758813407
vertex -11.2605721189189 0.0 6.50129434408703
endloop
endfacet
facet normal 0.793353340291235 -0.0 -0.60876142900872
outer loop
vertex -11.2605721189189 0.0 6.50129434408703
vertex -9.19421863438737 -42.0 9.19421863438736
vertex -11.2605721189189 -42.0 6.50129434408703
endloop
endfacet
facet normal 0.793353340291235 -0.0 -0.60876142900872
outer loop
vertex -9.19421863438737 -42.0 9.19421863438736
vertex -11.2605721189189 0.0 6.50129434408703
vertex -9.19421863438737 0.0 9.19421863438736
endloop
endfacet
facet normal 0.608761429008719 -0.0 -0.793353340291237
outer loop
vertex -6.50129434408699 0.0 11.2605721189189
vertex -9.19421863438737 -42.0 9.19421863438736
vertex -9.19421863438737 0.0 9.19421863438736
endloop
endfacet
facet normal 0.608761429008719 -0.0 -0.793353340291237
outer loop
vertex -9.19421863438737 -42.0 9.19421863438736
vertex -6.50129434408699 0.0 11.2605721189189
vertex -6.50129434408699 -42.0 11.2605721189189
endloop
endfacet
facet normal 0.38268343236509 -0.0 -0.923879532511287
outer loop
vertex -3.36531758813405 0.0 12.5595362225214
vertex -6.50129434408699 -42.0 11.2605721189189
vertex -6.50129434408699 0.0 11.2605721189189
endloop
endfacet
facet normal 0.38268343236509 -0.0 -0.923879532511287
outer loop
vertex -6.50129434408699 -42.0 11.2605721189189
vertex -3.36531758813405 0.0 12.5595362225214
vertex -3.36531758813405 -42.0 12.5595362225214
endloop
endfacet
facet normal 0.130526192220051 -0.0 -0.991444861373811
outer loop
vertex 1.43201422941885e-14 0.0 13.002588688174
vertex -3.36531758813405 -42.0 12.5595362225214
vertex -3.36531758813405 0.0 12.5595362225214
endloop
endfacet
facet normal 0.130526192220051 -0.0 -0.991444861373811
outer loop
vertex -3.36531758813405 -42.0 12.5595362225214
vertex 1.43201422941885e-14 0.0 13.002588688174
vertex 1.43201422941885e-14 -42.0 13.002588688174
endloop
endfacet
facet normal -0.130526192220053 -0.0 -0.99144486137381
outer loop
vertex 3.36531758813406 0.0 12.5595362225214
vertex 1.43201422941885e-14 -42.0 13.002588688174
vertex 1.43201422941885e-14 0.0 13.002588688174
endloop
endfacet
facet normal -0.130526192220053 -0.0 -0.99144486137381
outer loop
vertex 1.43201422941885e-14 -42.0 13.002588688174
vertex 3.36531758813406 0.0 12.5595362225214
vertex 3.36531758813406 -42.0 12.5595362225214
endloop
endfacet
facet normal -0.382683432365089 -0.0 -0.923879532511287
outer loop
vertex 6.50129434408701 0.0 11.2605721189189
vertex 3.36531758813406 -42.0 12.5595362225214
vertex 3.36531758813406 0.0 12.5595362225214
endloop
endfacet
facet normal -0.382683432365089 -0.0 -0.923879532511287
outer loop
vertex 3.36531758813406 -42.0 12.5595362225214
vertex 6.50129434408701 0.0 11.2605721189189
vertex 6.50129434408701 -42.0 11.2605721189189
endloop
endfacet
facet normal -0.608761429008721 -0.0 -0.793353340291235
outer loop
vertex 9.19421863438737 0.0 9.19421863438736
vertex 6.50129434408701 -42.0 11.2605721189189
vertex 6.50129434408701 0.0 11.2605721189189
endloop
endfacet
facet normal -0.608761429008721 -0.0 -0.793353340291235
outer loop
vertex 6.50129434408701 -42.0 11.2605721189189
vertex 9.19421863438737 0.0 9.19421863438736
vertex 9.19421863438737 -42.0 9.19421863438736
endloop
endfacet
facet normal -0.793353340291235 -0.0 -0.608761429008721
outer loop
vertex 9.19421863438737 0.0 9.19421863438736
vertex 11.2605721189189 -42.0 6.50129434408703
vertex 9.19421863438737 -42.0 9.19421863438736
endloop
endfacet
facet normal -0.793353340291235 -0.0 -0.608761429008721
outer loop
vertex 11.2605721189189 -42.0 6.50129434408703
vertex 9.19421863438737 0.0 9.19421863438736
vertex 11.2605721189189 0.0 6.50129434408703
endloop
endfacet
facet normal -0.923879532511287 -0.0 -0.38268343236509
outer loop
vertex 11.2605721189189 0.0 6.50129434408703
vertex 12.5595362225214 -42.0 3.36531758813405
vertex 11.2605721189189 -42.0 6.50129434408703
endloop
endfacet
facet normal -0.923879532511287 -0.0 -0.38268343236509
outer loop
vertex 12.5595362225214 -42.0 3.36531758813405
vertex 11.2605721189189 0.0 6.50129434408703
vertex 12.5595362225214 0.0 3.36531758813405
endloop
endfacet
facet normal -0.991444861373811 -0.0 -0.130526192220051
outer loop
vertex 12.5595362225214 0.0 3.36531758813405
vertex 13.002588688174 -42.0 -1.35986274324429e-14
vertex 12.5595362225214 -42.0 3.36531758813405
endloop
endfacet
facet normal -0.991444861373811 -0.0 -0.130526192220051
outer loop
vertex 13.002588688174 -42.0 -1.35986274324429e-14
vertex 12.5595362225214 0.0 3.36531758813405
vertex 13.002588688174 0.0 -1.35986274324429e-14
endloop
endfacet
facet normal -0.99144486137381 -0.0 0.130526192220052
outer loop
vertex 13.002588688174 0.0 -1.35986274324429e-14
vertex 12.5595362225214 -42.0 -3.36531758813404
vertex 13.002588688174 -42.0 -1.35986274324429e-14
endloop
endfacet
facet normal -0.99144486137381 -0.0 0.130526192220052
outer loop
vertex 12.5595362225214 -42.0 -3.36531758813404
vertex 13.002588688174 0.0 -1.35986274324429e-14
vertex 12.5595362225214 0.0 -3.36531758813404
endloop
endfacet
facet normal -0.923879532511288 -0.0 0.382683432365088
outer loop
vertex 12.5595362225214 0.0 -3.36531758813404
vertex 11.2605721189189 -42.0 -6.50129434408701
vertex 12.5595362225214 -42.0 -3.36531758813404
endloop
endfacet
facet normal -0.923879532511288 -0.0 0.382683432365088
outer loop
vertex 11.2605721189189 -42.0 -6.50129434408701
vertex 12.5595362225214 0.0 -3.36531758813404
vertex 11.2605721189189 0.0 -6.50129434408701
endloop
endfacet
facet normal -0.793353340291236 -0.0 0.60876142900872
outer loop
vertex 11.2605721189189 0.0 -6.50129434408701
vertex 9.19421863438738 -42.0 -9.19421863438735
vertex 11.2605721189189 -42.0 -6.50129434408701
endloop
endfacet
facet normal -0.793353340291236 -0.0 0.60876142900872
outer loop
vertex 9.19421863438738 -42.0 -9.19421863438735
vertex 11.2605721189189 0.0 -6.50129434408701
vertex 9.19421863438738 0.0 -9.19421863438735
endloop
endfacet
facet normal -0.60876142900872 -0.0 0.793353340291236
outer loop
vertex 9.19421863438738 -42.0 -9.19421863438735
vertex 6.50129434408701 0.0 -11.2605721189189
vertex 6.50129434408701 -42.0 -11.2605721189189
endloop
endfacet
facet normal -0.60876142900872 -0.0 0.793353340291236
outer loop
vertex 6.50129434408701 0.0 -11.2605721189189
vertex 9.19421863438738 -42.0 -9.19421863438735
vertex 9.19421863438738 0.0 -9.19421863438735
endloop
endfacet
facet normal -0.382683432365089 -0.0 0.923879532511287
outer loop
vertex 6.50129434408701 -42.0 -11.2605721189189
vertex 3.36531758813403 0.0 -12.5595362225214
vertex 3.36531758813403 -42.0 -12.5595362225214
endloop
endfacet
facet normal -0.382683432365089 -0.0 0.923879532511287
outer loop
vertex 3.36531758813403 0.0 -12.5595362225214
vertex 6.50129434408701 -42.0 -11.2605721189189
vertex 6.50129434408701 0.0 -11.2605721189189
endloop
endfacet
facet normal -0.130526192220051 -0.0 0.99144486137381
outer loop
vertex 3.36531758813403 -42.0 -12.5595362225214
vertex -2.51704039555545e-15 0.0 -13.002588688174
vertex -2.51704039555545e-15 -42.0 -13.002588688174
endloop
endfacet
facet normal -0.130526192220051 -0.0 0.99144486137381
outer loop
vertex -2.51704039555545e-15 0.0 -13.002588688174
vertex 3.36531758813403 -42.0 -12.5595362225214
vertex 3.36531758813403 0.0 -12.5595362225214
endloop
endfacet
facet normal 0.130526192220052 0.0 0.991444861373811
outer loop
vertex -2.51704039555545e-15 -42.0 -13.002588688174
vertex -3.36531758813404 0.0 -12.5595362225214
vertex -3.36531758813404 -42.0 -12.5595362225214
endloop
endfacet
facet normal 0.130526192220052 0.0 0.991444861373811
outer loop
vertex -3.36531758813404 0.0 -12.5595362225214
vertex -2.51704039555545e-15 -42.0 -13.002588688174
vertex -2.51704039555545e-15 0.0 -13.002588688174
endloop
endfacet
facet normal 0.382683432365089 0.0 0.923879532511287
outer loop
vertex -3.36531758813404 -42.0 -12.5595362225214
vertex -6.50129434408702 0.0 -11.2605721189189
vertex -6.50129434408702 -42.0 -11.2605721189189
endloop
endfacet
facet normal 0.382683432365089 0.0 0.923879532511287
outer loop
vertex -6.50129434408702 0.0 -11.2605721189189
vertex -3.36531758813404 -42.0 -12.5595362225214
vertex -3.36531758813404 0.0 -12.5595362225214
endloop
endfacet
facet normal 0.608761429008721 0.0 0.793353340291235
outer loop
vertex -6.50129434408702 -42.0 -11.2605721189189
vertex -9.19421863438736 0.0 -9.19421863438737
vertex -9.19421863438736 -42.0 -9.19421863438737
endloop
endfacet
facet normal 0.608761429008721 0.0 0.793353340291235
outer loop
vertex -9.19421863438736 0.0 -9.19421863438737
vertex -6.50129434408702 -42.0 -11.2605721189189
vertex -6.50129434408702 0.0 -11.2605721189189
endloop
endfacet
facet normal 0.793353340291234 0.0 0.608761429008722
outer loop
vertex -9.19421863438736 0.0 -9.19421863438737
vertex -11.2605721189189 -42.0 -6.50129434408704
vertex -9.19421863438736 -42.0 -9.19421863438737
endloop
endfacet
facet normal 0.793353340291234 0.0 0.608761429008722
outer loop
vertex -11.2605721189189 -42.0 -6.50129434408704
vertex -9.19421863438736 0.0 -9.19421863438737
vertex -11.2605721189189 0.0 -6.50129434408704
endloop
endfacet
facet normal 0.923879532511287 0.0 0.38268343236509
outer loop
vertex -11.2605721189189 0.0 -6.50129434408704
vertex -12.5595362225214 -42.0 -3.36531758813404
vertex -11.2605721189189 -42.0 -6.50129434408704
endloop
endfacet
facet normal 0.923879532511287 0.0 0.38268343236509
outer loop
vertex -12.5595362225214 -42.0 -3.36531758813404
vertex -11.2605721189189 0.0 -6.50129434408704
vertex -12.5595362225214 0.0 -3.36531758813404
endloop
endfacet
facet normal 0.991444861373811 0.0 0.130526192220051
outer loop
vertex -12.5595362225214 0.0 -3.36531758813404
vertex -13.002588688174 -42.0 1.5036149408898e-15
vertex -12.5595362225214 -42.0 -3.36531758813404
endloop
endfacet
facet normal 0.991444861373811 0.0 0.130526192220051
outer loop
vertex -13.002588688174 -42.0 1.5036149408898e-15
vertex -12.5595362225214 0.0 -3.36531758813404
vertex -13.002588688174 0.0 1.5036149408898e-15
endloop
endfacet
facet normal 0.99144486137381 -0.0 -0.130526192220053
outer loop
vertex -13.002588688174 0.0 1.5036149408898e-15
vertex -12.5595362225214 -42.0 3.36531758813407
vertex -13.002588688174 -42.0 1.5036149408898e-15
endloop
endfacet
facet normal 0.99144486137381 -0.0 -0.130526192220053
outer loop
vertex -12.5595362225214 -42.0 3.36531758813407
vertex -13.002588688174 0.0 1.5036149408898e-15
vertex -12.5595362225214 0.0 3.36531758813407
endloop
endfacet
endsolid mast-downtube-bracketA
