solid nokia_bracket
facet normal 0.0 0.0 -1.0
outer loop
vertex 59.0 10.8918887702399 0.0
vertex 0.0 0.0 0.0
vertex 0.0 10.8918887702399 0.0
endloop
endfacet
facet normal 0.0 0.0 -1.0
outer loop
vertex 0.0 0.0 0.0
vertex 59.0 10.8918887702399 0.0
vertex 59.0 0.0 0.0
endloop
endfacet
facet normal 0.0 0.0 -1.0
outer loop
vertex 0.0 80.0 0.0
vertex 19.5 65.6683942180696 0.0
vertex 0.0 15.6683942180696 0.0
endloop
endfacet
facet normal 0.0 0.0 -1.0
outer loop
vertex 19.5 65.6683942180696 0.0
vertex 0.0 80.0 0.0
vertex 59.0 80.0 0.0
endloop
endfacet
facet normal 0.0 0.0 -1.0
outer loop
vertex 19.5 65.6683942180696 0.0
vertex 59.0 80.0 0.0
vertex 39.5 65.6683942180696 0.0
endloop
endfacet
facet normal 0.0 0.0 -1.0
outer loop
vertex 39.5 65.6683942180696 0.0
vertex 59.0 80.0 0.0
vertex 39.5 15.6683942180696 0.0
endloop
endfacet
facet normal 0.0 0.0 -1.0
outer loop
vertex 39.5 15.6683942180696 0.0
vertex 59.0 80.0 0.0
vertex 59.0 15.6683942180696 0.0
endloop
endfacet
facet normal 0.0 0.0 -1.0
outer loop
vertex 19.5 15.6683942180696 0.0
vertex 0.0 15.6683942180696 0.0
vertex 19.5 65.6683942180696 0.0
endloop
endfacet
facet normal -0.0 -0.0 1.0
outer loop
vertex 59.0 15.6683942180696 11.0
vertex 39.5 65.6683942180696 11.0
vertex 39.5 15.6683942180696 11.0
endloop
endfacet
facet normal -0.0 -0.0 1.0
outer loop
vertex 19.5 15.6683942180696 11.0
vertex 0.0 75.0 11.0
vertex 0.0 15.6683942180696 11.0
endloop
endfacet
facet normal -0.0 -0.0 1.0
outer loop
vertex 0.0 75.0 11.0
vertex 19.5 15.6683942180696 11.0
vertex 19.5 65.6683942180696 11.0
endloop
endfacet
facet normal -0.0 -0.0 1.0
outer loop
vertex 0.0 75.0 11.0
vertex 19.5 65.6683942180696 11.0
vertex 59.0 75.0 11.0
endloop
endfacet
facet normal -0.0 -0.0 1.0
outer loop
vertex 59.0 75.0 11.0
vertex 19.5 65.6683942180696 11.0
vertex 39.5 65.6683942180696 11.0
endloop
endfacet
facet normal -0.0 -0.0 1.0
outer loop
vertex 59.0 75.0 11.0
vertex 39.5 65.6683942180696 11.0
vertex 59.0 15.6683942180696 11.0
endloop
endfacet
facet normal -0.0 -1.0 -0.0
outer loop
vertex 39.5 65.6683942180696 11.0
vertex 19.5 65.6683942180696 0.0
vertex 39.5 65.6683942180696 0.0
endloop
endfacet
facet normal -0.0 -1.0 -0.0
outer loop
vertex 19.5 65.6683942180696 0.0
vertex 39.5 65.6683942180696 11.0
vertex 19.5 65.6683942180696 11.0
endloop
endfacet
facet normal 1.0 0.0 0.0
outer loop
vertex 19.5 65.6683942180696 0.0
vertex 19.5 15.6683942180696 11.0
vertex 19.5 15.6683942180696 0.0
endloop
endfacet
facet normal 1.0 0.0 0.0
outer loop
vertex 19.5 15.6683942180696 11.0
vertex 19.5 65.6683942180696 0.0
vertex 19.5 65.6683942180696 11.0
endloop
endfacet
facet normal -0.0 -1.0 -0.0
outer loop
vertex 19.5 15.6683942180696 11.0
vertex 0.0 15.6683942180696 0.0
vertex 19.5 15.6683942180696 0.0
endloop
endfacet
facet normal -0.0 -1.0 -0.0
outer loop
vertex 0.0 15.6683942180696 0.0
vertex 19.5 15.6683942180696 11.0
vertex 0.0 15.6683942180696 11.0
endloop
endfacet
facet normal -1.0 2.0413876846165e-16 6.58145557073167e-16
outer loop
vertex 2.8199664825479e-14 75.5173560353376 15.5693302127461
vertex 0.0 75.0 11.0
vertex 2.8199664825479e-14 75.0 15.0270392704341
endloop
endfacet
facet normal -1.0 2.0413876846165e-16 6.58145557073167e-16
outer loop
vertex 0.0 80.0 24.0
vertex 2.8199664825479e-14 75.0 23.0270392704341
vertex 0.0 75.0 24.0
endloop
endfacet
facet normal -1.0 2.0413876846165e-16 6.58145557073167e-16
outer loop
vertex 2.8199664825479e-14 75.0 23.0270392704341
vertex 0.0 80.0 24.0
vertex 2.8199664825479e-14 75.5173560353376 22.4847483281221
endloop
endfacet
facet normal -1.0 2.0413876846165e-16 6.58145557073167e-16
outer loop
vertex 2.8199664825479e-14 75.5173560353376 22.4847483281221
vertex 0.0 80.0 24.0
vertex 2.8199664825479e-14 75.9548771599918 21.8762156676221
endloop
endfacet
facet normal -1.0 2.0413876846165e-16 6.58145557073167e-16
outer loop
vertex 2.8199664825479e-14 75.9548771599918 21.8762156676221
vertex 0.0 80.0 24.0
vertex 2.8199664825479e-14 76.3041814798942 21.21309936899
endloop
endfacet
facet normal -1.0 2.0413876846165e-16 6.58145557073167e-16
outer loop
vertex 2.8199664825479e-14 76.3041814798942 21.21309936899
vertex 0.0 80.0 24.0
vertex 3.94795307556706e-14 76.7225906067441 21.0014744221006
endloop
endfacet
facet normal -1.0 2.0413876846165e-16 6.58145557073167e-16
outer loop
vertex 3.94795307556706e-14 76.7225906067441 21.0014744221006
vertex 0.0 80.0 24.0
vertex 3.94795307556706e-14 77.0904822505367 20.7107734520218
endloop
endfacet
facet normal -1.0 2.0413876846165e-16 6.58145557073167e-16
outer loop
vertex 3.94795307556706e-14 77.0904822505367 20.7107734520218
vertex 0.0 80.0 24.0
vertex 3.94795307556706e-14 77.3931223704346 20.3526390171996
endloop
endfacet
facet normal -1.0 2.0413876846165e-16 6.58145557073167e-16
outer loop
vertex 3.94795307556706e-14 77.3931223704346 20.3526390171996
vertex 0.0 80.0 24.0
vertex 3.94795307556706e-14 77.6183902456742 19.9414143827693
endloop
endfacet
facet normal -1.0 2.0413876846165e-16 6.58145557073167e-16
outer loop
vertex 3.94795307556706e-14 77.6183902456742 19.9414143827693
vertex 0.0 80.0 24.0
vertex 3.94795307556706e-14 77.7572639097901 19.4935690735472
endloop
endfacet
facet normal -1.0 2.0413876846165e-16 6.58145557073167e-16
outer loop
vertex 3.94795307556706e-14 77.7572639097901 19.4935690735472
vertex 0.0 80.0 24.0
vertex 3.94795307556706e-14 77.8041814798942 19.0270392704341
endloop
endfacet
facet normal -1.0 2.0413876846165e-16 6.58145557073167e-16
outer loop
vertex 0.0 75.0 11.0
vertex 0.0 15.6683942180696 0.0
vertex 0.0 15.6683942180696 11.0
endloop
endfacet
facet normal -1.0 2.0413876846165e-16 6.58145557073167e-16
outer loop
vertex 0.0 15.6683942180696 0.0
vertex 0.0 75.0 11.0
vertex 0.0 80.0 0.0
endloop
endfacet
facet normal -1.0 2.0413876846165e-16 6.58145557073167e-16
outer loop
vertex 0.0 80.0 0.0
vertex 0.0 75.0 11.0
vertex 2.8199664825479e-14 75.5173560353376 15.5693302127461
endloop
endfacet
facet normal -1.0 2.0413876846165e-16 6.58145557073167e-16
outer loop
vertex 0.0 80.0 0.0
vertex 2.8199664825479e-14 75.5173560353376 15.5693302127461
vertex 2.8199664825479e-14 75.9548771599918 16.1778628732461
endloop
endfacet
facet normal -1.0 2.0413876846165e-16 6.58145557073167e-16
outer loop
vertex 0.0 80.0 0.0
vertex 2.8199664825479e-14 75.9548771599918 16.1778628732461
vertex 2.8199664825479e-14 76.3041814798942 16.8409791718782
endloop
endfacet
facet normal -1.0 2.0413876846165e-16 6.58145557073167e-16
outer loop
vertex 0.0 80.0 0.0
vertex 2.8199664825479e-14 76.3041814798942 16.8409791718782
vertex 3.94795307556706e-14 76.7225906067441 17.0526041187676
endloop
endfacet
facet normal -1.0 2.0413876846165e-16 6.58145557073167e-16
outer loop
vertex 0.0 80.0 0.0
vertex 3.94795307556706e-14 76.7225906067441 17.0526041187676
vertex 3.94795307556706e-14 77.0904822505367 17.3433050888465
endloop
endfacet
facet normal -1.0 2.0413876846165e-16 6.58145557073167e-16
outer loop
vertex 0.0 80.0 0.0
vertex 3.94795307556706e-14 77.0904822505367 17.3433050888465
vertex 3.94795307556706e-14 77.3931223704346 17.7014395236687
endloop
endfacet
facet normal -1.0 2.0413876846165e-16 6.58145557073167e-16
outer loop
vertex 0.0 80.0 0.0
vertex 3.94795307556706e-14 77.3931223704346 17.7014395236687
vertex 3.94795307556706e-14 77.6183902456742 18.1126641580989
endloop
endfacet
facet normal -1.0 2.0413876846165e-16 6.58145557073167e-16
outer loop
vertex 0.0 80.0 0.0
vertex 3.94795307556706e-14 77.6183902456742 18.1126641580989
vertex 3.94795307556706e-14 77.7572639097901 18.560509467321
endloop
endfacet
facet normal -1.0 2.0413876846165e-16 6.58145557073167e-16
outer loop
vertex 0.0 80.0 0.0
vertex 3.94795307556706e-14 77.7572639097901 18.560509467321
vertex 3.94795307556706e-14 77.8041814798942 19.0270392704341
endloop
endfacet
facet normal -1.0 2.0413876846165e-16 6.58145557073167e-16
outer loop
vertex 0.0 80.0 0.0
vertex 3.94795307556706e-14 77.8041814798942 19.0270392704341
vertex 0.0 80.0 24.0
endloop
endfacet
facet normal -0.0 1.0 -0.0
outer loop
vertex 0.0 80.0 24.0
vertex 59.0 80.0 0.0
vertex 0.0 80.0 0.0
endloop
endfacet
facet normal -0.0 1.0 -0.0
outer loop
vertex 59.0 80.0 0.0
vertex 0.0 80.0 24.0
vertex 59.0 80.0 24.0
endloop
endfacet
facet normal 1.0 -0.0 -0.0
outer loop
vertex 59.0 15.6683942180696 0.0
vertex 59.0 55.2311204612319 2.41144828287848
vertex 59.0 15.6683942180696 11.0
endloop
endfacet
facet normal 1.0 -0.0 -0.0
outer loop
vertex 59.0 55.2311204612319 2.41144828287848
vertex 59.0 15.6683942180696 0.0
vertex 59.0 56.0075775965394 2.30922576174568
endloop
endfacet
facet normal 1.0 -0.0 -0.0
outer loop
vertex 59.0 56.0075775965394 2.30922576174568
vertex 59.0 15.6683942180696 0.0
vertex 59.0 80.0 0.0
endloop
endfacet
facet normal 1.0 -0.0 -0.0
outer loop
vertex 59.0 15.6683942180696 11.0
vertex 59.0 55.2311204612319 2.41144828287848
vertex 59.0 54.5075775965394 2.71114955039237
endloop
endfacet
facet normal 1.0 -0.0 -0.0
outer loop
vertex 59.0 15.6683942180696 11.0
vertex 59.0 54.5075775965394 2.71114955039237
vertex 59.0 53.8862572529798 3.18790541818604
endloop
endfacet
facet normal 1.0 -0.0 -0.0
outer loop
vertex 59.0 15.6683942180696 11.0
vertex 59.0 53.8862572529798 3.18790541818604
vertex 59.0 53.4095013851861 3.80922576174568
endloop
endfacet
facet normal 1.0 -0.0 -0.0
outer loop
vertex 59.0 15.6683942180696 11.0
vertex 59.0 53.4095013851861 3.80922576174568
vertex 59.0 53.1098001176722 4.53276862643812
endloop
endfacet
facet normal 1.0 -0.0 -0.0
outer loop
vertex 59.0 15.6683942180696 11.0
vertex 59.0 53.1098001176722 4.53276862643812
vertex 59.0 53.0075775965394 5.30922576174568
endloop
endfacet
facet normal 1.0 -0.0 -0.0
outer loop
vertex 59.0 56.0075775965394 2.30922576174568
vertex 59.0 80.0 0.0
vertex 59.0 56.784034731847 2.41144828287848
endloop
endfacet
facet normal 1.0 -0.0 -0.0
outer loop
vertex 59.0 56.784034731847 2.41144828287848
vertex 59.0 80.0 0.0
vertex 59.0 57.5075775965394 2.71114955039237
endloop
endfacet
facet normal 1.0 -0.0 -0.0
outer loop
vertex 59.0 57.5075775965394 2.71114955039237
vertex 59.0 80.0 0.0
vertex 59.0 58.128897940099 3.18790541818604
endloop
endfacet
facet normal 1.0 -0.0 -0.0
outer loop
vertex 59.0 58.128897940099 3.18790541818604
vertex 59.0 80.0 0.0
vertex 59.0 58.6056538078927 3.80922576174568
endloop
endfacet
facet normal 1.0 -0.0 -0.0
outer loop
vertex 59.0 58.6056538078927 3.80922576174568
vertex 59.0 80.0 0.0
vertex 59.0 58.9053550754066 4.53276862643812
endloop
endfacet
facet normal 1.0 -0.0 -0.0
outer loop
vertex 59.0 58.9053550754066 4.53276862643812
vertex 59.0 80.0 0.0
vertex 59.0 59.0075775965394 5.30922576174568
endloop
endfacet
facet normal 1.0 -0.0 -0.0
outer loop
vertex 59.0 59.0075775965394 5.30922576174568
vertex 59.0 80.0 0.0
vertex 59.0 75.0 11.0
endloop
endfacet
facet normal 1.0 -0.0 -0.0
outer loop
vertex 59.0 75.0 11.0
vertex 59.0 80.0 0.0
vertex 59.0 75.0 15.0270392704341
endloop
endfacet
facet normal 1.0 -0.0 -0.0
outer loop
vertex 59.0 75.0 15.0270392704341
vertex 59.0 80.0 0.0
vertex 59.0 75.5173560353376 15.5693302127461
endloop
endfacet
facet normal 1.0 -0.0 -0.0
outer loop
vertex 59.0 75.5173560353376 15.5693302127461
vertex 59.0 80.0 0.0
vertex 59.0 75.9548771599918 16.1778628732461
endloop
endfacet
facet normal 1.0 -0.0 -0.0
outer loop
vertex 59.0 75.9548771599918 16.1778628732461
vertex 59.0 80.0 0.0
vertex 59.0 76.3041814798942 16.8409791718782
endloop
endfacet
facet normal 1.0 -0.0 -0.0
outer loop
vertex 59.0 76.3041814798942 16.8409791718782
vertex 59.0 80.0 0.0
vertex 59.0 76.7225906067441 17.0526041187676
endloop
endfacet
facet normal 1.0 -0.0 -0.0
outer loop
vertex 59.0 76.7225906067441 17.0526041187676
vertex 59.0 80.0 0.0
vertex 59.0 77.0904822505367 17.3433050888465
endloop
endfacet
facet normal 1.0 -0.0 -0.0
outer loop
vertex 59.0 77.0904822505367 17.3433050888465
vertex 59.0 80.0 0.0
vertex 59.0 77.3931223704346 17.7014395236687
endloop
endfacet
facet normal 1.0 -0.0 -0.0
outer loop
vertex 59.0 77.3931223704346 17.7014395236687
vertex 59.0 80.0 0.0
vertex 59.0 77.6183902456742 18.1126641580989
endloop
endfacet
facet normal 1.0 -0.0 -0.0
outer loop
vertex 59.0 77.6183902456742 18.1126641580989
vertex 59.0 80.0 0.0
vertex 59.0 77.7572639097901 18.560509467321
endloop
endfacet
facet normal 1.0 -0.0 -0.0
outer loop
vertex 59.0 77.7572639097901 18.560509467321
vertex 59.0 80.0 0.0
vertex 59.0 77.8041814798942 19.0270392704341
endloop
endfacet
facet normal 1.0 -0.0 -0.0
outer loop
vertex 59.0 75.5173560353376 22.4847483281221
vertex 59.0 75.0 24.0
vertex 59.0 75.0 23.0270392704341
endloop
endfacet
facet normal 1.0 -0.0 -0.0
outer loop
vertex 59.0 75.0 24.0
vertex 59.0 75.5173560353376 22.4847483281221
vertex 59.0 80.0 24.0
endloop
endfacet
facet normal 1.0 -0.0 -0.0
outer loop
vertex 59.0 80.0 24.0
vertex 59.0 75.5173560353376 22.4847483281221
vertex 59.0 75.9548771599918 21.8762156676221
endloop
endfacet
facet normal 1.0 -0.0 -0.0
outer loop
vertex 59.0 80.0 24.0
vertex 59.0 75.9548771599918 21.8762156676221
vertex 59.0 76.3041814798942 21.21309936899
endloop
endfacet
facet normal 1.0 -0.0 -0.0
outer loop
vertex 59.0 80.0 24.0
vertex 59.0 76.3041814798942 21.21309936899
vertex 59.0 76.7225906067441 21.0014744221006
endloop
endfacet
facet normal 1.0 -0.0 -0.0
outer loop
vertex 59.0 80.0 24.0
vertex 59.0 76.7225906067441 21.0014744221006
vertex 59.0 77.0904822505367 20.7107734520218
endloop
endfacet
facet normal 1.0 -0.0 -0.0
outer loop
vertex 59.0 80.0 24.0
vertex 59.0 77.0904822505367 20.7107734520218
vertex 59.0 77.3931223704346 20.3526390171996
endloop
endfacet
facet normal 1.0 -0.0 -0.0
outer loop
vertex 59.0 80.0 24.0
vertex 59.0 77.3931223704346 20.3526390171996
vertex 59.0 77.6183902456742 19.9414143827693
endloop
endfacet
facet normal 1.0 -0.0 -0.0
outer loop
vertex 59.0 80.0 24.0
vertex 59.0 77.6183902456742 19.9414143827693
vertex 59.0 77.7572639097901 19.4935690735472
endloop
endfacet
facet normal 1.0 -0.0 -0.0
outer loop
vertex 59.0 80.0 24.0
vertex 59.0 77.7572639097901 19.4935690735472
vertex 59.0 77.8041814798942 19.0270392704341
endloop
endfacet
facet normal 1.0 -0.0 -0.0
outer loop
vertex 59.0 80.0 24.0
vertex 59.0 77.8041814798942 19.0270392704341
vertex 59.0 80.0 0.0
endloop
endfacet
facet normal 1.0 -0.0 -0.0
outer loop
vertex 59.0 15.6683942180696 11.0
vertex 59.0 55.2311204612318 8.20700324061288
vertex 59.0 75.0 11.0
endloop
endfacet
facet normal 1.0 -0.0 -0.0
outer loop
vertex 59.0 55.2311204612318 8.20700324061288
vertex 59.0 15.6683942180696 11.0
vertex 59.0 54.5075775965394 7.90730197309899
endloop
endfacet
facet normal 1.0 -0.0 -0.0
outer loop
vertex 59.0 54.5075775965394 7.90730197309899
vertex 59.0 15.6683942180696 11.0
vertex 59.0 53.8862572529798 7.43054610530532
endloop
endfacet
facet normal 1.0 -0.0 -0.0
outer loop
vertex 59.0 53.8862572529798 7.43054610530532
vertex 59.0 15.6683942180696 11.0
vertex 59.0 53.4095013851861 6.80922576174568
endloop
endfacet
facet normal 1.0 -0.0 -0.0
outer loop
vertex 59.0 53.4095013851861 6.80922576174568
vertex 59.0 15.6683942180696 11.0
vertex 59.0 53.1098001176722 6.08568289705324
endloop
endfacet
facet normal 1.0 -0.0 -0.0
outer loop
vertex 59.0 53.1098001176722 6.08568289705324
vertex 59.0 15.6683942180696 11.0
vertex 59.0 53.0075775965394 5.30922576174568
endloop
endfacet
facet normal 1.0 -0.0 -0.0
outer loop
vertex 59.0 75.0 11.0
vertex 59.0 55.2311204612318 8.20700324061288
vertex 59.0 56.0075775965394 8.30922576174567
endloop
endfacet
facet normal 1.0 -0.0 -0.0
outer loop
vertex 59.0 75.0 11.0
vertex 59.0 56.0075775965394 8.30922576174567
vertex 59.0 56.784034731847 8.20700324061288
endloop
endfacet
facet normal 1.0 -0.0 -0.0
outer loop
vertex 59.0 75.0 11.0
vertex 59.0 56.784034731847 8.20700324061288
vertex 59.0 57.5075775965394 7.90730197309899
endloop
endfacet
facet normal 1.0 -0.0 -0.0
outer loop
vertex 59.0 75.0 11.0
vertex 59.0 57.5075775965394 7.90730197309899
vertex 59.0 58.128897940099 7.43054610530532
endloop
endfacet
facet normal 1.0 -0.0 -0.0
outer loop
vertex 59.0 75.0 11.0
vertex 59.0 58.128897940099 7.43054610530532
vertex 59.0 58.6056538078927 6.80922576174568
endloop
endfacet
facet normal 1.0 -0.0 -0.0
outer loop
vertex 59.0 75.0 11.0
vertex 59.0 58.6056538078927 6.80922576174568
vertex 59.0 58.9053550754066 6.08568289705324
endloop
endfacet
facet normal 1.0 -0.0 -0.0
outer loop
vertex 59.0 75.0 11.0
vertex 59.0 58.9053550754066 6.08568289705324
vertex 59.0 59.0075775965394 5.30922576174568
endloop
endfacet
facet normal -0.0 -1.0 -0.0
outer loop
vertex 59.0 15.6683942180696 11.0
vertex 39.5 15.6683942180696 0.0
vertex 59.0 15.6683942180696 0.0
endloop
endfacet
facet normal -0.0 -1.0 -0.0
outer loop
vertex 39.5 15.6683942180696 0.0
vertex 59.0 15.6683942180696 11.0
vertex 39.5 15.6683942180696 11.0
endloop
endfacet
facet normal -1.0 0.0 0.0
outer loop
vertex 39.5 65.6683942180696 11.0
vertex 39.5 15.6683942180696 0.0
vertex 39.5 15.6683942180696 11.0
endloop
endfacet
facet normal -1.0 0.0 0.0
outer loop
vertex 39.5 15.6683942180696 0.0
vertex 39.5 65.6683942180696 11.0
vertex 39.5 55.2311204612318 8.20700324061288
endloop
endfacet
facet normal -1.0 0.0 0.0
outer loop
vertex 39.5 15.6683942180696 0.0
vertex 39.5 55.2311204612318 8.20700324061288
vertex 39.5 54.5075775965394 7.90730197309899
endloop
endfacet
facet normal -1.0 0.0 0.0
outer loop
vertex 39.5 15.6683942180696 0.0
vertex 39.5 54.5075775965394 7.90730197309899
vertex 39.5 53.8862572529798 7.43054610530532
endloop
endfacet
facet normal -1.0 0.0 0.0
outer loop
vertex 39.5 15.6683942180696 0.0
vertex 39.5 53.8862572529798 7.43054610530532
vertex 39.5 53.4095013851861 6.80922576174568
endloop
endfacet
facet normal -1.0 0.0 0.0
outer loop
vertex 39.5 15.6683942180696 0.0
vertex 39.5 53.4095013851861 6.80922576174568
vertex 39.5 53.1098001176722 6.08568289705324
endloop
endfacet
facet normal -1.0 0.0 0.0
outer loop
vertex 39.5 15.6683942180696 0.0
vertex 39.5 53.1098001176722 6.08568289705324
vertex 39.5 53.0075775965394 5.30922576174568
endloop
endfacet
facet normal -1.0 0.0 0.0
outer loop
vertex 39.5 55.2311204612318 8.20700324061288
vertex 39.5 65.6683942180696 11.0
vertex 39.5 56.0075775965394 8.30922576174567
endloop
endfacet
facet normal -1.0 0.0 0.0
outer loop
vertex 39.5 56.0075775965394 8.30922576174567
vertex 39.5 65.6683942180696 11.0
vertex 39.5 56.784034731847 8.20700324061288
endloop
endfacet
facet normal -1.0 0.0 0.0
outer loop
vertex 39.5 56.784034731847 8.20700324061288
vertex 39.5 65.6683942180696 11.0
vertex 39.5 57.5075775965394 7.90730197309899
endloop
endfacet
facet normal -1.0 0.0 0.0
outer loop
vertex 39.5 57.5075775965394 7.90730197309899
vertex 39.5 65.6683942180696 11.0
vertex 39.5 58.128897940099 7.43054610530532
endloop
endfacet
facet normal -1.0 0.0 0.0
outer loop
vertex 39.5 58.128897940099 7.43054610530532
vertex 39.5 65.6683942180696 11.0
vertex 39.5 58.6056538078927 6.80922576174568
endloop
endfacet
facet normal -1.0 0.0 0.0
outer loop
vertex 39.5 58.6056538078927 6.80922576174568
vertex 39.5 65.6683942180696 11.0
vertex 39.5 58.9053550754066 6.08568289705324
endloop
endfacet
facet normal -1.0 0.0 0.0
outer loop
vertex 39.5 58.9053550754066 6.08568289705324
vertex 39.5 65.6683942180696 11.0
vertex 39.5 59.0075775965394 5.30922576174568
endloop
endfacet
facet normal -1.0 0.0 0.0
outer loop
vertex 39.5 15.6683942180696 0.0
vertex 39.5 55.2311204612319 2.41144828287848
vertex 39.5 65.6683942180696 0.0
endloop
endfacet
facet normal -1.0 0.0 0.0
outer loop
vertex 39.5 55.2311204612319 2.41144828287848
vertex 39.5 15.6683942180696 0.0
vertex 39.5 54.5075775965394 2.71114955039237
endloop
endfacet
facet normal -1.0 0.0 0.0
outer loop
vertex 39.5 54.5075775965394 2.71114955039237
vertex 39.5 15.6683942180696 0.0
vertex 39.5 53.8862572529798 3.18790541818604
endloop
endfacet
facet normal -1.0 0.0 0.0
outer loop
vertex 39.5 53.8862572529798 3.18790541818604
vertex 39.5 15.6683942180696 0.0
vertex 39.5 53.4095013851861 3.80922576174568
endloop
endfacet
facet normal -1.0 0.0 0.0
outer loop
vertex 39.5 53.4095013851861 3.80922576174568
vertex 39.5 15.6683942180696 0.0
vertex 39.5 53.1098001176722 4.53276862643812
endloop
endfacet
facet normal -1.0 0.0 0.0
outer loop
vertex 39.5 53.1098001176722 4.53276862643812
vertex 39.5 15.6683942180696 0.0
vertex 39.5 53.0075775965394 5.30922576174568
endloop
endfacet
facet normal -1.0 0.0 0.0
outer loop
vertex 39.5 65.6683942180696 0.0
vertex 39.5 55.2311204612319 2.41144828287848
vertex 39.5 56.0075775965394 2.30922576174568
endloop
endfacet
facet normal -1.0 0.0 0.0
outer loop
vertex 39.5 65.6683942180696 0.0
vertex 39.5 56.0075775965394 2.30922576174568
vertex 39.5 56.784034731847 2.41144828287848
endloop
endfacet
facet normal -1.0 0.0 0.0
outer loop
vertex 39.5 65.6683942180696 0.0
vertex 39.5 56.784034731847 2.41144828287848
vertex 39.5 57.5075775965394 2.71114955039237
endloop
endfacet
facet normal -1.0 0.0 0.0
outer loop
vertex 39.5 65.6683942180696 0.0
vertex 39.5 57.5075775965394 2.71114955039237
vertex 39.5 58.128897940099 3.18790541818604
endloop
endfacet
facet normal -1.0 0.0 0.0
outer loop
vertex 39.5 65.6683942180696 0.0
vertex 39.5 58.128897940099 3.18790541818604
vertex 39.5 58.6056538078927 3.80922576174568
endloop
endfacet
facet normal -1.0 0.0 0.0
outer loop
vertex 39.5 65.6683942180696 0.0
vertex 39.5 58.6056538078927 3.80922576174568
vertex 39.5 58.9053550754066 4.53276862643812
endloop
endfacet
facet normal -1.0 0.0 0.0
outer loop
vertex 39.5 65.6683942180696 0.0
vertex 39.5 58.9053550754066 4.53276862643812
vertex 39.5 59.0075775965394 5.30922576174568
endloop
endfacet
facet normal -1.0 0.0 0.0
outer loop
vertex 39.5 65.6683942180696 0.0
vertex 39.5 59.0075775965394 5.30922576174568
vertex 39.5 65.6683942180696 11.0
endloop
endfacet
facet normal -1.0 0.0 0.0
outer loop
vertex 0.0 0.0 24.0
vertex 0.0 3.08874235921462 19.7260252027108
vertex 0.0 0.0 0.0
endloop
endfacet
facet normal -1.0 0.0 0.0
outer loop
vertex 0.0 3.08874235921462 19.7260252027108
vertex 0.0 0.0 24.0
vertex 0.0 3.26314857735344 20.4749442212723
endloop
endfacet
facet normal -1.0 0.0 0.0
outer loop
vertex 0.0 3.26314857735344 20.4749442212723
vertex 0.0 0.0 24.0
vertex 0.0 3.54932218124395 21.1886681831265
endloop
endfacet
facet normal -1.0 0.0 0.0
outer loop
vertex 0.0 3.54932218124395 21.1886681831265
vertex 0.0 0.0 24.0
vertex 0.0 5.0 24.0
endloop
endfacet
facet normal -1.0 0.0 0.0
outer loop
vertex 0.0 0.0 0.0
vertex 0.0 3.08874235921462 19.7260252027108
vertex 0.0 3.03015345127465 18.9593019376699
endloop
endfacet
facet normal -1.0 0.0 0.0
outer loop
vertex 0.0 3.54932218124395 21.1886681831265
vertex 0.0 5.0 24.0
vertex 0.0 3.94061787184296 21.8506235500564
endloop
endfacet
facet normal -1.0 0.0 0.0
outer loop
vertex 0.0 3.94061787184296 21.8506235500564
vertex 0.0 5.0 24.0
vertex 0.0 4.4279492874351 22.4454389135647
endloop
endfacet
facet normal -1.0 0.0 0.0
outer loop
vertex 0.0 4.4279492874351 22.4454389135647
vertex 0.0 5.0 24.0
vertex 0.0 5.0 22.9593019376699
endloop
endfacet
facet normal -1.0 0.0 0.0
outer loop
vertex 0.0 0.0 0.0
vertex 0.0 5.0 11.0
vertex 0.0 10.8918887702399 0.0
endloop
endfacet
facet normal -1.0 0.0 0.0
outer loop
vertex 0.0 5.0 11.0
vertex 0.0 0.0 0.0
vertex 0.0 3.26314857735344 17.4436596540675
endloop
endfacet
facet normal -1.0 0.0 0.0
outer loop
vertex 0.0 3.26314857735344 17.4436596540675
vertex 0.0 0.0 0.0
vertex 0.0 3.08874235921462 18.192578672629
endloop
endfacet
facet normal -1.0 0.0 0.0
outer loop
vertex 0.0 3.08874235921462 18.192578672629
vertex 0.0 0.0 0.0
vertex 0.0 3.03015345127465 18.9593019376699
endloop
endfacet
facet normal -1.0 0.0 0.0
outer loop
vertex 0.0 5.0 11.0
vertex 0.0 3.26314857735344 17.4436596540675
vertex 0.0 3.54932218124395 16.7299356922133
endloop
endfacet
facet normal -1.0 0.0 0.0
outer loop
vertex 0.0 5.0 11.0
vertex 0.0 3.54932218124395 16.7299356922133
vertex 0.0 3.94061787184296 16.0679803252835
endloop
endfacet
facet normal -1.0 0.0 0.0
outer loop
vertex 0.0 5.0 11.0
vertex 0.0 3.94061787184296 16.0679803252835
vertex 0.0 4.4279492874351 15.4731649617751
endloop
endfacet
facet normal -1.0 0.0 0.0
outer loop
vertex 0.0 5.0 11.0
vertex 0.0 4.4279492874351 15.4731649617751
vertex 0.0 5.0 14.9593019376699
endloop
endfacet
facet normal -1.0 0.0 0.0
outer loop
vertex 0.0 10.8918887702399 0.0
vertex 0.0 5.0 11.0
vertex 0.0 10.8918887702399 11.0
endloop
endfacet
facet normal -0.0 1.0 0.0
outer loop
vertex 7.45554644085385 10.8918887702399 2.60027422403288
vertex 49.4286182096264 10.8918887702399 2.66001469814526
vertex 50.205075344934 10.8918887702399 2.55779217701246
endloop
endfacet
facet normal -0.0 1.0 0.0
outer loop
vertex 49.4286182096264 10.8918887702399 2.66001469814526
vertex 7.45554644085385 10.8918887702399 2.60027422403288
vertex 8.23200357616141 10.8918887702399 2.70249674516568
endloop
endfacet
facet normal -0.0 1.0 0.0
outer loop
vertex 49.4286182096264 10.8918887702399 2.66001469814526
vertex 8.23200357616141 10.8918887702399 2.70249674516568
vertex 48.705075344934 10.8918887702399 2.95971596565915
endloop
endfacet
facet normal -0.0 1.0 0.0
outer loop
vertex 48.705075344934 10.8918887702399 2.95971596565915
vertex 8.23200357616141 10.8918887702399 2.70249674516568
vertex 8.95554644085385 10.8918887702399 3.00219801267956
endloop
endfacet
facet normal -0.0 1.0 0.0
outer loop
vertex 48.705075344934 10.8918887702399 2.95971596565915
vertex 8.95554644085385 10.8918887702399 3.00219801267956
vertex 48.0837550013744 10.8918887702399 3.43647183345282
endloop
endfacet
facet normal -0.0 1.0 0.0
outer loop
vertex 48.0837550013744 10.8918887702399 3.43647183345282
vertex 8.95554644085385 10.8918887702399 3.00219801267956
vertex 9.57686678441349 10.8918887702399 3.47895388047324
endloop
endfacet
facet normal -0.0 1.0 0.0
outer loop
vertex 48.0837550013744 10.8918887702399 3.43647183345282
vertex 9.57686678441349 10.8918887702399 3.47895388047324
vertex 47.6069991335807 10.8918887702399 4.05779217701246
endloop
endfacet
facet normal -0.0 1.0 0.0
outer loop
vertex 47.6069991335807 10.8918887702399 4.05779217701246
vertex 9.57686678441349 10.8918887702399 3.47895388047324
vertex 10.0536226522072 10.8918887702399 4.10027422403288
endloop
endfacet
facet normal -0.0 1.0 0.0
outer loop
vertex 47.6069991335807 10.8918887702399 4.05779217701246
vertex 10.0536226522072 10.8918887702399 4.10027422403288
vertex 47.3072978660668 10.8918887702399 4.7813350417049
endloop
endfacet
facet normal -0.0 1.0 0.0
outer loop
vertex 47.3072978660668 10.8918887702399 4.7813350417049
vertex 10.0536226522072 10.8918887702399 4.10027422403288
vertex 10.3533239197211 10.8918887702399 4.82381708872532
endloop
endfacet
facet normal -0.0 1.0 0.0
outer loop
vertex 47.3072978660668 10.8918887702399 4.7813350417049
vertex 10.3533239197211 10.8918887702399 4.82381708872532
vertex 47.205075344934 10.8918887702399 5.55779217701246
endloop
endfacet
facet normal -0.0 1.0 0.0
outer loop
vertex 47.205075344934 10.8918887702399 5.55779217701246
vertex 10.3533239197211 10.8918887702399 4.82381708872532
vertex 10.4555464408538 10.8918887702399 5.60027422403288
endloop
endfacet
facet normal -0.0 1.0 0.0
outer loop
vertex 47.205075344934 10.8918887702399 5.55779217701246
vertex 10.4555464408538 10.8918887702399 5.60027422403288
vertex 47.3072978660668 10.8918887702399 6.33424931232003
endloop
endfacet
facet normal -0.0 1.0 0.0
outer loop
vertex 47.3072978660668 10.8918887702399 6.33424931232003
vertex 10.4555464408538 10.8918887702399 5.60027422403288
vertex 10.3533239197211 10.8918887702399 6.37673135934044
endloop
endfacet
facet normal -0.0 1.0 0.0
outer loop
vertex 47.3072978660668 10.8918887702399 6.33424931232003
vertex 10.3533239197211 10.8918887702399 6.37673135934044
vertex 47.6069991335807 10.8918887702399 7.05779217701246
endloop
endfacet
facet normal -0.0 1.0 0.0
outer loop
vertex 47.6069991335807 10.8918887702399 7.05779217701246
vertex 10.3533239197211 10.8918887702399 6.37673135934044
vertex 10.0536226522072 10.8918887702399 7.10027422403288
endloop
endfacet
facet normal -0.0 1.0 0.0
outer loop
vertex 47.6069991335807 10.8918887702399 7.05779217701246
vertex 10.0536226522072 10.8918887702399 7.10027422403288
vertex 48.0837550013744 10.8918887702399 7.67911252057211
endloop
endfacet
facet normal -0.0 1.0 0.0
outer loop
vertex 48.0837550013744 10.8918887702399 7.67911252057211
vertex 10.0536226522072 10.8918887702399 7.10027422403288
vertex 9.57686678441349 10.8918887702399 7.72159456759252
endloop
endfacet
facet normal -0.0 1.0 0.0
outer loop
vertex 48.0837550013744 10.8918887702399 7.67911252057211
vertex 9.57686678441349 10.8918887702399 7.72159456759252
vertex 48.705075344934 10.8918887702399 8.15586838836578
endloop
endfacet
facet normal -0.0 1.0 0.0
outer loop
vertex 48.705075344934 10.8918887702399 8.15586838836578
vertex 9.57686678441349 10.8918887702399 7.72159456759252
vertex 8.95554644085384 10.8918887702399 8.1983504353862
endloop
endfacet
facet normal -0.0 1.0 0.0
outer loop
vertex 48.705075344934 10.8918887702399 8.15586838836578
vertex 8.95554644085384 10.8918887702399 8.1983504353862
vertex 49.4286182096264 10.8918887702399 8.45556965587967
endloop
endfacet
facet normal -0.0 1.0 0.0
outer loop
vertex 49.4286182096264 10.8918887702399 8.45556965587967
vertex 8.95554644085384 10.8918887702399 8.1983504353862
vertex 8.23200357616141 10.8918887702399 8.49805170290009
endloop
endfacet
facet normal -0.0 1.0 0.0
outer loop
vertex 49.4286182096264 10.8918887702399 8.45556965587967
vertex 8.23200357616141 10.8918887702399 8.49805170290009
vertex 50.205075344934 10.8918887702399 8.55779217701246
endloop
endfacet
facet normal -0.0 1.0 0.0
outer loop
vertex 50.205075344934 10.8918887702399 8.55779217701246
vertex 8.23200357616141 10.8918887702399 8.49805170290009
vertex 7.45554644085385 10.8918887702399 8.60027422403288
endloop
endfacet
facet normal -0.0 1.0 0.0
outer loop
vertex 0.0 10.8918887702399 0.0
vertex 7.45554644085385 10.8918887702399 2.60027422403288
vertex 59.0 10.8918887702399 0.0
endloop
endfacet
facet normal -0.0 1.0 0.0
outer loop
vertex 7.45554644085385 10.8918887702399 2.60027422403288
vertex 0.0 10.8918887702399 0.0
vertex 6.67908930554629 10.8918887702399 2.70249674516568
endloop
endfacet
facet normal -0.0 1.0 0.0
outer loop
vertex 6.67908930554629 10.8918887702399 2.70249674516568
vertex 0.0 10.8918887702399 0.0
vertex 5.95554644085385 10.8918887702399 3.00219801267956
endloop
endfacet
facet normal -0.0 1.0 0.0
outer loop
vertex 5.95554644085385 10.8918887702399 3.00219801267956
vertex 0.0 10.8918887702399 0.0
vertex 5.3342260972942 10.8918887702399 3.47895388047324
endloop
endfacet
facet normal -0.0 1.0 0.0
outer loop
vertex 5.3342260972942 10.8918887702399 3.47895388047324
vertex 0.0 10.8918887702399 0.0
vertex 4.85747022950053 10.8918887702399 4.10027422403288
endloop
endfacet
facet normal -0.0 1.0 0.0
outer loop
vertex 4.85747022950053 10.8918887702399 4.10027422403288
vertex 0.0 10.8918887702399 0.0
vertex 0.0 10.8918887702399 11.0
endloop
endfacet
facet normal -0.0 1.0 0.0
outer loop
vertex 59.0 10.8918887702399 0.0
vertex 7.45554644085385 10.8918887702399 2.60027422403288
vertex 50.205075344934 10.8918887702399 2.55779217701246
endloop
endfacet
facet normal -0.0 1.0 0.0
outer loop
vertex 4.85747022950053 10.8918887702399 4.10027422403288
vertex 0.0 10.8918887702399 11.0
vertex 4.55776896198664 10.8918887702399 4.82381708872532
endloop
endfacet
facet normal -0.0 1.0 0.0
outer loop
vertex 4.55776896198664 10.8918887702399 4.82381708872532
vertex 0.0 10.8918887702399 11.0
vertex 4.45554644085385 10.8918887702399 5.60027422403288
endloop
endfacet
facet normal -0.0 1.0 0.0
outer loop
vertex 4.45554644085385 10.8918887702399 5.60027422403288
vertex 0.0 10.8918887702399 11.0
vertex 4.55776896198664 10.8918887702399 6.37673135934044
endloop
endfacet
facet normal -0.0 1.0 0.0
outer loop
vertex 4.55776896198664 10.8918887702399 6.37673135934044
vertex 0.0 10.8918887702399 11.0
vertex 4.85747022950053 10.8918887702399 7.10027422403288
endloop
endfacet
facet normal -0.0 1.0 0.0
outer loop
vertex 4.85747022950053 10.8918887702399 7.10027422403288
vertex 0.0 10.8918887702399 11.0
vertex 5.3342260972942 10.8918887702399 7.72159456759252
endloop
endfacet
facet normal -0.0 1.0 0.0
outer loop
vertex 5.3342260972942 10.8918887702399 7.72159456759252
vertex 0.0 10.8918887702399 11.0
vertex 5.95554644085384 10.8918887702399 8.1983504353862
endloop
endfacet
facet normal -0.0 1.0 0.0
outer loop
vertex 5.95554644085384 10.8918887702399 8.1983504353862
vertex 0.0 10.8918887702399 11.0
vertex 6.67908930554628 10.8918887702399 8.49805170290009
endloop
endfacet
facet normal -0.0 1.0 0.0
outer loop
vertex 6.67908930554628 10.8918887702399 8.49805170290009
vertex 0.0 10.8918887702399 11.0
vertex 7.45554644085385 10.8918887702399 8.60027422403288
endloop
endfacet
facet normal -0.0 1.0 0.0
outer loop
vertex 59.0 10.8918887702399 0.0
vertex 52.3263956884936 10.8918887702399 3.43647183345282
vertex 59.0 10.8918887702399 11.0
endloop
endfacet
facet normal -0.0 1.0 0.0
outer loop
vertex 52.3263956884936 10.8918887702399 3.43647183345282
vertex 59.0 10.8918887702399 0.0
vertex 51.705075344934 10.8918887702399 2.95971596565915
endloop
endfacet
facet normal -0.0 1.0 0.0
outer loop
vertex 51.705075344934 10.8918887702399 2.95971596565915
vertex 59.0 10.8918887702399 0.0
vertex 50.9815324802416 10.8918887702399 2.66001469814526
endloop
endfacet
facet normal -0.0 1.0 0.0
outer loop
vertex 50.9815324802416 10.8918887702399 2.66001469814526
vertex 59.0 10.8918887702399 0.0
vertex 50.205075344934 10.8918887702399 2.55779217701246
endloop
endfacet
facet normal -0.0 1.0 0.0
outer loop
vertex 59.0 10.8918887702399 11.0
vertex 52.3263956884936 10.8918887702399 3.43647183345282
vertex 52.8031515562873 10.8918887702399 4.05779217701246
endloop
endfacet
facet normal -0.0 1.0 0.0
outer loop
vertex 59.0 10.8918887702399 11.0
vertex 52.8031515562873 10.8918887702399 4.05779217701246
vertex 53.1028528238012 10.8918887702399 4.7813350417049
endloop
endfacet
facet normal -0.0 1.0 0.0
outer loop
vertex 59.0 10.8918887702399 11.0
vertex 53.1028528238012 10.8918887702399 4.7813350417049
vertex 53.205075344934 10.8918887702399 5.55779217701246
endloop
endfacet
facet normal -0.0 1.0 0.0
outer loop
vertex 59.0 10.8918887702399 11.0
vertex 53.205075344934 10.8918887702399 5.55779217701246
vertex 53.1028528238012 10.8918887702399 6.33424931232003
endloop
endfacet
facet normal -0.0 1.0 0.0
outer loop
vertex 59.0 10.8918887702399 11.0
vertex 53.1028528238012 10.8918887702399 6.33424931232003
vertex 52.8031515562873 10.8918887702399 7.05779217701247
endloop
endfacet
facet normal -0.0 1.0 0.0
outer loop
vertex 59.0 10.8918887702399 11.0
vertex 52.8031515562873 10.8918887702399 7.05779217701247
vertex 52.3263956884936 10.8918887702399 7.67911252057211
endloop
endfacet
facet normal -0.0 1.0 0.0
outer loop
vertex 59.0 10.8918887702399 11.0
vertex 52.3263956884936 10.8918887702399 7.67911252057211
vertex 51.705075344934 10.8918887702399 8.15586838836578
endloop
endfacet
facet normal -0.0 1.0 0.0
outer loop
vertex 59.0 10.8918887702399 11.0
vertex 51.705075344934 10.8918887702399 8.15586838836578
vertex 50.9815324802416 10.8918887702399 8.45556965587967
endloop
endfacet
facet normal -0.0 1.0 0.0
outer loop
vertex 59.0 10.8918887702399 11.0
vertex 50.9815324802416 10.8918887702399 8.45556965587967
vertex 50.205075344934 10.8918887702399 8.55779217701246
endloop
endfacet
facet normal -0.0 1.0 0.0
outer loop
vertex 59.0 10.8918887702399 11.0
vertex 50.205075344934 10.8918887702399 8.55779217701246
vertex 7.45554644085385 10.8918887702399 8.60027422403288
endloop
endfacet
facet normal -0.0 1.0 0.0
outer loop
vertex 59.0 10.8918887702399 11.0
vertex 7.45554644085385 10.8918887702399 8.60027422403288
vertex 0.0 10.8918887702399 11.0
endloop
endfacet
facet normal -0.0 -0.0 1.0
outer loop
vertex 59.0 5.0 11.0
vertex 0.0 10.8918887702399 11.0
vertex 0.0 5.0 11.0
endloop
endfacet
facet normal -0.0 -0.0 1.0
outer loop
vertex 0.0 10.8918887702399 11.0
vertex 59.0 5.0 11.0
vertex 59.0 10.8918887702399 11.0
endloop
endfacet
facet normal 0.0 0.0 1.0
outer loop
vertex 59.0 0.0 24.0
vertex 0.0 5.0 24.0
vertex 0.0 0.0 24.0
endloop
endfacet
facet normal 0.0 0.0 1.0
outer loop
vertex 0.0 5.0 24.0
vertex 59.0 0.0 24.0
vertex 59.0 5.0 24.0
endloop
endfacet
facet normal -0.0 1.0 3.56119150161035e-16
outer loop
vertex 0.0 5.0 14.9593019376699
vertex 59.0 5.0 11.0
vertex 0.0 5.0 11.0
endloop
endfacet
facet normal -0.0 1.0 3.56119150161035e-16
outer loop
vertex 59.0 5.0 11.0
vertex 0.0 5.0 14.9593019376699
vertex 59.0 5.0 14.9593019376699
endloop
endfacet
facet normal 0.0 0.0 1.0
outer loop
vertex 59.0 75.0 24.0
vertex 0.0 80.0 24.0
vertex 0.0 75.0 24.0
endloop
endfacet
facet normal 0.0 0.0 1.0
outer loop
vertex 0.0 80.0 24.0
vertex 59.0 75.0 24.0
vertex 59.0 80.0 24.0
endloop
endfacet
facet normal 0.0 -1.0 0.0
outer loop
vertex 59.0 75.0 24.0
vertex 2.8199664825479e-14 75.0 23.0270392704341
vertex 59.0 75.0 23.0270392704341
endloop
endfacet
facet normal 0.0 -1.0 0.0
outer loop
vertex 2.8199664825479e-14 75.0 23.0270392704341
vertex 59.0 75.0 24.0
vertex 0.0 75.0 24.0
endloop
endfacet
facet normal -1.32232982947254e-32 -0.723545652584582 0.690276530548411
outer loop
vertex 59.0 75.5173560353376 15.5693302127461
vertex 2.8199664825479e-14 75.0 15.0270392704341
vertex 59.0 75.0 15.0270392704341
endloop
endfacet
facet normal -1.32232982947254e-32 -0.723545652584582 0.690276530548411
outer loop
vertex 2.8199664825479e-14 75.0 15.0270392704341
vertex 59.0 75.5173560353376 15.5693302127461
vertex 2.8199664825479e-14 75.5173560353376 15.5693302127461
endloop
endfacet
facet normal -0.0 -0.811927927623803 0.583757689751935
outer loop
vertex 59.0 75.9548771599918 16.1778628732461
vertex 2.8199664825479e-14 75.5173560353376 15.5693302127461
vertex 59.0 75.5173560353376 15.5693302127461
endloop
endfacet
facet normal -0.0 -0.811927927623803 0.583757689751935
outer loop
vertex 2.8199664825479e-14 75.5173560353376 15.5693302127461
vertex 59.0 75.9548771599918 16.1778628732461
vertex 2.8199664825479e-14 75.9548771599918 16.1778628732461
endloop
endfacet
facet normal -1.4984118889072e-19 -0.884755539134845 0.46605540010841
outer loop
vertex 59.0 76.3041814798942 16.8409791718782
vertex 2.8199664825479e-14 75.9548771599918 16.1778628732461
vertex 59.0 75.9548771599918 16.1778628732461
endloop
endfacet
facet normal -1.4984118889072e-19 -0.884755539134845 0.46605540010841
outer loop
vertex 2.8199664825479e-14 75.9548771599918 16.1778628732461
vertex 59.0 76.3041814798942 16.8409791718782
vertex 2.8199664825479e-14 76.3041814798942 16.8409791718782
endloop
endfacet
facet normal 1.4984118889072e-19 -0.884755539134845 -0.46605540010841
outer loop
vertex 59.0 75.9548771599918 21.8762156676221
vertex 2.8199664825479e-14 76.3041814798942 21.21309936899
vertex 59.0 76.3041814798942 21.21309936899
endloop
endfacet
facet normal 1.4984118889072e-19 -0.884755539134845 -0.46605540010841
outer loop
vertex 2.8199664825479e-14 76.3041814798942 21.21309936899
vertex 59.0 75.9548771599918 21.8762156676221
vertex 2.8199664825479e-14 75.9548771599918 21.8762156676221
endloop
endfacet
facet normal -0.0 -0.811927927623803 -0.583757689751935
outer loop
vertex 59.0 75.5173560353376 22.4847483281221
vertex 2.8199664825479e-14 75.9548771599918 21.8762156676221
vertex 59.0 75.9548771599918 21.8762156676221
endloop
endfacet
facet normal -0.0 -0.811927927623803 -0.583757689751935
outer loop
vertex 2.8199664825479e-14 75.9548771599918 21.8762156676221
vertex 59.0 75.5173560353376 22.4847483281221
vertex 2.8199664825479e-14 75.5173560353376 22.4847483281221
endloop
endfacet
facet normal -1.32232982947254e-32 -0.723545652584582 -0.690276530548411
outer loop
vertex 59.0 75.0 23.0270392704341
vertex 2.8199664825479e-14 75.5173560353376 22.4847483281221
vertex 59.0 75.5173560353376 22.4847483281221
endloop
endfacet
facet normal -1.32232982947254e-32 -0.723545652584582 -0.690276530548411
outer loop
vertex 2.8199664825479e-14 75.5173560353376 22.4847483281221
vertex 59.0 75.0 23.0270392704341
vertex 2.8199664825479e-14 75.0 23.0270392704341
endloop
endfacet
facet normal 0.0 -1.0 0.0
outer loop
vertex 59.0 75.0 15.0270392704341
vertex 0.0 75.0 11.0
vertex 59.0 75.0 11.0
endloop
endfacet
facet normal 0.0 -1.0 0.0
outer loop
vertex 0.0 75.0 11.0
vertex 59.0 75.0 15.0270392704341
vertex 2.8199664825479e-14 75.0 15.0270392704341
endloop
endfacet
facet normal 1.0 -0.0 -0.0
outer loop
vertex 59.0 0.0 0.0
vertex 59.0 5.0 11.0
vertex 59.0 0.0 24.0
endloop
endfacet
facet normal 1.0 -0.0 -0.0
outer loop
vertex 59.0 5.0 11.0
vertex 59.0 0.0 0.0
vertex 59.0 10.8918887702399 0.0
endloop
endfacet
facet normal 1.0 -0.0 -0.0
outer loop
vertex 59.0 0.0 24.0
vertex 59.0 5.0 11.0
vertex 59.0 3.26314857735344 17.4436596540675
endloop
endfacet
facet normal 1.0 -0.0 -0.0
outer loop
vertex 59.0 0.0 24.0
vertex 59.0 3.26314857735344 17.4436596540675
vertex 59.0 3.08874235921462 18.192578672629
endloop
endfacet
facet normal 1.0 -0.0 -0.0
outer loop
vertex 59.0 0.0 24.0
vertex 59.0 3.08874235921462 18.192578672629
vertex 59.0 3.03015345127465 18.9593019376699
endloop
endfacet
facet normal 1.0 -0.0 -0.0
outer loop
vertex 59.0 3.26314857735344 17.4436596540675
vertex 59.0 5.0 11.0
vertex 59.0 3.54932218124395 16.7299356922133
endloop
endfacet
facet normal 1.0 -0.0 -0.0
outer loop
vertex 59.0 3.54932218124395 16.7299356922133
vertex 59.0 5.0 11.0
vertex 59.0 3.94061787184296 16.0679803252835
endloop
endfacet
facet normal 1.0 -0.0 -0.0
outer loop
vertex 59.0 3.94061787184296 16.0679803252835
vertex 59.0 5.0 11.0
vertex 59.0 4.4279492874351 15.4731649617751
endloop
endfacet
facet normal 1.0 -0.0 -0.0
outer loop
vertex 59.0 4.4279492874351 15.4731649617751
vertex 59.0 5.0 11.0
vertex 59.0 5.0 14.9593019376699
endloop
endfacet
facet normal 1.0 -0.0 -0.0
outer loop
vertex 59.0 5.0 11.0
vertex 59.0 10.8918887702399 0.0
vertex 59.0 10.8918887702399 11.0
endloop
endfacet
facet normal 1.0 -0.0 -0.0
outer loop
vertex 59.0 0.0 24.0
vertex 59.0 3.54932218124395 21.1886681831265
vertex 59.0 5.0 24.0
endloop
endfacet
facet normal 1.0 -0.0 -0.0
outer loop
vertex 59.0 3.54932218124395 21.1886681831265
vertex 59.0 0.0 24.0
vertex 59.0 3.26314857735344 20.4749442212723
endloop
endfacet
facet normal 1.0 -0.0 -0.0
outer loop
vertex 59.0 3.26314857735344 20.4749442212723
vertex 59.0 0.0 24.0
vertex 59.0 3.08874235921462 19.7260252027108
endloop
endfacet
facet normal 1.0 -0.0 -0.0
outer loop
vertex 59.0 3.08874235921462 19.7260252027108
vertex 59.0 0.0 24.0
vertex 59.0 3.03015345127465 18.9593019376699
endloop
endfacet
facet normal 1.0 -0.0 -0.0
outer loop
vertex 59.0 5.0 24.0
vertex 59.0 3.54932218124395 21.1886681831265
vertex 59.0 3.94061787184296 21.8506235500564
endloop
endfacet
facet normal 1.0 -0.0 -0.0
outer loop
vertex 59.0 5.0 24.0
vertex 59.0 3.94061787184296 21.8506235500564
vertex 59.0 4.4279492874351 22.4454389135647
endloop
endfacet
facet normal 1.0 -0.0 -0.0
outer loop
vertex 59.0 5.0 24.0
vertex 59.0 4.4279492874351 22.4454389135647
vertex 59.0 5.0 22.9593019376699
endloop
endfacet
facet normal 0.0 0.668258432845275 -0.743929208279375
outer loop
vertex 59.0 5.0 22.9593019376699
vertex 0.0 4.4279492874351 22.4454389135647
vertex 0.0 5.0 22.9593019376699
endloop
endfacet
facet normal 0.0 0.668258432845275 -0.743929208279375
outer loop
vertex 0.0 4.4279492874351 22.4454389135647
vertex 59.0 5.0 22.9593019376699
vertex 59.0 4.4279492874351 22.4454389135647
endloop
endfacet
facet normal -0.0 0.773533731761508 -0.633755130809302
outer loop
vertex 0.0 4.4279492874351 22.4454389135647
vertex 59.0 3.94061787184296 21.8506235500564
vertex 0.0 3.94061787184296 21.8506235500564
endloop
endfacet
facet normal -0.0 0.773533731761508 -0.633755130809302
outer loop
vertex 59.0 3.94061787184296 21.8506235500564
vertex 0.0 4.4279492874351 22.4454389135647
vertex 59.0 4.4279492874351 22.4454389135647
endloop
endfacet
facet normal -0.0 0.860846636880166 -0.508864488613724
outer loop
vertex 0.0 3.94061787184296 21.8506235500564
vertex 59.0 3.54932218124395 21.1886681831265
vertex 0.0 3.54932218124395 21.1886681831265
endloop
endfacet
facet normal -0.0 0.860846636880166 -0.508864488613724
outer loop
vertex 59.0 3.54932218124395 21.1886681831265
vertex 0.0 3.94061787184296 21.8506235500564
vertex 59.0 3.94061787184296 21.8506235500564
endloop
endfacet
facet normal -0.0 0.92816963637991 -0.372157394259989
outer loop
vertex 0.0 3.54932218124395 21.1886681831265
vertex 59.0 3.26314857735344 20.4749442212723
vertex 0.0 3.26314857735344 20.4749442212723
endloop
endfacet
facet normal -0.0 0.92816963637991 -0.372157394259989
outer loop
vertex 59.0 3.26314857735344 20.4749442212723
vertex 0.0 3.54932218124395 21.1886681831265
vertex 59.0 3.54932218124395 21.1886681831265
endloop
endfacet
facet normal -0.0 0.973939408353763 -0.226808352702279
outer loop
vertex 0.0 3.26314857735344 20.4749442212723
vertex 59.0 3.08874235921462 19.7260252027108
vertex 0.0 3.08874235921462 19.7260252027108
endloop
endfacet
facet normal -0.0 0.973939408353763 -0.226808352702279
outer loop
vertex 59.0 3.08874235921462 19.7260252027108
vertex 0.0 3.26314857735344 20.4749442212723
vertex 59.0 3.26314857735344 20.4749442212723
endloop
endfacet
facet normal -0.0 0.997093123044648 -0.0761925454166663
outer loop
vertex 0.0 3.08874235921462 19.7260252027108
vertex 59.0 3.03015345127465 18.9593019376699
vertex 0.0 3.03015345127465 18.9593019376699
endloop
endfacet
facet normal -0.0 0.997093123044648 -0.0761925454166663
outer loop
vertex 59.0 3.03015345127465 18.9593019376699
vertex 0.0 3.08874235921462 19.7260252027108
vertex 59.0 3.08874235921462 19.7260252027108
endloop
endfacet
facet normal 0.0 0.997093123044648 0.0761925454166663
outer loop
vertex 0.0 3.03015345127465 18.9593019376699
vertex 59.0 3.08874235921462 18.192578672629
vertex 0.0 3.08874235921462 18.192578672629
endloop
endfacet
facet normal 0.0 0.997093123044648 0.0761925454166663
outer loop
vertex 59.0 3.08874235921462 18.192578672629
vertex 0.0 3.03015345127465 18.9593019376699
vertex 59.0 3.03015345127465 18.9593019376699
endloop
endfacet
facet normal 0.0 0.973939408353763 0.226808352702279
outer loop
vertex 0.0 3.08874235921462 18.192578672629
vertex 59.0 3.26314857735344 17.4436596540675
vertex 0.0 3.26314857735344 17.4436596540675
endloop
endfacet
facet normal 0.0 0.973939408353763 0.226808352702279
outer loop
vertex 59.0 3.26314857735344 17.4436596540675
vertex 0.0 3.08874235921462 18.192578672629
vertex 59.0 3.08874235921462 18.192578672629
endloop
endfacet
facet normal 0.0 0.92816963637991 0.37215739425999
outer loop
vertex 0.0 3.26314857735344 17.4436596540675
vertex 59.0 3.54932218124395 16.7299356922133
vertex 0.0 3.54932218124395 16.7299356922133
endloop
endfacet
facet normal 0.0 0.92816963637991 0.37215739425999
outer loop
vertex 59.0 3.54932218124395 16.7299356922133
vertex 0.0 3.26314857735344 17.4436596540675
vertex 59.0 3.26314857735344 17.4436596540675
endloop
endfacet
facet normal 0.0 0.860846636880167 0.508864488613723
outer loop
vertex 0.0 3.54932218124395 16.7299356922133
vertex 59.0 3.94061787184296 16.0679803252835
vertex 0.0 3.94061787184296 16.0679803252835
endloop
endfacet
facet normal 0.0 0.860846636880167 0.508864488613723
outer loop
vertex 59.0 3.94061787184296 16.0679803252835
vertex 0.0 3.54932218124395 16.7299356922133
vertex 59.0 3.54932218124395 16.7299356922133
endloop
endfacet
facet normal 0.0 0.773533731761508 0.633755130809302
outer loop
vertex 0.0 3.94061787184296 16.0679803252835
vertex 59.0 4.4279492874351 15.4731649617751
vertex 0.0 4.4279492874351 15.4731649617751
endloop
endfacet
facet normal 0.0 0.773533731761508 0.633755130809302
outer loop
vertex 59.0 4.4279492874351 15.4731649617751
vertex 0.0 3.94061787184296 16.0679803252835
vertex 59.0 3.94061787184296 16.0679803252835
endloop
endfacet
facet normal -0.0 0.668258432845275 0.743929208279374
outer loop
vertex 59.0 4.4279492874351 15.4731649617751
vertex 0.0 5.0 14.9593019376699
vertex 0.0 4.4279492874351 15.4731649617751
endloop
endfacet
facet normal -0.0 0.668258432845275 0.743929208279374
outer loop
vertex 0.0 5.0 14.9593019376699
vertex 59.0 4.4279492874351 15.4731649617751
vertex 59.0 5.0 14.9593019376699
endloop
endfacet
facet normal -0.0 1.0 -6.77421863415908e-16
outer loop
vertex 0.0 5.0 24.0
vertex 59.0 5.0 22.9593019376699
vertex 0.0 5.0 22.9593019376699
endloop
endfacet
facet normal -0.0 1.0 -6.77421863415908e-16
outer loop
vertex 59.0 5.0 22.9593019376699
vertex 0.0 5.0 24.0
vertex 59.0 5.0 24.0
endloop
endfacet
facet normal -0.0 0.793353340291233 -0.608761429008723
outer loop
vertex 39.5 53.8862572529798 7.43054610530532
vertex 59.0 53.4095013851861 6.80922576174568
vertex 39.5 53.4095013851861 6.80922576174568
endloop
endfacet
facet normal -0.0 0.793353340291233 -0.608761429008723
outer loop
vertex 59.0 53.4095013851861 6.80922576174568
vertex 39.5 53.8862572529798 7.43054610530532
vertex 59.0 53.8862572529798 7.43054610530532
endloop
endfacet
facet normal -0.0 0.923879532511285 -0.382683432365094
outer loop
vertex 39.5 53.4095013851861 6.80922576174568
vertex 59.0 53.1098001176722 6.08568289705324
vertex 39.5 53.1098001176722 6.08568289705324
endloop
endfacet
facet normal -0.0 0.923879532511285 -0.382683432365094
outer loop
vertex 59.0 53.1098001176722 6.08568289705324
vertex 39.5 53.4095013851861 6.80922576174568
vertex 59.0 53.4095013851861 6.80922576174568
endloop
endfacet
facet normal -0.0 0.991444861373811 -0.130526192220045
outer loop
vertex 39.5 53.1098001176722 6.08568289705324
vertex 59.0 53.0075775965394 5.30922576174568
vertex 39.5 53.0075775965394 5.30922576174568
endloop
endfacet
facet normal -0.0 0.991444861373811 -0.130526192220045
outer loop
vertex 59.0 53.0075775965394 5.30922576174568
vertex 39.5 53.1098001176722 6.08568289705324
vertex 59.0 53.1098001176722 6.08568289705324
endloop
endfacet
facet normal 0.0 0.991444861373809 0.130526192220059
outer loop
vertex 39.5 53.0075775965394 5.30922576174568
vertex 59.0 53.1098001176722 4.53276862643812
vertex 39.5 53.1098001176722 4.53276862643812
endloop
endfacet
facet normal 0.0 0.991444861373809 0.130526192220059
outer loop
vertex 59.0 53.1098001176722 4.53276862643812
vertex 39.5 53.0075775965394 5.30922576174568
vertex 59.0 53.0075775965394 5.30922576174568
endloop
endfacet
facet normal 0.0 0.92387953251129 0.382683432365082
outer loop
vertex 39.5 53.1098001176722 4.53276862643812
vertex 59.0 53.4095013851861 3.80922576174568
vertex 39.5 53.4095013851861 3.80922576174568
endloop
endfacet
facet normal 0.0 0.92387953251129 0.382683432365082
outer loop
vertex 59.0 53.4095013851861 3.80922576174568
vertex 39.5 53.1098001176722 4.53276862643812
vertex 59.0 53.1098001176722 4.53276862643812
endloop
endfacet
facet normal 0.0 0.793353340291233 0.608761429008724
outer loop
vertex 39.5 53.4095013851861 3.80922576174568
vertex 59.0 53.8862572529798 3.18790541818604
vertex 39.5 53.8862572529798 3.18790541818604
endloop
endfacet
facet normal 0.0 0.793353340291233 0.608761429008724
outer loop
vertex 59.0 53.8862572529798 3.18790541818604
vertex 39.5 53.4095013851861 3.80922576174568
vertex 59.0 53.4095013851861 3.80922576174568
endloop
endfacet
facet normal 0.0 0.608761429008723 0.793353340291234
outer loop
vertex 59.0 53.8862572529798 3.18790541818604
vertex 39.5 54.5075775965394 2.71114955039237
vertex 39.5 53.8862572529798 3.18790541818604
endloop
endfacet
facet normal 0.0 0.608761429008723 0.793353340291234
outer loop
vertex 39.5 54.5075775965394 2.71114955039237
vertex 59.0 53.8862572529798 3.18790541818604
vertex 59.0 54.5075775965394 2.71114955039237
endloop
endfacet
facet normal 0.0 0.382683432365087 0.923879532511288
outer loop
vertex 59.0 54.5075775965394 2.71114955039237
vertex 39.5 55.2311204612319 2.41144828287848
vertex 39.5 54.5075775965394 2.71114955039237
endloop
endfacet
facet normal 0.0 0.382683432365087 0.923879532511288
outer loop
vertex 39.5 55.2311204612319 2.41144828287848
vertex 59.0 54.5075775965394 2.71114955039237
vertex 59.0 55.2311204612319 2.41144828287848
endloop
endfacet
facet normal 0.0 0.130526192220052 0.99144486137381
outer loop
vertex 59.0 55.2311204612319 2.41144828287848
vertex 39.5 56.0075775965394 2.30922576174568
vertex 39.5 55.2311204612319 2.41144828287848
endloop
endfacet
facet normal 0.0 0.130526192220052 0.99144486137381
outer loop
vertex 39.5 56.0075775965394 2.30922576174568
vertex 59.0 55.2311204612319 2.41144828287848
vertex 59.0 56.0075775965394 2.30922576174568
endloop
endfacet
facet normal -0.0 -0.130526192220053 0.99144486137381
outer loop
vertex 59.0 56.0075775965394 2.30922576174568
vertex 39.5 56.784034731847 2.41144828287848
vertex 39.5 56.0075775965394 2.30922576174568
endloop
endfacet
facet normal -0.0 -0.130526192220053 0.99144486137381
outer loop
vertex 39.5 56.784034731847 2.41144828287848
vertex 59.0 56.0075775965394 2.30922576174568
vertex 59.0 56.784034731847 2.41144828287848
endloop
endfacet
facet normal -0.0 -0.382683432365088 0.923879532511288
outer loop
vertex 59.0 56.784034731847 2.41144828287848
vertex 39.5 57.5075775965394 2.71114955039237
vertex 39.5 56.784034731847 2.41144828287848
endloop
endfacet
facet normal -0.0 -0.382683432365088 0.923879532511288
outer loop
vertex 39.5 57.5075775965394 2.71114955039237
vertex 59.0 56.784034731847 2.41144828287848
vertex 59.0 57.5075775965394 2.71114955039237
endloop
endfacet
facet normal -0.0 -0.608761429008723 0.793353340291234
outer loop
vertex 59.0 57.5075775965394 2.71114955039237
vertex 39.5 58.128897940099 3.18790541818604
vertex 39.5 57.5075775965394 2.71114955039237
endloop
endfacet
facet normal -0.0 -0.608761429008723 0.793353340291234
outer loop
vertex 39.5 58.128897940099 3.18790541818604
vertex 59.0 57.5075775965394 2.71114955039237
vertex 59.0 58.128897940099 3.18790541818604
endloop
endfacet
facet normal -0.0 -0.793353340291233 0.608761429008723
outer loop
vertex 59.0 58.6056538078927 3.80922576174568
vertex 39.5 58.128897940099 3.18790541818604
vertex 59.0 58.128897940099 3.18790541818604
endloop
endfacet
facet normal -0.0 -0.793353340291233 0.608761429008723
outer loop
vertex 39.5 58.128897940099 3.18790541818604
vertex 59.0 58.6056538078927 3.80922576174568
vertex 39.5 58.6056538078927 3.80922576174568
endloop
endfacet
facet normal -0.0 -0.923879532511285 0.382683432365095
outer loop
vertex 59.0 58.9053550754066 4.53276862643812
vertex 39.5 58.6056538078927 3.80922576174568
vertex 59.0 58.6056538078927 3.80922576174568
endloop
endfacet
facet normal -0.0 -0.923879532511285 0.382683432365095
outer loop
vertex 39.5 58.6056538078927 3.80922576174568
vertex 59.0 58.9053550754066 4.53276862643812
vertex 39.5 58.9053550754066 4.53276862643812
endloop
endfacet
facet normal -0.0 -0.991444861373811 0.130526192220045
outer loop
vertex 59.0 59.0075775965394 5.30922576174568
vertex 39.5 58.9053550754066 4.53276862643812
vertex 59.0 58.9053550754066 4.53276862643812
endloop
endfacet
facet normal -0.0 -0.991444861373811 0.130526192220045
outer loop
vertex 39.5 58.9053550754066 4.53276862643812
vertex 59.0 59.0075775965394 5.30922576174568
vertex 39.5 59.0075775965394 5.30922576174568
endloop
endfacet
facet normal -0.0 -0.991444861373809 -0.130526192220059
outer loop
vertex 59.0 58.9053550754066 6.08568289705324
vertex 39.5 59.0075775965394 5.30922576174568
vertex 59.0 59.0075775965394 5.30922576174568
endloop
endfacet
facet normal -0.0 -0.991444861373809 -0.130526192220059
outer loop
vertex 39.5 59.0075775965394 5.30922576174568
vertex 59.0 58.9053550754066 6.08568289705324
vertex 39.5 58.9053550754066 6.08568289705324
endloop
endfacet
facet normal -0.0 -0.92387953251129 -0.382683432365083
outer loop
vertex 59.0 58.6056538078927 6.80922576174568
vertex 39.5 58.9053550754066 6.08568289705324
vertex 59.0 58.9053550754066 6.08568289705324
endloop
endfacet
facet normal -0.0 -0.92387953251129 -0.382683432365083
outer loop
vertex 39.5 58.9053550754066 6.08568289705324
vertex 59.0 58.6056538078927 6.80922576174568
vertex 39.5 58.6056538078927 6.80922576174568
endloop
endfacet
facet normal -0.0 -0.793353340291233 -0.608761429008723
outer loop
vertex 59.0 58.128897940099 7.43054610530532
vertex 39.5 58.6056538078927 6.80922576174568
vertex 59.0 58.6056538078927 6.80922576174568
endloop
endfacet
facet normal -0.0 -0.793353340291233 -0.608761429008723
outer loop
vertex 39.5 58.6056538078927 6.80922576174568
vertex 59.0 58.128897940099 7.43054610530532
vertex 39.5 58.128897940099 7.43054610530532
endloop
endfacet
facet normal -0.0 -0.608761429008722 -0.793353340291234
outer loop
vertex 59.0 58.128897940099 7.43054610530532
vertex 39.5 57.5075775965394 7.90730197309899
vertex 39.5 58.128897940099 7.43054610530532
endloop
endfacet
facet normal -0.0 -0.608761429008722 -0.793353340291234
outer loop
vertex 39.5 57.5075775965394 7.90730197309899
vertex 59.0 58.128897940099 7.43054610530532
vertex 59.0 57.5075775965394 7.90730197309899
endloop
endfacet
facet normal -0.0 -0.382683432365087 -0.923879532511288
outer loop
vertex 59.0 57.5075775965394 7.90730197309899
vertex 39.5 56.784034731847 8.20700324061288
vertex 39.5 57.5075775965394 7.90730197309899
endloop
endfacet
facet normal -0.0 -0.382683432365087 -0.923879532511288
outer loop
vertex 39.5 56.784034731847 8.20700324061288
vertex 59.0 57.5075775965394 7.90730197309899
vertex 59.0 56.784034731847 8.20700324061288
endloop
endfacet
facet normal -0.0 -0.130526192220053 -0.99144486137381
outer loop
vertex 59.0 56.784034731847 8.20700324061288
vertex 39.5 56.0075775965394 8.30922576174567
vertex 39.5 56.784034731847 8.20700324061288
endloop
endfacet
facet normal -0.0 -0.130526192220053 -0.99144486137381
outer loop
vertex 39.5 56.0075775965394 8.30922576174567
vertex 59.0 56.784034731847 8.20700324061288
vertex 59.0 56.0075775965394 8.30922576174567
endloop
endfacet
facet normal -0.0 0.130526192220051 -0.99144486137381
outer loop
vertex 59.0 56.0075775965394 8.30922576174567
vertex 39.5 55.2311204612318 8.20700324061288
vertex 39.5 56.0075775965394 8.30922576174567
endloop
endfacet
facet normal -0.0 0.130526192220051 -0.99144486137381
outer loop
vertex 39.5 55.2311204612318 8.20700324061288
vertex 59.0 56.0075775965394 8.30922576174567
vertex 59.0 55.2311204612318 8.20700324061288
endloop
endfacet
facet normal -0.0 0.382683432365094 -0.923879532511285
outer loop
vertex 59.0 55.2311204612318 8.20700324061288
vertex 39.5 54.5075775965394 7.90730197309899
vertex 39.5 55.2311204612318 8.20700324061288
endloop
endfacet
facet normal -0.0 0.382683432365094 -0.923879532511285
outer loop
vertex 39.5 54.5075775965394 7.90730197309899
vertex 59.0 55.2311204612318 8.20700324061288
vertex 59.0 54.5075775965394 7.90730197309899
endloop
endfacet
facet normal -0.0 0.608761429008722 -0.793353340291234
outer loop
vertex 59.0 54.5075775965394 7.90730197309899
vertex 39.5 53.8862572529798 7.43054610530532
vertex 39.5 54.5075775965394 7.90730197309899
endloop
endfacet
facet normal -0.0 0.608761429008722 -0.793353340291234
outer loop
vertex 39.5 53.8862572529798 7.43054610530532
vertex 59.0 54.5075775965394 7.90730197309899
vertex 59.0 53.8862572529798 7.43054610530532
endloop
endfacet
facet normal 0.0 -1.0 0.0
outer loop
vertex 59.0 0.0 0.0
vertex 50.205075344934 0.0 2.55779217701246
vertex 0.0 0.0 0.0
endloop
endfacet
facet normal 0.0 -1.0 0.0
outer loop
vertex 50.205075344934 0.0 2.55779217701246
vertex 59.0 0.0 0.0
vertex 50.9815324802416 0.0 2.66001469814526
endloop
endfacet
facet normal 0.0 -1.0 0.0
outer loop
vertex 50.9815324802416 0.0 2.66001469814526
vertex 59.0 0.0 0.0
vertex 51.705075344934 0.0 2.95971596565915
endloop
endfacet
facet normal 0.0 -1.0 0.0
outer loop
vertex 51.705075344934 0.0 2.95971596565915
vertex 59.0 0.0 0.0
vertex 52.3263956884936 0.0 3.43647183345282
endloop
endfacet
facet normal 0.0 -1.0 0.0
outer loop
vertex 52.3263956884936 0.0 3.43647183345282
vertex 59.0 0.0 0.0
vertex 52.8031515562873 0.0 4.05779217701246
endloop
endfacet
facet normal 0.0 -1.0 0.0
outer loop
vertex 52.8031515562873 0.0 4.05779217701246
vertex 59.0 0.0 0.0
vertex 53.1028528238012 0.0 4.7813350417049
endloop
endfacet
facet normal 0.0 -1.0 0.0
outer loop
vertex 53.1028528238012 0.0 4.7813350417049
vertex 59.0 0.0 0.0
vertex 59.0 0.0 24.0
endloop
endfacet
facet normal 0.0 -1.0 0.0
outer loop
vertex 53.1028528238012 0.0 4.7813350417049
vertex 59.0 0.0 24.0
vertex 53.205075344934 0.0 5.55779217701246
endloop
endfacet
facet normal 0.0 -1.0 0.0
outer loop
vertex 53.205075344934 0.0 5.55779217701246
vertex 59.0 0.0 24.0
vertex 53.1028528238012 0.0 6.33424931232003
endloop
endfacet
facet normal 0.0 -1.0 0.0
outer loop
vertex 53.1028528238012 0.0 6.33424931232003
vertex 59.0 0.0 24.0
vertex 52.8031515562873 0.0 7.05779217701247
endloop
endfacet
facet normal 0.0 -1.0 0.0
outer loop
vertex 52.8031515562873 0.0 7.05779217701247
vertex 59.0 0.0 24.0
vertex 52.3263956884936 0.0 7.67911252057211
endloop
endfacet
facet normal 0.0 -1.0 0.0
outer loop
vertex 52.3263956884936 0.0 7.67911252057211
vertex 59.0 0.0 24.0
vertex 51.705075344934 0.0 8.15586838836578
endloop
endfacet
facet normal 0.0 -1.0 0.0
outer loop
vertex 51.705075344934 0.0 8.15586838836578
vertex 59.0 0.0 24.0
vertex 50.9815324802416 0.0 8.45556965587967
endloop
endfacet
facet normal 0.0 -1.0 0.0
outer loop
vertex 50.9815324802416 0.0 8.45556965587967
vertex 59.0 0.0 24.0
vertex 50.205075344934 0.0 8.55779217701246
endloop
endfacet
facet normal 0.0 -1.0 0.0
outer loop
vertex 50.205075344934 0.0 8.55779217701246
vertex 59.0 0.0 24.0
vertex 7.45554644085385 0.0 8.60027422403288
endloop
endfacet
facet normal 0.0 -1.0 0.0
outer loop
vertex 0.0 0.0 0.0
vertex 4.55776896198664 0.0 4.82381708872532
vertex 0.0 0.0 24.0
endloop
endfacet
facet normal 0.0 -1.0 0.0
outer loop
vertex 4.55776896198664 0.0 4.82381708872532
vertex 0.0 0.0 0.0
vertex 4.85747022950053 0.0 4.10027422403288
endloop
endfacet
facet normal 0.0 -1.0 0.0
outer loop
vertex 4.85747022950053 0.0 4.10027422403288
vertex 0.0 0.0 0.0
vertex 5.3342260972942 0.0 3.47895388047324
endloop
endfacet
facet normal 0.0 -1.0 0.0
outer loop
vertex 5.3342260972942 0.0 3.47895388047324
vertex 0.0 0.0 0.0
vertex 5.95554644085385 0.0 3.00219801267956
endloop
endfacet
facet normal 0.0 -1.0 0.0
outer loop
vertex 5.95554644085385 0.0 3.00219801267956
vertex 0.0 0.0 0.0
vertex 6.67908930554629 0.0 2.70249674516568
endloop
endfacet
facet normal 0.0 -1.0 0.0
outer loop
vertex 6.67908930554629 0.0 2.70249674516568
vertex 0.0 0.0 0.0
vertex 7.45554644085385 0.0 2.60027422403288
endloop
endfacet
facet normal 0.0 -1.0 0.0
outer loop
vertex 7.45554644085385 0.0 2.60027422403288
vertex 0.0 0.0 0.0
vertex 50.205075344934 0.0 2.55779217701246
endloop
endfacet
facet normal 0.0 -1.0 0.0
outer loop
vertex 0.0 0.0 24.0
vertex 4.55776896198664 0.0 4.82381708872532
vertex 4.45554644085385 0.0 5.60027422403288
endloop
endfacet
facet normal 0.0 -1.0 0.0
outer loop
vertex 0.0 0.0 24.0
vertex 4.45554644085385 0.0 5.60027422403288
vertex 4.55776896198664 0.0 6.37673135934044
endloop
endfacet
facet normal 0.0 -1.0 0.0
outer loop
vertex 0.0 0.0 24.0
vertex 4.55776896198664 0.0 6.37673135934044
vertex 4.85747022950053 0.0 7.10027422403288
endloop
endfacet
facet normal 0.0 -1.0 0.0
outer loop
vertex 0.0 0.0 24.0
vertex 4.85747022950053 0.0 7.10027422403288
vertex 5.3342260972942 0.0 7.72159456759252
endloop
endfacet
facet normal 0.0 -1.0 0.0
outer loop
vertex 0.0 0.0 24.0
vertex 5.3342260972942 0.0 7.72159456759252
vertex 5.95554644085384 0.0 8.1983504353862
endloop
endfacet
facet normal 0.0 -1.0 0.0
outer loop
vertex 0.0 0.0 24.0
vertex 5.95554644085384 0.0 8.1983504353862
vertex 6.67908930554628 0.0 8.49805170290009
endloop
endfacet
facet normal 0.0 -1.0 0.0
outer loop
vertex 0.0 0.0 24.0
vertex 6.67908930554628 0.0 8.49805170290009
vertex 7.45554644085385 0.0 8.60027422403288
endloop
endfacet
facet normal 0.0 -1.0 0.0
outer loop
vertex 0.0 0.0 24.0
vertex 7.45554644085385 0.0 8.60027422403288
vertex 59.0 0.0 24.0
endloop
endfacet
facet normal 0.0 -1.0 0.0
outer loop
vertex 49.4286182096264 0.0 2.66001469814526
vertex 7.45554644085385 0.0 2.60027422403288
vertex 50.205075344934 0.0 2.55779217701246
endloop
endfacet
facet normal 0.0 -1.0 0.0
outer loop
vertex 7.45554644085385 0.0 2.60027422403288
vertex 49.4286182096264 0.0 2.66001469814526
vertex 8.23200357616141 0.0 2.70249674516568
endloop
endfacet
facet normal 0.0 -1.0 0.0
outer loop
vertex 8.23200357616141 0.0 2.70249674516568
vertex 49.4286182096264 0.0 2.66001469814526
vertex 48.705075344934 0.0 2.95971596565915
endloop
endfacet
facet normal 0.0 -1.0 0.0
outer loop
vertex 8.23200357616141 0.0 2.70249674516568
vertex 48.705075344934 0.0 2.95971596565915
vertex 8.95554644085385 0.0 3.00219801267956
endloop
endfacet
facet normal 0.0 -1.0 0.0
outer loop
vertex 8.95554644085385 0.0 3.00219801267956
vertex 48.705075344934 0.0 2.95971596565915
vertex 48.0837550013744 0.0 3.43647183345282
endloop
endfacet
facet normal 0.0 -1.0 0.0
outer loop
vertex 8.95554644085385 0.0 3.00219801267956
vertex 48.0837550013744 0.0 3.43647183345282
vertex 9.57686678441349 0.0 3.47895388047324
endloop
endfacet
facet normal 0.0 -1.0 0.0
outer loop
vertex 9.57686678441349 0.0 3.47895388047324
vertex 48.0837550013744 0.0 3.43647183345282
vertex 47.6069991335807 0.0 4.05779217701246
endloop
endfacet
facet normal 0.0 -1.0 0.0
outer loop
vertex 9.57686678441349 0.0 3.47895388047324
vertex 47.6069991335807 0.0 4.05779217701246
vertex 10.0536226522072 0.0 4.10027422403288
endloop
endfacet
facet normal 0.0 -1.0 0.0
outer loop
vertex 10.0536226522072 0.0 4.10027422403288
vertex 47.6069991335807 0.0 4.05779217701246
vertex 47.3072978660668 0.0 4.7813350417049
endloop
endfacet
facet normal 0.0 -1.0 0.0
outer loop
vertex 10.0536226522072 0.0 4.10027422403288
vertex 47.3072978660668 0.0 4.7813350417049
vertex 10.3533239197211 0.0 4.82381708872532
endloop
endfacet
facet normal 0.0 -1.0 0.0
outer loop
vertex 10.3533239197211 0.0 4.82381708872532
vertex 47.3072978660668 0.0 4.7813350417049
vertex 47.205075344934 0.0 5.55779217701246
endloop
endfacet
facet normal 0.0 -1.0 0.0
outer loop
vertex 10.3533239197211 0.0 4.82381708872532
vertex 47.205075344934 0.0 5.55779217701246
vertex 10.4555464408538 0.0 5.60027422403288
endloop
endfacet
facet normal 0.0 -1.0 0.0
outer loop
vertex 10.4555464408538 0.0 5.60027422403288
vertex 47.205075344934 0.0 5.55779217701246
vertex 47.3072978660668 0.0 6.33424931232003
endloop
endfacet
facet normal 0.0 -1.0 0.0
outer loop
vertex 10.4555464408538 0.0 5.60027422403288
vertex 47.3072978660668 0.0 6.33424931232003
vertex 10.3533239197211 0.0 6.37673135934044
endloop
endfacet
facet normal 0.0 -1.0 0.0
outer loop
vertex 10.3533239197211 0.0 6.37673135934044
vertex 47.3072978660668 0.0 6.33424931232003
vertex 47.6069991335807 0.0 7.05779217701246
endloop
endfacet
facet normal 0.0 -1.0 0.0
outer loop
vertex 10.3533239197211 0.0 6.37673135934044
vertex 47.6069991335807 0.0 7.05779217701246
vertex 10.0536226522072 0.0 7.10027422403288
endloop
endfacet
facet normal 0.0 -1.0 0.0
outer loop
vertex 10.0536226522072 0.0 7.10027422403288
vertex 47.6069991335807 0.0 7.05779217701246
vertex 48.0837550013744 0.0 7.67911252057211
endloop
endfacet
facet normal 0.0 -1.0 0.0
outer loop
vertex 10.0536226522072 0.0 7.10027422403288
vertex 48.0837550013744 0.0 7.67911252057211
vertex 9.57686678441349 0.0 7.72159456759252
endloop
endfacet
facet normal 0.0 -1.0 0.0
outer loop
vertex 9.57686678441349 0.0 7.72159456759252
vertex 48.0837550013744 0.0 7.67911252057211
vertex 48.705075344934 0.0 8.15586838836578
endloop
endfacet
facet normal 0.0 -1.0 0.0
outer loop
vertex 9.57686678441349 0.0 7.72159456759252
vertex 48.705075344934 0.0 8.15586838836578
vertex 8.95554644085384 0.0 8.1983504353862
endloop
endfacet
facet normal 0.0 -1.0 0.0
outer loop
vertex 8.95554644085384 0.0 8.1983504353862
vertex 48.705075344934 0.0 8.15586838836578
vertex 49.4286182096264 0.0 8.45556965587967
endloop
endfacet
facet normal 0.0 -1.0 0.0
outer loop
vertex 8.95554644085384 0.0 8.1983504353862
vertex 49.4286182096264 0.0 8.45556965587967
vertex 8.23200357616141 0.0 8.49805170290009
endloop
endfacet
facet normal 0.0 -1.0 0.0
outer loop
vertex 8.23200357616141 0.0 8.49805170290009
vertex 49.4286182096264 0.0 8.45556965587967
vertex 50.205075344934 0.0 8.55779217701246
endloop
endfacet
facet normal 0.0 -1.0 0.0
outer loop
vertex 8.23200357616141 0.0 8.49805170290009
vertex 50.205075344934 0.0 8.55779217701246
vertex 7.45554644085385 0.0 8.60027422403288
endloop
endfacet
facet normal -0.38268343236509 -0.0 0.923879532511287
outer loop
vertex 8.95554644085385 0.0 3.00219801267956
vertex 8.23200357616141 10.8918887702399 2.70249674516568
vertex 8.23200357616141 0.0 2.70249674516568
endloop
endfacet
facet normal -0.38268343236509 -0.0 0.923879532511287
outer loop
vertex 8.23200357616141 10.8918887702399 2.70249674516568
vertex 8.95554644085385 0.0 3.00219801267956
vertex 8.95554644085385 10.8918887702399 3.00219801267956
endloop
endfacet
facet normal -0.608761429008721 -0.0 0.793353340291235
outer loop
vertex 9.57686678441349 0.0 3.47895388047324
vertex 8.95554644085385 10.8918887702399 3.00219801267956
vertex 8.95554644085385 0.0 3.00219801267956
endloop
endfacet
facet normal -0.608761429008721 -0.0 0.793353340291235
outer loop
vertex 8.95554644085385 10.8918887702399 3.00219801267956
vertex 9.57686678441349 0.0 3.47895388047324
vertex 9.57686678441349 10.8918887702399 3.47895388047324
endloop
endfacet
facet normal -0.793353340291235 -0.0 0.608761429008721
outer loop
vertex 10.0536226522072 10.8918887702399 4.10027422403288
vertex 9.57686678441349 0.0 3.47895388047324
vertex 10.0536226522072 0.0 4.10027422403288
endloop
endfacet
facet normal -0.793353340291235 -0.0 0.608761429008721
outer loop
vertex 9.57686678441349 0.0 3.47895388047324
vertex 10.0536226522072 10.8918887702399 4.10027422403288
vertex 9.57686678441349 10.8918887702399 3.47895388047324
endloop
endfacet
facet normal -0.923879532511287 -0.0 0.382683432365089
outer loop
vertex 10.3533239197211 10.8918887702399 4.82381708872532
vertex 10.0536226522072 0.0 4.10027422403288
vertex 10.3533239197211 0.0 4.82381708872532
endloop
endfacet
facet normal -0.923879532511287 -0.0 0.382683432365089
outer loop
vertex 10.0536226522072 0.0 4.10027422403288
vertex 10.3533239197211 10.8918887702399 4.82381708872532
vertex 10.0536226522072 10.8918887702399 4.10027422403288
endloop
endfacet
facet normal -0.99144486137381 -0.0 0.130526192220052
outer loop
vertex 10.4555464408538 10.8918887702399 5.60027422403288
vertex 10.3533239197211 0.0 4.82381708872532
vertex 10.4555464408538 0.0 5.60027422403288
endloop
endfacet
facet normal -0.99144486137381 -0.0 0.130526192220052
outer loop
vertex 10.3533239197211 0.0 4.82381708872532
vertex 10.4555464408538 10.8918887702399 5.60027422403288
vertex 10.3533239197211 10.8918887702399 4.82381708872532
endloop
endfacet
facet normal -0.99144486137381 -0.0 -0.130526192220051
outer loop
vertex 10.3533239197211 10.8918887702399 6.37673135934044
vertex 10.4555464408538 0.0 5.60027422403288
vertex 10.3533239197211 0.0 6.37673135934044
endloop
endfacet
facet normal -0.99144486137381 -0.0 -0.130526192220051
outer loop
vertex 10.4555464408538 0.0 5.60027422403288
vertex 10.3533239197211 10.8918887702399 6.37673135934044
vertex 10.4555464408538 10.8918887702399 5.60027422403288
endloop
endfacet
facet normal -0.923879532511286 -0.0 -0.382683432365091
outer loop
vertex 10.0536226522072 10.8918887702399 7.10027422403288
vertex 10.3533239197211 0.0 6.37673135934044
vertex 10.0536226522072 0.0 7.10027422403288
endloop
endfacet
facet normal -0.923879532511286 -0.0 -0.382683432365091
outer loop
vertex 10.3533239197211 0.0 6.37673135934044
vertex 10.0536226522072 10.8918887702399 7.10027422403288
vertex 10.3533239197211 10.8918887702399 6.37673135934044
endloop
endfacet
facet normal -0.793353340291235 -0.0 -0.60876142900872
outer loop
vertex 9.57686678441349 10.8918887702399 7.72159456759252
vertex 10.0536226522072 0.0 7.10027422403288
vertex 9.57686678441349 0.0 7.72159456759252
endloop
endfacet
facet normal -0.793353340291235 -0.0 -0.60876142900872
outer loop
vertex 10.0536226522072 0.0 7.10027422403288
vertex 9.57686678441349 10.8918887702399 7.72159456759252
vertex 10.0536226522072 10.8918887702399 7.10027422403288
endloop
endfacet
facet normal -0.60876142900872 -0.0 -0.793353340291236
outer loop
vertex 9.57686678441349 10.8918887702399 7.72159456759252
vertex 8.95554644085384 0.0 8.1983504353862
vertex 8.95554644085384 10.8918887702399 8.1983504353862
endloop
endfacet
facet normal -0.60876142900872 -0.0 -0.793353340291236
outer loop
vertex 8.95554644085384 0.0 8.1983504353862
vertex 9.57686678441349 10.8918887702399 7.72159456759252
vertex 9.57686678441349 0.0 7.72159456759252
endloop
endfacet
facet normal -0.382683432365089 -0.0 -0.923879532511287
outer loop
vertex 8.95554644085384 10.8918887702399 8.1983504353862
vertex 8.23200357616141 0.0 8.49805170290009
vertex 8.23200357616141 10.8918887702399 8.49805170290009
endloop
endfacet
facet normal -0.382683432365089 -0.0 -0.923879532511287
outer loop
vertex 8.23200357616141 0.0 8.49805170290009
vertex 8.95554644085384 10.8918887702399 8.1983504353862
vertex 8.95554644085384 0.0 8.1983504353862
endloop
endfacet
facet normal -0.130526192220052 -0.0 -0.99144486137381
outer loop
vertex 8.23200357616141 10.8918887702399 8.49805170290009
vertex 7.45554644085385 0.0 8.60027422403288
vertex 7.45554644085385 10.8918887702399 8.60027422403288
endloop
endfacet
facet normal -0.130526192220052 -0.0 -0.99144486137381
outer loop
vertex 7.45554644085385 0.0 8.60027422403288
vertex 8.23200357616141 10.8918887702399 8.49805170290009
vertex 8.23200357616141 0.0 8.49805170290009
endloop
endfacet
facet normal 0.130526192220051 -0.0 -0.99144486137381
outer loop
vertex 7.45554644085385 10.8918887702399 8.60027422403288
vertex 6.67908930554628 0.0 8.49805170290009
vertex 6.67908930554628 10.8918887702399 8.49805170290009
endloop
endfacet
facet normal 0.130526192220051 -0.0 -0.99144486137381
outer loop
vertex 6.67908930554628 0.0 8.49805170290009
vertex 7.45554644085385 10.8918887702399 8.60027422403288
vertex 7.45554644085385 0.0 8.60027422403288
endloop
endfacet
facet normal 0.382683432365091 -0.0 -0.923879532511286
outer loop
vertex 6.67908930554628 10.8918887702399 8.49805170290009
vertex 5.95554644085384 0.0 8.1983504353862
vertex 5.95554644085384 10.8918887702399 8.1983504353862
endloop
endfacet
facet normal 0.382683432365091 -0.0 -0.923879532511286
outer loop
vertex 5.95554644085384 0.0 8.1983504353862
vertex 6.67908930554628 10.8918887702399 8.49805170290009
vertex 6.67908930554628 0.0 8.49805170290009
endloop
endfacet
facet normal 0.60876142900872 -0.0 -0.793353340291235
outer loop
vertex 5.95554644085384 10.8918887702399 8.1983504353862
vertex 5.3342260972942 0.0 7.72159456759252
vertex 5.3342260972942 10.8918887702399 7.72159456759252
endloop
endfacet
facet normal 0.60876142900872 -0.0 -0.793353340291235
outer loop
vertex 5.3342260972942 0.0 7.72159456759252
vertex 5.95554644085384 10.8918887702399 8.1983504353862
vertex 5.95554644085384 0.0 8.1983504353862
endloop
endfacet
facet normal 0.793353340291235 -0.0 -0.60876142900872
outer loop
vertex 4.85747022950053 10.8918887702399 7.10027422403288
vertex 5.3342260972942 0.0 7.72159456759252
vertex 4.85747022950053 0.0 7.10027422403288
endloop
endfacet
facet normal 0.793353340291235 -0.0 -0.60876142900872
outer loop
vertex 5.3342260972942 0.0 7.72159456759252
vertex 4.85747022950053 10.8918887702399 7.10027422403288
vertex 5.3342260972942 10.8918887702399 7.72159456759252
endloop
endfacet
facet normal 0.923879532511287 -0.0 -0.382683432365089
outer loop
vertex 4.55776896198664 10.8918887702399 6.37673135934044
vertex 4.85747022950053 0.0 7.10027422403288
vertex 4.55776896198664 0.0 6.37673135934044
endloop
endfacet
facet normal 0.923879532511287 -0.0 -0.382683432365089
outer loop
vertex 4.85747022950053 0.0 7.10027422403288
vertex 4.55776896198664 10.8918887702399 6.37673135934044
vertex 4.85747022950053 10.8918887702399 7.10027422403288
endloop
endfacet
facet normal 0.99144486137381 -0.0 -0.130526192220052
outer loop
vertex 4.45554644085385 10.8918887702399 5.60027422403288
vertex 4.55776896198664 0.0 6.37673135934044
vertex 4.45554644085385 0.0 5.60027422403288
endloop
endfacet
facet normal 0.99144486137381 -0.0 -0.130526192220052
outer loop
vertex 4.55776896198664 0.0 6.37673135934044
vertex 4.45554644085385 10.8918887702399 5.60027422403288
vertex 4.55776896198664 10.8918887702399 6.37673135934044
endloop
endfacet
facet normal 0.99144486137381 0.0 0.130526192220052
outer loop
vertex 4.55776896198664 10.8918887702399 4.82381708872532
vertex 4.45554644085385 0.0 5.60027422403288
vertex 4.55776896198664 0.0 4.82381708872532
endloop
endfacet
facet normal 0.99144486137381 0.0 0.130526192220052
outer loop
vertex 4.45554644085385 0.0 5.60027422403288
vertex 4.55776896198664 10.8918887702399 4.82381708872532
vertex 4.45554644085385 10.8918887702399 5.60027422403288
endloop
endfacet
facet normal 0.923879532511287 0.0 0.38268343236509
outer loop
vertex 4.85747022950053 10.8918887702399 4.10027422403288
vertex 4.55776896198664 0.0 4.82381708872532
vertex 4.85747022950053 0.0 4.10027422403288
endloop
endfacet
facet normal 0.923879532511287 0.0 0.38268343236509
outer loop
vertex 4.55776896198664 0.0 4.82381708872532
vertex 4.85747022950053 10.8918887702399 4.10027422403288
vertex 4.55776896198664 10.8918887702399 4.82381708872532
endloop
endfacet
facet normal 0.793353340291235 0.0 0.608761429008721
outer loop
vertex 5.3342260972942 10.8918887702399 3.47895388047324
vertex 4.85747022950053 0.0 4.10027422403288
vertex 5.3342260972942 0.0 3.47895388047324
endloop
endfacet
facet normal 0.793353340291235 0.0 0.608761429008721
outer loop
vertex 4.85747022950053 0.0 4.10027422403288
vertex 5.3342260972942 10.8918887702399 3.47895388047324
vertex 4.85747022950053 10.8918887702399 4.10027422403288
endloop
endfacet
facet normal 0.608761429008721 0.0 0.793353340291235
outer loop
vertex 5.95554644085385 0.0 3.00219801267956
vertex 5.3342260972942 10.8918887702399 3.47895388047324
vertex 5.3342260972942 0.0 3.47895388047324
endloop
endfacet
facet normal 0.608761429008721 0.0 0.793353340291235
outer loop
vertex 5.3342260972942 10.8918887702399 3.47895388047324
vertex 5.95554644085385 0.0 3.00219801267956
vertex 5.95554644085385 10.8918887702399 3.00219801267956
endloop
endfacet
facet normal 0.382683432365089 0.0 0.923879532511287
outer loop
vertex 6.67908930554629 0.0 2.70249674516568
vertex 5.95554644085385 10.8918887702399 3.00219801267956
vertex 5.95554644085385 0.0 3.00219801267956
endloop
endfacet
facet normal 0.382683432365089 0.0 0.923879532511287
outer loop
vertex 5.95554644085385 10.8918887702399 3.00219801267956
vertex 6.67908930554629 0.0 2.70249674516568
vertex 6.67908930554629 10.8918887702399 2.70249674516568
endloop
endfacet
facet normal 0.130526192220051 0.0 0.99144486137381
outer loop
vertex 7.45554644085385 0.0 2.60027422403288
vertex 6.67908930554629 10.8918887702399 2.70249674516568
vertex 6.67908930554629 0.0 2.70249674516568
endloop
endfacet
facet normal 0.130526192220051 0.0 0.99144486137381
outer loop
vertex 6.67908930554629 10.8918887702399 2.70249674516568
vertex 7.45554644085385 0.0 2.60027422403288
vertex 7.45554644085385 10.8918887702399 2.60027422403288
endloop
endfacet
facet normal -0.130526192220052 -0.0 0.99144486137381
outer loop
vertex 8.23200357616141 0.0 2.70249674516568
vertex 7.45554644085385 10.8918887702399 2.60027422403288
vertex 7.45554644085385 0.0 2.60027422403288
endloop
endfacet
facet normal -0.130526192220052 -0.0 0.99144486137381
outer loop
vertex 7.45554644085385 10.8918887702399 2.60027422403288
vertex 8.23200357616141 0.0 2.70249674516568
vertex 8.23200357616141 10.8918887702399 2.70249674516568
endloop
endfacet
facet normal -0.382683432365089 -0.0 0.923879532511287
outer loop
vertex 51.705075344934 0.0 2.95971596565915
vertex 50.9815324802416 10.8918887702399 2.66001469814526
vertex 50.9815324802416 0.0 2.66001469814526
endloop
endfacet
facet normal -0.382683432365089 -0.0 0.923879532511287
outer loop
vertex 50.9815324802416 10.8918887702399 2.66001469814526
vertex 51.705075344934 0.0 2.95971596565915
vertex 51.705075344934 10.8918887702399 2.95971596565915
endloop
endfacet
facet normal -0.608761429008723 -0.0 0.793353340291234
outer loop
vertex 52.3263956884936 0.0 3.43647183345282
vertex 51.705075344934 10.8918887702399 2.95971596565915
vertex 51.705075344934 0.0 2.95971596565915
endloop
endfacet
facet normal -0.608761429008723 -0.0 0.793353340291234
outer loop
vertex 51.705075344934 10.8918887702399 2.95971596565915
vertex 52.3263956884936 0.0 3.43647183345282
vertex 52.3263956884936 10.8918887702399 3.43647183345282
endloop
endfacet
facet normal -0.793353340291234 -0.0 0.608761429008722
outer loop
vertex 52.8031515562873 10.8918887702399 4.05779217701246
vertex 52.3263956884936 0.0 3.43647183345282
vertex 52.8031515562873 0.0 4.05779217701246
endloop
endfacet
facet normal -0.793353340291234 -0.0 0.608761429008722
outer loop
vertex 52.3263956884936 0.0 3.43647183345282
vertex 52.8031515562873 10.8918887702399 4.05779217701246
vertex 52.3263956884936 10.8918887702399 3.43647183345282
endloop
endfacet
facet normal -0.92387953251129 -0.0 0.382683432365082
outer loop
vertex 53.1028528238012 10.8918887702399 4.7813350417049
vertex 52.8031515562873 0.0 4.05779217701246
vertex 53.1028528238012 0.0 4.7813350417049
endloop
endfacet
facet normal -0.92387953251129 -0.0 0.382683432365082
outer loop
vertex 52.8031515562873 0.0 4.05779217701246
vertex 53.1028528238012 10.8918887702399 4.7813350417049
vertex 52.8031515562873 10.8918887702399 4.05779217701246
endloop
endfacet
facet normal -0.991444861373809 -0.0 0.130526192220059
outer loop
vertex 53.205075344934 10.8918887702399 5.55779217701246
vertex 53.1028528238012 0.0 4.7813350417049
vertex 53.205075344934 0.0 5.55779217701246
endloop
endfacet
facet normal -0.991444861373809 -0.0 0.130526192220059
outer loop
vertex 53.1028528238012 0.0 4.7813350417049
vertex 53.205075344934 10.8918887702399 5.55779217701246
vertex 53.1028528238012 10.8918887702399 4.7813350417049
endloop
endfacet
facet normal -0.991444861373809 -0.0 -0.130526192220059
outer loop
vertex 53.1028528238012 10.8918887702399 6.33424931232003
vertex 53.205075344934 0.0 5.55779217701246
vertex 53.1028528238012 0.0 6.33424931232003
endloop
endfacet
facet normal -0.991444861373809 -0.0 -0.130526192220059
outer loop
vertex 53.205075344934 0.0 5.55779217701246
vertex 53.1028528238012 10.8918887702399 6.33424931232003
vertex 53.205075344934 10.8918887702399 5.55779217701246
endloop
endfacet
facet normal -0.92387953251129 -0.0 -0.382683432365082
outer loop
vertex 52.8031515562873 10.8918887702399 7.05779217701247
vertex 53.1028528238012 0.0 6.33424931232003
vertex 52.8031515562873 0.0 7.05779217701247
endloop
endfacet
facet normal -0.92387953251129 -0.0 -0.382683432365082
outer loop
vertex 53.1028528238012 0.0 6.33424931232003
vertex 52.8031515562873 10.8918887702399 7.05779217701247
vertex 53.1028528238012 10.8918887702399 6.33424931232003
endloop
endfacet
facet normal -0.793353340291234 -0.0 -0.608761429008722
outer loop
vertex 52.3263956884936 10.8918887702399 7.67911252057211
vertex 52.8031515562873 0.0 7.05779217701247
vertex 52.3263956884936 0.0 7.67911252057211
endloop
endfacet
facet normal -0.793353340291234 -0.0 -0.608761429008722
outer loop
vertex 52.8031515562873 0.0 7.05779217701247
vertex 52.3263956884936 10.8918887702399 7.67911252057211
vertex 52.8031515562873 10.8918887702399 7.05779217701247
endloop
endfacet
facet normal -0.608761429008716 -0.0 -0.793353340291239
outer loop
vertex 52.3263956884936 10.8918887702399 7.67911252057211
vertex 51.705075344934 0.0 8.15586838836578
vertex 51.705075344934 10.8918887702399 8.15586838836578
endloop
endfacet
facet normal -0.608761429008716 -0.0 -0.793353340291239
outer loop
vertex 51.705075344934 0.0 8.15586838836578
vertex 52.3263956884936 10.8918887702399 7.67911252057211
vertex 52.3263956884936 0.0 7.67911252057211
endloop
endfacet
facet normal -0.382683432365092 -0.0 -0.923879532511286
outer loop
vertex 51.705075344934 10.8918887702399 8.15586838836578
vertex 50.9815324802416 0.0 8.45556965587967
vertex 50.9815324802416 10.8918887702399 8.45556965587967
endloop
endfacet
facet normal -0.382683432365092 -0.0 -0.923879532511286
outer loop
vertex 50.9815324802416 0.0 8.45556965587967
vertex 51.705075344934 10.8918887702399 8.15586838836578
vertex 51.705075344934 0.0 8.15586838836578
endloop
endfacet
facet normal -0.130526192220052 -0.0 -0.99144486137381
outer loop
vertex 50.9815324802416 10.8918887702399 8.45556965587967
vertex 50.205075344934 0.0 8.55779217701246
vertex 50.205075344934 10.8918887702399 8.55779217701246
endloop
endfacet
facet normal -0.130526192220052 -0.0 -0.99144486137381
outer loop
vertex 50.205075344934 0.0 8.55779217701246
vertex 50.9815324802416 10.8918887702399 8.45556965587967
vertex 50.9815324802416 0.0 8.45556965587967
endloop
endfacet
facet normal 0.130526192220052 -0.0 -0.99144486137381
outer loop
vertex 50.205075344934 10.8918887702399 8.55779217701246
vertex 49.4286182096264 0.0 8.45556965587967
vertex 49.4286182096264 10.8918887702399 8.45556965587967
endloop
endfacet
facet normal 0.130526192220052 -0.0 -0.99144486137381
outer loop
vertex 49.4286182096264 0.0 8.45556965587967
vertex 50.205075344934 10.8918887702399 8.55779217701246
vertex 50.205075344934 0.0 8.55779217701246
endloop
endfacet
facet normal 0.38268343236509 -0.0 -0.923879532511287
outer loop
vertex 49.4286182096264 10.8918887702399 8.45556965587967
vertex 48.705075344934 0.0 8.15586838836578
vertex 48.705075344934 10.8918887702399 8.15586838836578
endloop
endfacet
facet normal 0.38268343236509 -0.0 -0.923879532511287
outer loop
vertex 48.705075344934 0.0 8.15586838836578
vertex 49.4286182096264 10.8918887702399 8.45556965587967
vertex 49.4286182096264 0.0 8.45556965587967
endloop
endfacet
facet normal 0.608761429008722 -0.0 -0.793353340291234
outer loop
vertex 48.705075344934 10.8918887702399 8.15586838836578
vertex 48.0837550013744 0.0 7.67911252057211
vertex 48.0837550013744 10.8918887702399 7.67911252057211
endloop
endfacet
facet normal 0.608761429008722 -0.0 -0.793353340291234
outer loop
vertex 48.0837550013744 0.0 7.67911252057211
vertex 48.705075344934 10.8918887702399 8.15586838836578
vertex 48.705075344934 0.0 8.15586838836578
endloop
endfacet
facet normal 0.793353340291234 -0.0 -0.608761429008722
outer loop
vertex 47.6069991335807 10.8918887702399 7.05779217701246
vertex 48.0837550013744 0.0 7.67911252057211
vertex 47.6069991335807 0.0 7.05779217701246
endloop
endfacet
facet normal 0.793353340291234 -0.0 -0.608761429008722
outer loop
vertex 48.0837550013744 0.0 7.67911252057211
vertex 47.6069991335807 10.8918887702399 7.05779217701246
vertex 48.0837550013744 10.8918887702399 7.67911252057211
endloop
endfacet
facet normal 0.923879532511288 -0.0 -0.382683432365088
outer loop
vertex 47.3072978660668 10.8918887702399 6.33424931232003
vertex 47.6069991335807 0.0 7.05779217701246
vertex 47.3072978660668 0.0 6.33424931232003
endloop
endfacet
facet normal 0.923879532511288 -0.0 -0.382683432365088
outer loop
vertex 47.6069991335807 0.0 7.05779217701246
vertex 47.3072978660668 10.8918887702399 6.33424931232003
vertex 47.6069991335807 10.8918887702399 7.05779217701246
endloop
endfacet
facet normal 0.99144486137381 -0.0 -0.130526192220052
outer loop
vertex 47.205075344934 10.8918887702399 5.55779217701246
vertex 47.3072978660668 0.0 6.33424931232003
vertex 47.205075344934 0.0 5.55779217701246
endloop
endfacet
facet normal 0.99144486137381 -0.0 -0.130526192220052
outer loop
vertex 47.3072978660668 0.0 6.33424931232003
vertex 47.205075344934 10.8918887702399 5.55779217701246
vertex 47.3072978660668 10.8918887702399 6.33424931232003
endloop
endfacet
facet normal 0.99144486137381 0.0 0.130526192220052
outer loop
vertex 47.3072978660668 10.8918887702399 4.7813350417049
vertex 47.205075344934 0.0 5.55779217701246
vertex 47.3072978660668 0.0 4.7813350417049
endloop
endfacet
facet normal 0.99144486137381 0.0 0.130526192220052
outer loop
vertex 47.205075344934 0.0 5.55779217701246
vertex 47.3072978660668 10.8918887702399 4.7813350417049
vertex 47.205075344934 10.8918887702399 5.55779217701246
endloop
endfacet
facet normal 0.923879532511288 0.0 0.382683432365088
outer loop
vertex 47.6069991335807 10.8918887702399 4.05779217701246
vertex 47.3072978660668 0.0 4.7813350417049
vertex 47.6069991335807 0.0 4.05779217701246
endloop
endfacet
facet normal 0.923879532511288 0.0 0.382683432365088
outer loop
vertex 47.3072978660668 0.0 4.7813350417049
vertex 47.6069991335807 10.8918887702399 4.05779217701246
vertex 47.3072978660668 10.8918887702399 4.7813350417049
endloop
endfacet
facet normal 0.793353340291233 0.0 0.608761429008723
outer loop
vertex 48.0837550013744 10.8918887702399 3.43647183345282
vertex 47.6069991335807 0.0 4.05779217701246
vertex 48.0837550013744 0.0 3.43647183345282
endloop
endfacet
facet normal 0.793353340291233 0.0 0.608761429008723
outer loop
vertex 47.6069991335807 0.0 4.05779217701246
vertex 48.0837550013744 10.8918887702399 3.43647183345282
vertex 47.6069991335807 10.8918887702399 4.05779217701246
endloop
endfacet
facet normal 0.608761429008719 0.0 0.793353340291236
outer loop
vertex 48.705075344934 0.0 2.95971596565915
vertex 48.0837550013744 10.8918887702399 3.43647183345282
vertex 48.0837550013744 0.0 3.43647183345282
endloop
endfacet
facet normal 0.608761429008719 0.0 0.793353340291236
outer loop
vertex 48.0837550013744 10.8918887702399 3.43647183345282
vertex 48.705075344934 0.0 2.95971596565915
vertex 48.705075344934 10.8918887702399 2.95971596565915
endloop
endfacet
facet normal 0.382683432365091 0.0 0.923879532511286
outer loop
vertex 49.4286182096264 0.0 2.66001469814526
vertex 48.705075344934 10.8918887702399 2.95971596565915
vertex 48.705075344934 0.0 2.95971596565915
endloop
endfacet
facet normal 0.382683432365091 0.0 0.923879532511286
outer loop
vertex 48.705075344934 10.8918887702399 2.95971596565915
vertex 49.4286182096264 0.0 2.66001469814526
vertex 49.4286182096264 10.8918887702399 2.66001469814526
endloop
endfacet
facet normal 0.130526192220051 0.0 0.99144486137381
outer loop
vertex 50.205075344934 0.0 2.55779217701246
vertex 49.4286182096264 10.8918887702399 2.66001469814526
vertex 49.4286182096264 0.0 2.66001469814526
endloop
endfacet
facet normal 0.130526192220051 0.0 0.99144486137381
outer loop
vertex 49.4286182096264 10.8918887702399 2.66001469814526
vertex 50.205075344934 0.0 2.55779217701246
vertex 50.205075344934 10.8918887702399 2.55779217701246
endloop
endfacet
facet normal -0.130526192220052 -0.0 0.99144486137381
outer loop
vertex 50.9815324802416 0.0 2.66001469814526
vertex 50.205075344934 10.8918887702399 2.55779217701246
vertex 50.205075344934 0.0 2.55779217701246
endloop
endfacet
facet normal -0.130526192220052 -0.0 0.99144486137381
outer loop
vertex 50.205075344934 10.8918887702399 2.55779217701246
vertex 50.9815324802416 0.0 2.66001469814526
vertex 50.9815324802416 10.8918887702399 2.66001469814526
endloop
endfacet
facet normal 3.31927553039793e-21 -0.451338444433417 0.892352849816945
outer loop
vertex 59.0 76.3041814798942 16.8409791718782
vertex 3.94795307556706e-14 76.7225906067441 17.0526041187676
vertex 2.8199664825479e-14 76.3041814798942 16.8409791718782
endloop
endfacet
facet normal 3.31927553039793e-21 -0.451338444433417 0.892352849816945
outer loop
vertex 3.94795307556706e-14 76.7225906067441 17.0526041187676
vertex 59.0 76.3041814798942 16.8409791718782
vertex 59.0 76.7225906067441 17.0526041187676
endloop
endfacet
facet normal -0.0 -0.619986091239065 0.784612800475563
outer loop
vertex 59.0 76.7225906067441 17.0526041187676
vertex 3.94795307556706e-14 77.0904822505367 17.3433050888465
vertex 3.94795307556706e-14 76.7225906067441 17.0526041187676
endloop
endfacet
facet normal -0.0 -0.619986091239065 0.784612800475563
outer loop
vertex 3.94795307556706e-14 77.0904822505367 17.3433050888465
vertex 59.0 76.7225906067441 17.0526041187676
vertex 59.0 77.0904822505367 17.3433050888465
endloop
endfacet
facet normal -0.0 -0.763803327946654 0.645449050055553
outer loop
vertex 59.0 77.3931223704346 17.7014395236687
vertex 3.94795307556706e-14 77.0904822505367 17.3433050888465
vertex 59.0 77.0904822505367 17.3433050888465
endloop
endfacet
facet normal -0.0 -0.763803327946654 0.645449050055553
outer loop
vertex 3.94795307556706e-14 77.0904822505367 17.3433050888465
vertex 59.0 77.3931223704346 17.7014395236687
vertex 3.94795307556706e-14 77.3931223704346 17.7014395236687
endloop
endfacet
facet normal -0.0 -0.877030281847607 0.480435099386283
outer loop
vertex 59.0 77.6183902456742 18.1126641580989
vertex 3.94795307556706e-14 77.3931223704346 17.7014395236687
vertex 59.0 77.3931223704346 17.7014395236687
endloop
endfacet
facet normal -0.0 -0.877030281847607 0.480435099386283
outer loop
vertex 3.94795307556706e-14 77.3931223704346 17.7014395236687
vertex 59.0 77.6183902456742 18.1126641580989
vertex 3.94795307556706e-14 77.6183902456742 18.1126641580989
endloop
endfacet
facet normal -0.0 -0.955132219438632 0.296179748447177
outer loop
vertex 59.0 77.7572639097901 18.560509467321
vertex 3.94795307556706e-14 77.6183902456742 18.1126641580989
vertex 59.0 77.6183902456742 18.1126641580989
endloop
endfacet
facet normal -0.0 -0.955132219438632 0.296179748447177
outer loop
vertex 3.94795307556706e-14 77.6183902456742 18.1126641580989
vertex 59.0 77.7572639097901 18.560509467321
vertex 3.94795307556706e-14 77.7572639097901 18.560509467321
endloop
endfacet
facet normal -0.0 -0.994981162258215 0.100062414278744
outer loop
vertex 59.0 77.8041814798942 19.0270392704341
vertex 3.94795307556706e-14 77.7572639097901 18.560509467321
vertex 59.0 77.7572639097901 18.560509467321
endloop
endfacet
facet normal -0.0 -0.994981162258215 0.100062414278744
outer loop
vertex 3.94795307556706e-14 77.7572639097901 18.560509467321
vertex 59.0 77.8041814798942 19.0270392704341
vertex 3.94795307556706e-14 77.8041814798942 19.0270392704341
endloop
endfacet
facet normal -0.0 -0.994981162258215 -0.100062414278745
outer loop
vertex 59.0 77.7572639097901 19.4935690735472
vertex 3.94795307556706e-14 77.8041814798942 19.0270392704341
vertex 59.0 77.8041814798942 19.0270392704341
endloop
endfacet
facet normal -0.0 -0.994981162258215 -0.100062414278745
outer loop
vertex 3.94795307556706e-14 77.8041814798942 19.0270392704341
vertex 59.0 77.7572639097901 19.4935690735472
vertex 3.94795307556706e-14 77.7572639097901 19.4935690735472
endloop
endfacet
facet normal -0.0 -0.955132219438632 -0.296179748447175
outer loop
vertex 59.0 77.6183902456742 19.9414143827693
vertex 3.94795307556706e-14 77.7572639097901 19.4935690735472
vertex 59.0 77.7572639097901 19.4935690735472
endloop
endfacet
facet normal -0.0 -0.955132219438632 -0.296179748447175
outer loop
vertex 3.94795307556706e-14 77.7572639097901 19.4935690735472
vertex 59.0 77.6183902456742 19.9414143827693
vertex 3.94795307556706e-14 77.6183902456742 19.9414143827693
endloop
endfacet
facet normal -0.0 -0.877030281847607 -0.480435099386283
outer loop
vertex 59.0 77.3931223704346 20.3526390171996
vertex 3.94795307556706e-14 77.6183902456742 19.9414143827693
vertex 59.0 77.6183902456742 19.9414143827693
endloop
endfacet
facet normal -0.0 -0.877030281847607 -0.480435099386283
outer loop
vertex 3.94795307556706e-14 77.6183902456742 19.9414143827693
vertex 59.0 77.3931223704346 20.3526390171996
vertex 3.94795307556706e-14 77.3931223704346 20.3526390171996
endloop
endfacet
facet normal -0.0 -0.763803327946654 -0.645449050055553
outer loop
vertex 59.0 77.0904822505367 20.7107734520218
vertex 3.94795307556706e-14 77.3931223704346 20.3526390171996
vertex 59.0 77.3931223704346 20.3526390171996
endloop
endfacet
facet normal -0.0 -0.763803327946654 -0.645449050055553
outer loop
vertex 3.94795307556706e-14 77.3931223704346 20.3526390171996
vertex 59.0 77.0904822505367 20.7107734520218
vertex 3.94795307556706e-14 77.0904822505367 20.7107734520218
endloop
endfacet
facet normal -0.0 -0.619986091239065 -0.784612800475563
outer loop
vertex 59.0 77.0904822505367 20.7107734520218
vertex 3.94795307556706e-14 76.7225906067441 21.0014744221006
vertex 3.94795307556706e-14 77.0904822505367 20.7107734520218
endloop
endfacet
facet normal -0.0 -0.619986091239065 -0.784612800475563
outer loop
vertex 3.94795307556706e-14 76.7225906067441 21.0014744221006
vertex 59.0 77.0904822505367 20.7107734520218
vertex 59.0 76.7225906067441 21.0014744221006
endloop
endfacet
facet normal 1.48428824932167e-19 -0.451338444433417 -0.892352849816945
outer loop
vertex 3.94795307556706e-14 76.7225906067441 21.0014744221006
vertex 59.0 76.3041814798942 21.21309936899
vertex 2.8199664825479e-14 76.3041814798942 21.21309936899
endloop
endfacet
facet normal 1.48428824932167e-19 -0.451338444433417 -0.892352849816945
outer loop
vertex 59.0 76.3041814798942 21.21309936899
vertex 3.94795307556706e-14 76.7225906067441 21.0014744221006
vertex 59.0 76.7225906067441 21.0014744221006
endloop
endfacet
endsolid nokia_bracket
